ISO-10303-21;
HEADER;
FILE_DESCRIPTION(('FreeCAD Model'),'2;1');
FILE_NAME('Open CASCADE Shape Model','2026-08-04T22:11:17',(''),(''),
  'Open CASCADE STEP processor 7.8','FreeCAD','Unknown');
FILE_SCHEMA(('AUTOMOTIVE_DESIGN { 1 0 10303 214 1 1 1 1 }'));
ENDSEC;
DATA;
#1 = APPLICATION_PROTOCOL_DEFINITION('international standard',
  'automotive_design',2000,#2);
#2 = APPLICATION_CONTEXT(
  'core data for automotive mechanical design processes');
#3 = SHAPE_DEFINITION_REPRESENTATION(#4,#10);
#4 = PRODUCT_DEFINITION_SHAPE('','',#5);
#5 = PRODUCT_DEFINITION('design','',#6,#9);
#6 = PRODUCT_DEFINITION_FORMATION('','',#7);
#7 = PRODUCT('Main_Cylinder','Main_Cylinder','',(#8));
#8 = PRODUCT_CONTEXT('',#2,'mechanical');
#9 = PRODUCT_DEFINITION_CONTEXT('part definition',#2,'design');
#10 = ADVANCED_BREP_SHAPE_REPRESENTATION('',(#11,#15),#336);
#11 = AXIS2_PLACEMENT_3D('',#12,#13,#14);
#12 = CARTESIAN_POINT('',(0.,0.,0.));
#13 = DIRECTION('',(0.,0.,1.));
#14 = DIRECTION('',(1.,0.,-0.));
#15 = MANIFOLD_SOLID_BREP('',#16);
#16 = CLOSED_SHELL('',(#17,#118,#149,#173,#197,#228,#252,#276,#285,#302,
    #319));
#17 = ADVANCED_FACE('',(#18),#113,.T.);
#18 = FACE_BOUND('',#19,.F.);
#19 = EDGE_LOOP('',(#20,#31,#39,#46,#47,#56,#64,#73,#81,#90,#98,#107));
#20 = ORIENTED_EDGE('',*,*,#21,.F.);
#21 = EDGE_CURVE('',#22,#24,#26,.T.);
#22 = VERTEX_POINT('',#23);
#23 = CARTESIAN_POINT('',(50.,0.,0.));
#24 = VERTEX_POINT('',#25);
#25 = CARTESIAN_POINT('',(33.,37.563279941986,-4.E-15));
#26 = CIRCLE('',#27,50.);
#27 = AXIS2_PLACEMENT_3D('',#28,#29,#30);
#28 = CARTESIAN_POINT('',(0.,0.,0.));
#29 = DIRECTION('',(0.,0.,1.));
#30 = DIRECTION('',(1.,0.,0.));
#31 = ORIENTED_EDGE('',*,*,#32,.T.);
#32 = EDGE_CURVE('',#22,#33,#35,.T.);
#33 = VERTEX_POINT('',#34);
#34 = CARTESIAN_POINT('',(50.,0.,110.));
#35 = LINE('',#36,#37);
#36 = CARTESIAN_POINT('',(50.,0.,0.));
#37 = VECTOR('',#38,1.);
#38 = DIRECTION('',(0.,0.,1.));
#39 = ORIENTED_EDGE('',*,*,#40,.T.);
#40 = EDGE_CURVE('',#33,#33,#41,.T.);
#41 = CIRCLE('',#42,50.);
#42 = AXIS2_PLACEMENT_3D('',#43,#44,#45);
#43 = CARTESIAN_POINT('',(0.,0.,110.));
#44 = DIRECTION('',(0.,0.,1.));
#45 = DIRECTION('',(1.,0.,0.));
#46 = ORIENTED_EDGE('',*,*,#32,.F.);
#47 = ORIENTED_EDGE('',*,*,#48,.F.);
#48 = EDGE_CURVE('',#49,#22,#51,.T.);
#49 = VERTEX_POINT('',#50);
#50 = CARTESIAN_POINT('',(33.,-37.56327994198,4.E-15));
#51 = CIRCLE('',#52,50.);
#52 = AXIS2_PLACEMENT_3D('',#53,#54,#55);
#53 = CARTESIAN_POINT('',(0.,0.,0.));
#54 = DIRECTION('',(0.,0.,1.));
#55 = DIRECTION('',(1.,0.,0.));
#56 = ORIENTED_EDGE('',*,*,#57,.F.);
#57 = EDGE_CURVE('',#58,#49,#60,.T.);
#58 = VERTEX_POINT('',#59);
#59 = CARTESIAN_POINT('',(33.,-37.56327994198,33.));
#60 = LINE('',#61,#62);
#61 = CARTESIAN_POINT('',(33.,-37.56327994198,0.));
#62 = VECTOR('',#63,1.);
#63 = DIRECTION('',(-0.,-0.,-1.));
#64 = ORIENTED_EDGE('',*,*,#65,.T.);
#65 = EDGE_CURVE('',#58,#66,#68,.T.);
#66 = VERTEX_POINT('',#67);
#67 = CARTESIAN_POINT('',(0.,-50.,33.));
#68 = CIRCLE('',#69,50.);
#69 = AXIS2_PLACEMENT_3D('',#70,#71,#72);
#70 = CARTESIAN_POINT('',(0.,0.,33.));
#71 = DIRECTION('',(0.,0.,-1.));
#72 = DIRECTION('',(1.,0.,0.));
#73 = ORIENTED_EDGE('',*,*,#74,.T.);
#74 = EDGE_CURVE('',#66,#75,#77,.T.);
#75 = VERTEX_POINT('',#76);
#76 = CARTESIAN_POINT('',(-1.048E-12,-50.,6.E-15));
#77 = LINE('',#78,#79);
#78 = CARTESIAN_POINT('',(0.,-50.,0.));
#79 = VECTOR('',#80,1.);
#80 = DIRECTION('',(-0.,-0.,-1.));
#81 = ORIENTED_EDGE('',*,*,#82,.F.);
#82 = EDGE_CURVE('',#83,#75,#85,.T.);
#83 = VERTEX_POINT('',#84);
#84 = CARTESIAN_POINT('',(-1.053E-12,50.,-6.E-15));
#85 = CIRCLE('',#86,50.);
#86 = AXIS2_PLACEMENT_3D('',#87,#88,#89);
#87 = CARTESIAN_POINT('',(0.,0.,0.));
#88 = DIRECTION('',(0.,0.,1.));
#89 = DIRECTION('',(1.,0.,0.));
#90 = ORIENTED_EDGE('',*,*,#91,.F.);
#91 = EDGE_CURVE('',#92,#83,#94,.T.);
#92 = VERTEX_POINT('',#93);
#93 = CARTESIAN_POINT('',(0.,50.,33.));
#94 = LINE('',#95,#96);
#95 = CARTESIAN_POINT('',(0.,50.,0.));
#96 = VECTOR('',#97,1.);
#97 = DIRECTION('',(-0.,-0.,-1.));
#98 = ORIENTED_EDGE('',*,*,#99,.T.);
#99 = EDGE_CURVE('',#92,#100,#102,.T.);
#100 = VERTEX_POINT('',#101);
#101 = CARTESIAN_POINT('',(33.,37.563279941986,33.));
#102 = CIRCLE('',#103,50.);
#103 = AXIS2_PLACEMENT_3D('',#104,#105,#106);
#104 = CARTESIAN_POINT('',(0.,0.,33.));
#105 = DIRECTION('',(0.,0.,-1.));
#106 = DIRECTION('',(1.,0.,0.));
#107 = ORIENTED_EDGE('',*,*,#108,.T.);
#108 = EDGE_CURVE('',#100,#24,#109,.T.);
#109 = LINE('',#110,#111);
#110 = CARTESIAN_POINT('',(33.,37.563279941986,0.));
#111 = VECTOR('',#112,1.);
#112 = DIRECTION('',(-0.,-0.,-1.));
#113 = CYLINDRICAL_SURFACE('',#114,50.);
#114 = AXIS2_PLACEMENT_3D('',#115,#116,#117);
#115 = CARTESIAN_POINT('',(0.,0.,0.));
#116 = DIRECTION('',(-0.,-0.,-1.));
#117 = DIRECTION('',(1.,0.,0.));
#118 = ADVANCED_FACE('',(#119),#144,.F.);
#119 = FACE_BOUND('',#120,.F.);
#120 = EDGE_LOOP('',(#121,#131,#137,#138));
#121 = ORIENTED_EDGE('',*,*,#122,.F.);
#122 = EDGE_CURVE('',#123,#125,#127,.T.);
#123 = VERTEX_POINT('',#124);
#124 = CARTESIAN_POINT('',(33.,69.5,-1.5E-14));
#125 = VERTEX_POINT('',#126);
#126 = CARTESIAN_POINT('',(33.,69.5,33.));
#127 = LINE('',#128,#129);
#128 = CARTESIAN_POINT('',(33.,69.5,-1.5E-14));
#129 = VECTOR('',#130,1.);
#130 = DIRECTION('',(0.,0.,1.));
#131 = ORIENTED_EDGE('',*,*,#132,.T.);
#132 = EDGE_CURVE('',#123,#24,#133,.T.);
#133 = LINE('',#134,#135);
#134 = CARTESIAN_POINT('',(33.,69.5,-1.543E-14));
#135 = VECTOR('',#136,1.);
#136 = DIRECTION('',(0.,-1.,2.2E-16));
#137 = ORIENTED_EDGE('',*,*,#108,.F.);
#138 = ORIENTED_EDGE('',*,*,#139,.F.);
#139 = EDGE_CURVE('',#125,#100,#140,.T.);
#140 = LINE('',#141,#142);
#141 = CARTESIAN_POINT('',(33.,69.5,33.));
#142 = VECTOR('',#143,1.);
#143 = DIRECTION('',(0.,-1.,2.2E-16));
#144 = PLANE('',#145);
#145 = AXIS2_PLACEMENT_3D('',#146,#147,#148);
#146 = CARTESIAN_POINT('',(33.,69.5,-1.543E-14));
#147 = DIRECTION('',(-1.,0.,0.));
#148 = DIRECTION('',(0.,2.2E-16,1.));
#149 = ADVANCED_FACE('',(#150),#168,.F.);
#150 = FACE_BOUND('',#151,.F.);
#151 = EDGE_LOOP('',(#152,#160,#161,#162));
#152 = ORIENTED_EDGE('',*,*,#153,.F.);
#153 = EDGE_CURVE('',#125,#154,#156,.T.);
#154 = VERTEX_POINT('',#155);
#155 = CARTESIAN_POINT('',(0.,69.5,33.));
#156 = LINE('',#157,#158);
#157 = CARTESIAN_POINT('',(33.,69.5,33.));
#158 = VECTOR('',#159,1.);
#159 = DIRECTION('',(-1.,0.,0.));
#160 = ORIENTED_EDGE('',*,*,#139,.T.);
#161 = ORIENTED_EDGE('',*,*,#99,.F.);
#162 = ORIENTED_EDGE('',*,*,#163,.F.);
#163 = EDGE_CURVE('',#154,#92,#164,.T.);
#164 = LINE('',#165,#166);
#165 = CARTESIAN_POINT('',(0.,69.5,33.));
#166 = VECTOR('',#167,1.);
#167 = DIRECTION('',(0.,-1.,2.2E-16));
#168 = PLANE('',#169);
#169 = AXIS2_PLACEMENT_3D('',#170,#171,#172);
#170 = CARTESIAN_POINT('',(33.,69.5,33.));
#171 = DIRECTION('',(-0.,-2.2E-16,-1.));
#172 = DIRECTION('',(-1.,0.,0.));
#173 = ADVANCED_FACE('',(#174),#192,.F.);
#174 = FACE_BOUND('',#175,.F.);
#175 = EDGE_LOOP('',(#176,#184,#185,#186));
#176 = ORIENTED_EDGE('',*,*,#177,.F.);
#177 = EDGE_CURVE('',#154,#178,#180,.T.);
#178 = VERTEX_POINT('',#179);
#179 = CARTESIAN_POINT('',(0.,69.5,-1.5E-14));
#180 = LINE('',#181,#182);
#181 = CARTESIAN_POINT('',(0.,69.5,33.));
#182 = VECTOR('',#183,1.);
#183 = DIRECTION('',(0.,0.,-1.));
#184 = ORIENTED_EDGE('',*,*,#163,.T.);
#185 = ORIENTED_EDGE('',*,*,#91,.T.);
#186 = ORIENTED_EDGE('',*,*,#187,.F.);
#187 = EDGE_CURVE('',#178,#83,#188,.T.);
#188 = LINE('',#189,#190);
#189 = CARTESIAN_POINT('',(0.,69.5,-1.543E-14));
#190 = VECTOR('',#191,1.);
#191 = DIRECTION('',(0.,-1.,2.2E-16));
#192 = PLANE('',#193);
#193 = AXIS2_PLACEMENT_3D('',#194,#195,#196);
#194 = CARTESIAN_POINT('',(0.,69.5,33.));
#195 = DIRECTION('',(1.,0.,0.));
#196 = DIRECTION('',(0.,-2.2E-16,-1.));
#197 = ADVANCED_FACE('',(#198),#223,.F.);
#198 = FACE_BOUND('',#199,.F.);
#199 = EDGE_LOOP('',(#200,#201,#209,#217));
#200 = ORIENTED_EDGE('',*,*,#74,.F.);
#201 = ORIENTED_EDGE('',*,*,#202,.T.);
#202 = EDGE_CURVE('',#66,#203,#205,.T.);
#203 = VERTEX_POINT('',#204);
#204 = CARTESIAN_POINT('',(0.,-69.5,33.));
#205 = LINE('',#206,#207);
#206 = CARTESIAN_POINT('',(0.,69.5,33.));
#207 = VECTOR('',#208,1.);
#208 = DIRECTION('',(0.,-1.,2.2E-16));
#209 = ORIENTED_EDGE('',*,*,#210,.T.);
#210 = EDGE_CURVE('',#203,#211,#213,.T.);
#211 = VERTEX_POINT('',#212);
#212 = CARTESIAN_POINT('',(0.,-69.5,1.5E-14));
#213 = LINE('',#214,#215);
#214 = CARTESIAN_POINT('',(0.,-69.5,33.));
#215 = VECTOR('',#216,1.);
#216 = DIRECTION('',(0.,0.,-1.));
#217 = ORIENTED_EDGE('',*,*,#218,.F.);
#218 = EDGE_CURVE('',#75,#211,#219,.T.);
#219 = LINE('',#220,#221);
#220 = CARTESIAN_POINT('',(0.,69.5,-1.543E-14));
#221 = VECTOR('',#222,1.);
#222 = DIRECTION('',(0.,-1.,2.2E-16));
#223 = PLANE('',#224);
#224 = AXIS2_PLACEMENT_3D('',#225,#226,#227);
#225 = CARTESIAN_POINT('',(0.,69.5,33.));
#226 = DIRECTION('',(1.,0.,0.));
#227 = DIRECTION('',(0.,-2.2E-16,-1.));
#228 = ADVANCED_FACE('',(#229),#247,.F.);
#229 = FACE_BOUND('',#230,.F.);
#230 = EDGE_LOOP('',(#231,#232,#240,#246));
#231 = ORIENTED_EDGE('',*,*,#65,.F.);
#232 = ORIENTED_EDGE('',*,*,#233,.T.);
#233 = EDGE_CURVE('',#58,#234,#236,.T.);
#234 = VERTEX_POINT('',#235);
#235 = CARTESIAN_POINT('',(33.,-69.5,33.));
#236 = LINE('',#237,#238);
#237 = CARTESIAN_POINT('',(33.,69.5,33.));
#238 = VECTOR('',#239,1.);
#239 = DIRECTION('',(0.,-1.,2.2E-16));
#240 = ORIENTED_EDGE('',*,*,#241,.T.);
#241 = EDGE_CURVE('',#234,#203,#242,.T.);
#242 = LINE('',#243,#244);
#243 = CARTESIAN_POINT('',(33.,-69.5,33.));
#244 = VECTOR('',#245,1.);
#245 = DIRECTION('',(-1.,0.,0.));
#246 = ORIENTED_EDGE('',*,*,#202,.F.);
#247 = PLANE('',#248);
#248 = AXIS2_PLACEMENT_3D('',#249,#250,#251);
#249 = CARTESIAN_POINT('',(33.,69.5,33.));
#250 = DIRECTION('',(-0.,-2.2E-16,-1.));
#251 = DIRECTION('',(-1.,0.,0.));
#252 = ADVANCED_FACE('',(#253),#271,.F.);
#253 = FACE_BOUND('',#254,.F.);
#254 = EDGE_LOOP('',(#255,#256,#264,#270));
#255 = ORIENTED_EDGE('',*,*,#57,.T.);
#256 = ORIENTED_EDGE('',*,*,#257,.T.);
#257 = EDGE_CURVE('',#49,#258,#260,.T.);
#258 = VERTEX_POINT('',#259);
#259 = CARTESIAN_POINT('',(33.,-69.5,1.5E-14));
#260 = LINE('',#261,#262);
#261 = CARTESIAN_POINT('',(33.,69.5,-1.543E-14));
#262 = VECTOR('',#263,1.);
#263 = DIRECTION('',(0.,-1.,2.2E-16));
#264 = ORIENTED_EDGE('',*,*,#265,.T.);
#265 = EDGE_CURVE('',#258,#234,#266,.T.);
#266 = LINE('',#267,#268);
#267 = CARTESIAN_POINT('',(33.,-69.5,1.6E-14));
#268 = VECTOR('',#269,1.);
#269 = DIRECTION('',(0.,0.,1.));
#270 = ORIENTED_EDGE('',*,*,#233,.F.);
#271 = PLANE('',#272);
#272 = AXIS2_PLACEMENT_3D('',#273,#274,#275);
#273 = CARTESIAN_POINT('',(33.,69.5,-1.543E-14));
#274 = DIRECTION('',(-1.,0.,0.));
#275 = DIRECTION('',(0.,2.2E-16,1.));
#276 = ADVANCED_FACE('',(#277),#280,.T.);
#277 = FACE_BOUND('',#278,.T.);
#278 = EDGE_LOOP('',(#279));
#279 = ORIENTED_EDGE('',*,*,#40,.T.);
#280 = PLANE('',#281);
#281 = AXIS2_PLACEMENT_3D('',#282,#283,#284);
#282 = CARTESIAN_POINT('',(-3.5E-15,-2.04E-15,110.));
#283 = DIRECTION('',(0.,0.,1.));
#284 = DIRECTION('',(1.,0.,0.));
#285 = ADVANCED_FACE('',(#286),#297,.T.);
#286 = FACE_BOUND('',#287,.F.);
#287 = EDGE_LOOP('',(#288,#294,#295,#296));
#288 = ORIENTED_EDGE('',*,*,#289,.T.);
#289 = EDGE_CURVE('',#178,#123,#290,.T.);
#290 = LINE('',#291,#292);
#291 = CARTESIAN_POINT('',(0.,69.5,-1.5E-14));
#292 = VECTOR('',#293,1.);
#293 = DIRECTION('',(1.,0.,0.));
#294 = ORIENTED_EDGE('',*,*,#122,.T.);
#295 = ORIENTED_EDGE('',*,*,#153,.T.);
#296 = ORIENTED_EDGE('',*,*,#177,.T.);
#297 = PLANE('',#298);
#298 = AXIS2_PLACEMENT_3D('',#299,#300,#301);
#299 = CARTESIAN_POINT('',(16.5,69.5,16.5));
#300 = DIRECTION('',(0.,1.,0.));
#301 = DIRECTION('',(0.,0.,1.));
#302 = ADVANCED_FACE('',(#303),#314,.F.);
#303 = FACE_BOUND('',#304,.T.);
#304 = EDGE_LOOP('',(#305,#311,#312,#313));
#305 = ORIENTED_EDGE('',*,*,#306,.T.);
#306 = EDGE_CURVE('',#211,#258,#307,.T.);
#307 = LINE('',#308,#309);
#308 = CARTESIAN_POINT('',(0.,-69.5,1.6E-14));
#309 = VECTOR('',#310,1.);
#310 = DIRECTION('',(1.,0.,0.));
#311 = ORIENTED_EDGE('',*,*,#265,.T.);
#312 = ORIENTED_EDGE('',*,*,#241,.T.);
#313 = ORIENTED_EDGE('',*,*,#210,.T.);
#314 = PLANE('',#315);
#315 = AXIS2_PLACEMENT_3D('',#316,#317,#318);
#316 = CARTESIAN_POINT('',(16.5,-69.5,16.5));
#317 = DIRECTION('',(0.,1.,0.));
#318 = DIRECTION('',(0.,0.,1.));
#319 = ADVANCED_FACE('',(#320),#331,.T.);
#320 = FACE_BOUND('',#321,.T.);
#321 = EDGE_LOOP('',(#322,#323,#324,#325,#326,#327,#328,#329,#330));
#322 = ORIENTED_EDGE('',*,*,#48,.F.);
#323 = ORIENTED_EDGE('',*,*,#257,.T.);
#324 = ORIENTED_EDGE('',*,*,#306,.F.);
#325 = ORIENTED_EDGE('',*,*,#218,.F.);
#326 = ORIENTED_EDGE('',*,*,#82,.F.);
#327 = ORIENTED_EDGE('',*,*,#187,.F.);
#328 = ORIENTED_EDGE('',*,*,#289,.T.);
#329 = ORIENTED_EDGE('',*,*,#132,.T.);
#330 = ORIENTED_EDGE('',*,*,#21,.F.);
#331 = PLANE('',#332);
#332 = AXIS2_PLACEMENT_3D('',#333,#334,#335);
#333 = CARTESIAN_POINT('',(6.406040267937,2.11E-15,0.));
#334 = DIRECTION('',(-0.,-0.,-1.));
#335 = DIRECTION('',(-1.,0.,0.));
#336 = ( GEOMETRIC_REPRESENTATION_CONTEXT(3) 
GLOBAL_UNCERTAINTY_ASSIGNED_CONTEXT((#340)) GLOBAL_UNIT_ASSIGNED_CONTEXT
((#337,#338,#339)) REPRESENTATION_CONTEXT('Context #1',
  '3D Context with UNIT and UNCERTAINTY') );
#337 = ( LENGTH_UNIT() NAMED_UNIT(*) SI_UNIT(.MILLI.,.METRE.) );
#338 = ( NAMED_UNIT(*) PLANE_ANGLE_UNIT() SI_UNIT($,.RADIAN.) );
#339 = ( NAMED_UNIT(*) SI_UNIT($,.STERADIAN.) SOLID_ANGLE_UNIT() );
#340 = UNCERTAINTY_MEASURE_WITH_UNIT(LENGTH_MEASURE(1.E-07),#337,
  'distance_accuracy_value','confusion accuracy');
#341 = PRODUCT_RELATED_PRODUCT_CATEGORY('part',$,(#7));
#342 = MECHANICAL_DESIGN_GEOMETRIC_PRESENTATION_REPRESENTATION('',(#343)
  ,#336);
#343 = STYLED_ITEM('color',(#344),#15);
#344 = PRESENTATION_STYLE_ASSIGNMENT((#345,#351));
#345 = SURFACE_STYLE_USAGE(.BOTH.,#346);
#346 = SURFACE_SIDE_STYLE('',(#347));
#347 = SURFACE_STYLE_FILL_AREA(#348);
#348 = FILL_AREA_STYLE('',(#349));
#349 = FILL_AREA_STYLE_COLOUR('',#350);
#350 = COLOUR_RGB('',0.447058818107,0.474509808674,0.501960817233);
#351 = CURVE_STYLE('',#352,POSITIVE_LENGTH_MEASURE(0.1),#353);
#352 = DRAUGHTING_PRE_DEFINED_CURVE_FONT('continuous');
#353 = COLOUR_RGB('',0.376470596604,0.376470596604,0.376470596604);
ENDSEC;
END-ISO-10303-21;
