999
dxflib 3.26.4.0
  0
SECTION
  2
HEADER
  9
$ACADVER
  1
AC1015
  9
$HANDSEED
  5
FFFF
  9
$DIMADEC
 70
0
  9
$DIMASZ
 40
0.125
  9
$DIMATFIT
 70
0
  9
$DIMAUNIT
 70
0
  9
$DIMAZIN
 70
2
  9
$DIMBLK
  1
-1
  9
$DIMBLK1
  1
-1
  9
$DIMBLK2
  1
-1
  9
$DIMDEC
 70
4
  9
$DIMDLI
 40
0.25
  9
$DIMDSEP
 70
46
  9
$DIMEXE
 40
0.0625
  9
$DIMEXO
 40
0.03125
  9
$DIMGAP
 40
0.03125
  9
$DIMLFAC
 40
1.0
  9
$DIMLUNIT
 70
3
  9
$DIMSCALE
 40
1.0
  9
$DIMTAD
 70
1
  9
$DIMTIH
 70
0
  9
$DIMTSZ
 40
0.0
  9
$DIMTXT
 40
0.125
  9
$DIMZIN
 70
8
  9
$DWGCODEPAGE
  3
ANSI_1252
  9
$INSUNITS
 70
1
  9
$LTSCALE
 40
1.0
  9
$MAXACTVP
 70
64
  9
$MEASUREMENT
 70
0
  9
$MIRRTEXT
 70
0
  9
$PDMODE
 70
0
  9
$PDSIZE
 40
0.0
  0
ENDSEC
  0
SECTION
  2
TABLES
  0
TABLE
  2
VPORT
  5
8
100
AcDbSymbolTable
 70
1
  0
VPORT
  5
30
100
AcDbSymbolTableRecord
100
AcDbViewportTableRecord
  2
*Active
 70
0
 10
0.0
 20
0.0
 11
1.0
 21
1.0
 12
286.3055555555554861
 22
148.5
 13
0.0
 23
0.0
 14
10.0
 24
10.0
 15
10.0
 25
10.0
 16
0.0
 26
0.0
 36
1.0
 17
0.0
 27
0.0
 37
0.0
 40
297.0
 41
1.92798353909465
 42
50.0
 43
0.0
 44
0.0
 50
0.0
 51
0.0
 71
0
 72
100
 73
1
 74
3
 75
1
 76
1
 77
0
 78
0
281
0
 65
1
110
0.0
120
0.0
130
0.0
111
1.0
121
0.0
131
0.0
112
0.0
122
1.0
132
0.0
 79
0
146
0.0
  0
ENDTAB
  0
TABLE
  2
LTYPE
  5
5
100
AcDbSymbolTable
 70
41
  0
LTYPE
  5
16
100
AcDbSymbolTableRecord
100
AcDbLinetypeTableRecord
  2
Continuous
 70
0
  3
Solid line
 72
65
 73
0
 40
0.0
  0
LTYPE
  5
31
100
AcDbSymbolTableRecord
100
AcDbLinetypeTableRecord
  2
ACAD_ISO03W100
 70
0
  3
ISO dash space __    __    __    __    __    __
 72
65
 73
2
 40
30.0
 49
12.0
 74
0
 49
-18.0
 74
0
  0
LTYPE
  5
32
100
AcDbSymbolTableRecord
100
AcDbLinetypeTableRecord
  2
CENTER
 70
0
  3
Center ____ _ ____ _ ____ _ ____ _ ____ _ ____
 72
65
 73
4
 40
2.0
 49
1.25
 74
0
 49
-0.25
 74
0
 49
0.25
 74
0
 49
-0.25
 74
0
  0
LTYPE
  5
33
100
AcDbSymbolTableRecord
100
AcDbLinetypeTableRecord
  2
DIVIDE
 70
0
  3
Divide ____ . . ____ . . ____ . . ____ . . ____
 72
65
 73
6
 40
1.25
 49
0.5
 74
0
 49
-0.2
 74
0
 49
0.1
 74
0
 49
-0.15
 74
0
 49
0.1
 74
0
 49
-0.2
 74
0
  0
LTYPE
  5
34
100
AcDbSymbolTableRecord
100
AcDbLinetypeTableRecord
  2
BORDERX2
 70
0
  3
Border (2x) ____  ____  .  ____  ____  .  ___
 72
65
 73
6
 40
3.5000000000000004
 49
1.0
 74
0
 49
-0.5
 74
0
 49
1.0
 74
0
 49
-0.45
 74
0
 49
0.1
 74
0
 49
-0.45
 74
0
  0
LTYPE
  5
35
100
AcDbSymbolTableRecord
100
AcDbLinetypeTableRecord
  2
ACAD_ISO04W100
 70
0
  3
ISO long-dash dot ____ . ____ . ____ . ____ . _
 72
65
 73
4
 40
30.0
 49
24.0
 74
0
 49
-2.9500000000000002
 74
0
 49
0.1
 74
0
 49
-2.9500000000000002
 74
0
  0
LTYPE
  5
36
100
AcDbSymbolTableRecord
100
AcDbLinetypeTableRecord
  2
PHANTOMX2
 70
0
  3
Phantom (2x) ____________    ____    ____   _
 72
65
 73
6
 40
5.0
 49
2.5
 74
0
 49
-0.5
 74
0
 49
0.5
 74
0
 49
-0.5
 74
0
 49
0.5
 74
0
 49
-0.5
 74
0
  0
LTYPE
  5
37
100
AcDbSymbolTableRecord
100
AcDbLinetypeTableRecord
  2
DIVIDEX2
 70
0
  3
Divide (2x) ________  .  .  ________  .  .  _
 72
65
 73
6
 40
2.5000000000000004
 49
1.0
 74
0
 49
-0.45
 74
0
 49
0.1
 74
0
 49
-0.4
 74
0
 49
0.1
 74
0
 49
-0.45
 74
0
  0
LTYPE
  5
38
100
AcDbSymbolTableRecord
100
AcDbLinetypeTableRecord
  2
DASHED2
 70
0
  3
Dashed (.5x) _ _ _ _ _ _ _ _ _ _ _ _ _ _ _ _ _ 
 72
65
 73
2
 40
0.375
 49
0.25
 74
0
 49
-0.125
 74
0
  0
LTYPE
  5
39
100
AcDbSymbolTableRecord
100
AcDbLinetypeTableRecord
  2
DOTX2
 70
0
  3
Dot (2x) .  .  .  .  .  .  .  .  .  .  .  .  .  .
 72
65
 73
2
 40
0.5
 49
0.1
 74
0
 49
-0.4
 74
0
  0
LTYPE
  5
3A
100
AcDbSymbolTableRecord
100
AcDbLinetypeTableRecord
  2
DASHDOT2
 70
0
  3
Dash dot (.5x) _._._._._._._._._._._._._._._.
 72
65
 73
4
 40
0.5
 49
0.25
 74
0
 49
-0.075
 74
0
 49
0.1
 74
0
 49
-0.075
 74
0
  0
LTYPE
  5
3B
100
AcDbSymbolTableRecord
100
AcDbLinetypeTableRecord
  2
PHANTOM2
 70
0
  3
Phantom (.5x) ___ _ _ ___ _ _ ___ _ _ ___ _ _
 72
65
 73
6
 40
1.25
 49
0.625
 74
0
 49
-0.125
 74
0
 49
0.125
 74
0
 49
-0.125
 74
0
 49
0.125
 74
0
 49
-0.125
 74
0
  0
LTYPE
  5
3C
100
AcDbSymbolTableRecord
100
AcDbLinetypeTableRecord
  2
BORDER2
 70
0
  3
Border (.5x) __.__.__.__.__.__.__.__.__.__.__.
 72
65
 73
6
 40
0.8749999999999999
 49
0.25
 74
0
 49
-0.125
 74
0
 49
0.25
 74
0
 49
-0.075
 74
0
 49
0.1
 74
0
 49
-0.075
 74
0
  0
LTYPE
  5
3D
100
AcDbSymbolTableRecord
100
AcDbLinetypeTableRecord
  2
ACAD_ISO02W100
 70
0
  3
ISO dash __ __ __ __ __ __ __ __ __ __ __ __ __
 72
65
 73
2
 40
15.0
 49
12.0
 74
0
 49
-3.0
 74
0
  0
LTYPE
  5
3E
100
AcDbSymbolTableRecord
100
AcDbLinetypeTableRecord
  2
PHANTOM
 70
0
  3
Phantom ______  __  __  ______  __  __  ______ 
 72
65
 73
6
 40
2.5
 49
1.25
 74
0
 49
-0.25
 74
0
 49
0.25
 74
0
 49
-0.25
 74
0
 49
0.25
 74
0
 49
-0.25
 74
0
  0
LTYPE
  5
3F
100
AcDbSymbolTableRecord
100
AcDbLinetypeTableRecord
  2
ACAD_ISO11W100
 70
0
  3
ISO double-dash dot __ __ . __ __ . __ __ . __ _
 72
65
 73
6
 40
33.0
 49
12.0
 74
0
 49
-3.0
 74
0
 49
12.0
 74
0
 49
-2.9500000000000002
 74
0
 49
0.1
 74
0
 49
-2.9500000000000002
 74
0
  0
LTYPE
  5
40
100
AcDbSymbolTableRecord
100
AcDbLinetypeTableRecord
  2
ACAD_ISO09W100
 70
0
  3
ISO long-dash double-short-dash ____ __ __ ____
 72
65
 73
6
 40
45.0
 49
24.0
 74
0
 49
-3.0
 74
0
 49
6.0
 74
0
 49
-3.0
 74
0
 49
6.0
 74
0
 49
-3.0
 74
0
  0
LTYPE
  5
41
100
AcDbSymbolTableRecord
100
AcDbLinetypeTableRecord
  2
CENTERX2
 70
0
  3
Center (2x) ________  __  ________  __  _____
 72
65
 73
4
 40
4.0
 49
2.5
 74
0
 49
-0.5
 74
0
 49
0.5
 74
0
 49
-0.5
 74
0
  0
LTYPE
  5
15
100
AcDbSymbolTableRecord
100
AcDbLinetypeTableRecord
  2
BYLAYER
 70
0
  3

 72
65
 73
0
 40
0.0
  0
LTYPE
  5
42
100
AcDbSymbolTableRecord
100
AcDbLinetypeTableRecord
  2
ACAD_ISO06W100
 70
0
  3
ISO long-dash triple-dot ____ ... ____ ... ____
 72
65
 73
8
 40
36.0000000000000071
 49
24.0
 74
0
 49
-2.9500000000000002
 74
0
 49
0.1
 74
0
 49
-2.9000000000000004
 74
0
 49
0.1
 74
0
 49
-2.9000000000000004
 74
0
 49
0.1
 74
0
 49
-2.9500000000000002
 74
0
  0
LTYPE
  5
43
100
AcDbSymbolTableRecord
100
AcDbLinetypeTableRecord
  2
ACAD_ISO15W100
 70
0
  3
ISO double-dash triple-dot __ __ . . . __ __ . .
 72
65
 73
10
 40
39.0000000000000071
 49
12.0
 74
0
 49
-3.0
 74
0
 49
12.0
 74
0
 49
-2.9500000000000002
 74
0
 49
0.1
 74
0
 49
-2.9000000000000004
 74
0
 49
0.1
 74
0
 49
-2.9000000000000004
 74
0
 49
0.1
 74
0
 49
-2.9500000000000002
 74
0
  0
LTYPE
  5
44
100
AcDbSymbolTableRecord
100
AcDbLinetypeTableRecord
  2
ACAD_ISO08W100
 70
0
  3
ISO long-dash short-dash ____ __ ____ __ ____ _
 72
65
 73
4
 40
36.0
 49
24.0
 74
0
 49
-3.0
 74
0
 49
6.0
 74
0
 49
-3.0
 74
0
  0
LTYPE
  5
45
100
AcDbSymbolTableRecord
100
AcDbLinetypeTableRecord
  2
DASHDOT
 70
0
  3
Dash dot __ . __ . __ . __ . __ . __ . __ . __
 72
65
 73
4
 40
1.0
 49
0.5
 74
0
 49
-0.2
 74
0
 49
0.1
 74
0
 49
-0.2
 74
0
  0
LTYPE
  5
46
100
AcDbSymbolTableRecord
100
AcDbLinetypeTableRecord
  2
ACAD_ISO13W100
 70
0
  3
ISO double-dash double-dot __ __ . . __ __ . . _
 72
65
 73
8
 40
36.0000000000000071
 49
12.0
 74
0
 49
-3.0
 74
0
 49
12.0
 74
0
 49
-2.9500000000000002
 74
0
 49
0.1
 74
0
 49
-2.9000000000000004
 74
0
 49
0.1
 74
0
 49
-2.9500000000000002
 74
0
  0
LTYPE
  5
47
100
AcDbSymbolTableRecord
100
AcDbLinetypeTableRecord
  2
DASHED
 70
0
  3
Dashed __ __ __ __ __ __ __ __ __ __ __ __ __ _
 72
65
 73
2
 40
0.75
 49
0.5
 74
0
 49
-0.25
 74
0
  0
LTYPE
  5
48
100
AcDbSymbolTableRecord
100
AcDbLinetypeTableRecord
  2
ACAD_ISO07W100
 70
0
  3
ISO dot . . . . . . . . . . . . . . . . . . . . 
 72
65
 73
2
 40
3.0
 49
0.1
 74
0
 49
-2.8999999999999999
 74
0
  0
LTYPE
  5
49
100
AcDbSymbolTableRecord
100
AcDbLinetypeTableRecord
  2
DIVIDE2
 70
0
  3
Divide (.5x) __..__..__..__..__..__..__..__.._
 72
65
 73
6
 40
0.625
 49
0.25
 74
0
 49
-0.075
 74
0
 49
0.1
 74
0
 49
-0.025
 74
0
 49
0.1
 74
0
 49
-0.075
 74
0
  0
LTYPE
  5
4A
100
AcDbSymbolTableRecord
100
AcDbLinetypeTableRecord
  2
ACAD_ISO14W100
 70
0
  3
ISO dash triple-dot __ . . . __ . . . __ . . . _
 72
65
 73
8
 40
24.0000000000000036
 49
12.0
 74
0
 49
-2.9500000000000002
 74
0
 49
0.1
 74
0
 49
-2.9000000000000004
 74
0
 49
0.1
 74
0
 49
-2.9000000000000004
 74
0
 49
0.1
 74
0
 49
-2.9500000000000002
 74
0
  0
LTYPE
  5
14
100
AcDbSymbolTableRecord
100
AcDbLinetypeTableRecord
  2
BYBLOCK
 70
0
  3

 72
65
 73
0
 40
0.0
  0
LTYPE
  5
4B
100
AcDbSymbolTableRecord
100
AcDbLinetypeTableRecord
  2
HIDDENX2
 70
0
  3
Hidden (2x) ____ ____ ____ ____ ____ ____ ____ 
 72
65
 73
2
 40
0.75
 49
0.5
 74
0
 49
-0.25
 74
0
  0
LTYPE
  5
4C
100
AcDbSymbolTableRecord
100
AcDbLinetypeTableRecord
  2
HIDDEN2
 70
0
  3
Hidden (.5x) _ _ _ _ _ _ _ _ _ _ _ _ _ _ _ _ _ 
 72
65
 73
2
 40
0.1875
 49
0.125
 74
0
 49
-0.0625
 74
0
  0
LTYPE
  5
4D
100
AcDbSymbolTableRecord
100
AcDbLinetypeTableRecord
  2
DOT
 70
0
  3
Dot . . . . . . . . . . . . . . . . . . . . . . . .
 72
65
 73
2
 40
0.25
 49
0.1
 74
0
 49
-0.15
 74
0
  0
LTYPE
  5
4E
100
AcDbSymbolTableRecord
100
AcDbLinetypeTableRecord
  2
ACAD_ISO12W100
 70
0
  3
ISO dash double-dot __ . . __ . . __ . . __ . . 
 72
65
 73
6
 40
21.0
 49
12.0
 74
0
 49
-2.9500000000000002
 74
0
 49
0.1
 74
0
 49
-2.9000000000000004
 74
0
 49
0.1
 74
0
 49
-2.9500000000000002
 74
0
  0
LTYPE
  5
4F
100
AcDbSymbolTableRecord
100
AcDbLinetypeTableRecord
  2
DASHDOTX2
 70
0
  3
Dash dot (2x) ____  .  ____  .  ____  .  ___
 72
65
 73
4
 40
2.0
 49
1.0
 74
0
 49
-0.45
 74
0
 49
0.1
 74
0
 49
-0.45
 74
0
  0
LTYPE
  5
50
100
AcDbSymbolTableRecord
100
AcDbLinetypeTableRecord
  2
ACAD_ISO10W100
 70
0
  3
ISO dash dot __ . __ . __ . __ . __ . __ . __ . 
 72
65
 73
4
 40
18.0
 49
12.0
 74
0
 49
-2.9500000000000002
 74
0
 49
0.1
 74
0
 49
-2.9500000000000002
 74
0
  0
LTYPE
  5
51
100
AcDbSymbolTableRecord
100
AcDbLinetypeTableRecord
  2
CENTER2
 70
0
  3
Center (.5x) ___ _ ___ _ ___ _ ___ _ ___ _ ___
 72
65
 73
4
 40
1.125
 49
0.75
 74
0
 49
-0.125
 74
0
 49
0.125
 74
0
 49
-0.125
 74
0
  0
LTYPE
  5
52
100
AcDbSymbolTableRecord
100
AcDbLinetypeTableRecord
  2
BORDER
 70
0
  3
Border __ __ . __ __ . __ __ . __ __ . __ __ .
 72
65
 73
6
 40
1.75
 49
0.5
 74
0
 49
-0.25
 74
0
 49
0.5
 74
0
 49
-0.2
 74
0
 49
0.1
 74
0
 49
-0.2
 74
0
  0
LTYPE
  5
53
100
AcDbSymbolTableRecord
100
AcDbLinetypeTableRecord
  2
ACAD_ISO05W100
 70
0
  3
ISO long-dash double-dot ____ .. ____ .. ____ . 
 72
65
 73
6
 40
33.0000000000000071
 49
24.0
 74
0
 49
-2.9500000000000002
 74
0
 49
0.1
 74
0
 49
-2.9000000000000004
 74
0
 49
0.1
 74
0
 49
-2.9500000000000002
 74
0
  0
LTYPE
  5
54
100
AcDbSymbolTableRecord
100
AcDbLinetypeTableRecord
  2
HIDDEN
 70
0
  3
Hidden __ __ __ __ __ __ __ __ __ __ __ __ __ __
 72
65
 73
2
 40
0.375
 49
0.25
 74
0
 49
-0.125
 74
0
  0
LTYPE
  5
55
100
AcDbSymbolTableRecord
100
AcDbLinetypeTableRecord
  2
DOT2
 70
0
  3
Dot (.5x) ........................................
 72
65
 73
2
 40
0.125
 49
0.1
 74
0
 49
-0.025
 74
0
  0
LTYPE
  5
56
100
AcDbSymbolTableRecord
100
AcDbLinetypeTableRecord
  2
DASHEDX2
 70
0
  3
Dashed (2x) ____  ____  ____  ____  ____  ___
 72
65
 73
2
 40
1.5
 49
1.0
 74
0
 49
-0.5
 74
0
  0
ENDTAB
  0
TABLE
  2
LAYER
  5
2
100
AcDbSymbolTable
 70
2
  0
LAYER
  5
10
100
AcDbSymbolTableRecord
100
AcDbLayerTableRecord
  2
0
 70
0
 62
7
420
16777215
  6
Continuous
370
25
390
F
  0
LAYER
  5
57
100
AcDbSymbolTableRecord
100
AcDbLayerTableRecord
  2
Dimensions
 70
0
 62
4
420
65535
  6
Continuous
370
25
390
F
  0
ENDTAB
  0
TABLE
  2
STYLE
  5
3
100
AcDbSymbolTable
 70
1
  0
STYLE
  5
58
100
AcDbSymbolTableRecord
100
AcDbTextStyleTableRecord
  2
Standard
 70
0
 40
0.0
 41
1.0
 50
0.0
 71
0
 42
2.5
  3

  4

1001
ACAD
1000
txt
1071
0
  0
ENDTAB
  0
TABLE
  2
VIEW
  5
6
100
AcDbSymbolTable
 70
0
  0
ENDTAB
  0
TABLE
  2
UCS
  5
7
100
AcDbSymbolTable
 70
0
  0
ENDTAB
  0
TABLE
  2
APPID
  5
9
100
AcDbSymbolTable
 70
1
  0
APPID
  5
12
100
AcDbSymbolTableRecord
100
AcDbRegAppTableRecord
  2
ACAD
 70
0
  0
APPID
  5
59
100
AcDbSymbolTableRecord
100
AcDbRegAppTableRecord
  2
QCAD
 70
0
  0
ENDTAB
  0
TABLE
  2
DIMSTYLE
  5
A
100
AcDbSymbolTable
 70
1
100
AcDbDimStyleTable
 71
0
  0
DIMSTYLE
105
27
100
AcDbSymbolTableRecord
100
AcDbDimStyleTableRecord
  2
Standard
 41
0.125
 42
0.03125
 43
3.75
 44
0.0625
 70
0
 73
0
 74
0
 77
1
 78
8
140
0.125
141
2.5
143
0.03937007874016
147
0.03125
171
3
172
1
271
2
272
2
274
3
278
44
283
0
284
8
340
58
  0
ENDTAB
  0
TABLE
  2
BLOCK_RECORD
  5
1
100
AcDbSymbolTable
 70
1
  0
BLOCK_RECORD
  5
1F
100
AcDbSymbolTableRecord
100
AcDbBlockTableRecord
  2
*Model_Space
340
22
  0
BLOCK_RECORD
  5
1B
100
AcDbSymbolTableRecord
100
AcDbBlockTableRecord
  2
*Paper_Space
340
1E
  0
BLOCK_RECORD
  5
23
100
AcDbSymbolTableRecord
100
AcDbBlockTableRecord
  2
*Paper_Space0
340
26
  0
ENDTAB
  0
ENDSEC
  0
SECTION
  2
BLOCKS
  0
BLOCK
  5
20
100
AcDbEntity
  8
0
100
AcDbBlockBegin
  2
*Model_Space
 70
0
 10
0.0
 20
0.0
 30
0.0
  3
*Model_Space
  1

  0
ENDBLK
  5
21
100
AcDbEntity
  8
0
100
AcDbBlockEnd
  0
BLOCK
  5
1C
100
AcDbEntity
 67
1
  8
0
100
AcDbBlockBegin
  2
*Paper_Space
 70
0
 10
0.0
 20
0.0
 30
0.0
  3
*Paper_Space
  1

  0
ENDBLK
  5
1D
100
AcDbEntity
 67
1
  8
0
100
AcDbBlockEnd
  0
BLOCK
  5
24
100
AcDbEntity
  8
0
100
AcDbBlockBegin
  2
*Paper_Space0
 70
0
 10
0.0
 20
0.0
 30
0.0
  3
*Paper_Space0
  1

  0
ENDBLK
  5
25
100
AcDbEntity
  8
0
100
AcDbBlockEnd
  0
ENDSEC
  0
SECTION
  2
ENTITIES
  0
LINE
  5
5A
100
AcDbEntity
  8
0
 62
256
370
-1
 48
1.0
  6
BYLAYER
100
AcDbLine
 10
0.25
 20
0.0
 30
0.0
 11
2.75
 21
0.0
 31
0.0
  0
LINE
  5
5B
100
AcDbEntity
  8
0
 62
256
370
-1
 48
1.0
  6
BYLAYER
100
AcDbLine
 10
3.0
 20
0.25
 30
0.0
 11
3.0
 21
1.2499999999999996
 31
0.0
  0
LINE
  5
5C
100
AcDbEntity
  8
0
 62
256
370
-1
 48
1.0
  6
BYLAYER
100
AcDbLine
 10
0.0
 20
0.25
 30
0.0
 11
0.0
 21
1.25
 31
0.0
  0
LINE
  5
5D
100
AcDbEntity
  8
0
 62
256
370
-1
 48
1.0
  6
BYLAYER
100
AcDbLine
 10
0.25
 20
1.4999999999999998
 30
0.0
 11
2.75
 21
1.4999999999999998
 31
0.0
  0
DIMENSION
  5
5E
100
AcDbEntity
  8
Dimensions
 62
256
370
-1
 48
1.0
  6
BYLAYER
100
AcDbDimension
 10
-0.3999999999999999
 20
1.4999999999999998
 30
0.0
 11
-0.4937499999999999
 21
0.75
 31
0.0
 70
0
 71
8
 72
2
 74
0
 75
0
 41
1.0
 42
0.0
  1

  3
Standard
100
AcDbAlignedDimension
 13
-0.0
 23
1.4999999999999998
 33
0.0
 14
0.0
 24
0.0
 34
0.0
 50
90.0
100
AcDbRotatedDimension
1001
ACAD
1000
DSTYLE
1002
{
1070
144
1040
1.0
1070
40
1040
1.0
1002
}
  0
DIMENSION
  5
5F
100
AcDbEntity
  8
Dimensions
 62
256
370
-1
 48
1.0
  6
BYLAYER
100
AcDbDimension
 10
0.0
 20
-0.3
 30
0.0
 11
1.5
 21
-0.20625
 31
0.0
 70
0
 71
8
 72
2
 74
0
 75
0
 41
1.0
 42
0.0
  1

  3
Standard
100
AcDbAlignedDimension
 13
0.0
 23
0.0
 33
0.0
 14
3.0
 24
0.0
 34
0.0
 50
0.0
100
AcDbRotatedDimension
1001
ACAD
1000
DSTYLE
1002
{
1070
144
1040
1.0
1070
40
1040
1.0
1002
}
  0
DIMENSION
  5
60
100
AcDbEntity
  8
Dimensions
 62
256
370
-1
 48
1.0
  6
BYLAYER
100
AcDbDimension
 10
0.1250000000000001
 20
-0.7999999999999999
 30
0.0
 11
-0.2604156689704055
 21
-0.7062499999999999
 31
0.0
 70
0
 71
8
 72
2
 74
0
 75
0
 41
1.0
 42
0.0
  1

  3
Standard
100
AcDbAlignedDimension
 13
0.1250000000000001
 23
0.125
 33
0.0
 14
0.0
 24
0.125
 34
0.0
 50
0.0
100
AcDbRotatedDimension
1001
ACAD
1000
DSTYLE
1002
{
1070
144
1040
1.0
1070
40
1040
1.0
1002
}
  0
LINE
  5
61
100
AcDbEntity
  8
0
 62
256
370
-1
 48
1.0
  6
BYLAYER
100
AcDbLine
 10
0.1250000000000001
 20
0.3750000000000001
 30
0.0
 11
0.1250000000000001
 21
1.125
 31
0.0
  0
LINE
  5
62
100
AcDbEntity
  8
0
 62
256
370
-1
 48
1.0
  6
BYLAYER
100
AcDbLine
 10
0.3750000000000001
 20
1.375
 30
0.0
 11
2.625
 21
1.375
 31
0.0
  0
LINE
  5
63
100
AcDbEntity
  8
0
 62
256
370
-1
 48
1.0
  6
BYLAYER
100
AcDbLine
 10
2.875
 20
1.125
 30
0.0
 11
2.875
 21
0.375
 31
0.0
  0
DIMENSION
  5
64
100
AcDbEntity
  8
Dimensions
 62
256
370
-1
 48
1.0
  6
BYLAYER
100
AcDbDimension
 10
3.1999999999999997
 20
1.375
 30
0.0
 11
3.1062499999999997
 21
1.7604156689704054
 31
0.0
 70
0
 71
8
 72
2
 74
0
 75
0
 41
1.0
 42
0.0
  1

  3
Standard
100
AcDbAlignedDimension
 13
2.875
 23
1.375
 33
0.0
 14
2.875
 24
1.4999999999999998
 34
0.0
 50
90.0
100
AcDbRotatedDimension
1001
ACAD
1000
DSTYLE
1002
{
1070
144
1040
1.0
1070
40
1040
1.0
1002
}
  0
LINE
  5
65
100
AcDbEntity
  8
0
 62
256
370
-1
 48
1.0
  6
BYLAYER
100
AcDbLine
 10
0.3750000000000001
 20
0.125
 30
0.0
 11
2.625
 21
0.125
 31
0.0
  0
DIMENSION
  5
66
100
AcDbEntity
  8
Dimensions
 62
256
370
-1
 48
1.0
  6
BYLAYER
100
AcDbDimension
 10
3.3999999999999999
 20
0.125
 30
0.0
 11
3.3062499999999999
 21
0.75
 31
0.0
 70
0
 71
8
 72
2
 74
0
 75
0
 41
1.0
 42
0.0
  1

  3
Standard
100
AcDbAlignedDimension
 13
2.875
 23
0.125
 33
0.0
 14
2.875
 24
1.375
 34
0.0
 50
90.0
100
AcDbRotatedDimension
1001
ACAD
1000
DSTYLE
1002
{
1070
144
1040
1.0
1070
40
1040
1.0
1002
}
  0
ARC
  5
67
100
AcDbEntity
  8
0
 62
256
370
-1
 48
1.0
  6
BYLAYER
100
AcDbCircle
 10
2.625
 20
1.125
 30
0.0
 40
0.25
100
AcDbArc
 50
0.0
 51
90.0
  0
ARC
  5
68
100
AcDbEntity
  8
0
 62
256
370
-1
 48
1.0
  6
BYLAYER
100
AcDbCircle
 10
2.75
 20
1.2499999999999998
 30
0.0
 40
0.25
100
AcDbArc
 50
0.0
 51
90.0
  0
ARC
  5
69
100
AcDbEntity
  8
0
 62
256
370
-1
 48
1.0
  6
BYLAYER
100
AcDbCircle
 10
0.3750000000000001
 20
1.125
 30
0.0
 40
0.25
100
AcDbArc
 50
90.0
 51
180.0
  0
ARC
  5
6A
100
AcDbEntity
  8
0
 62
256
370
-1
 48
1.0
  6
BYLAYER
100
AcDbCircle
 10
0.25
 20
1.25
 30
0.0
 40
0.25
100
AcDbArc
 50
90.0
 51
180.0
  0
ARC
  5
6B
100
AcDbEntity
  8
0
 62
256
370
-1
 48
1.0
  6
BYLAYER
100
AcDbCircle
 10
0.3750000000000001
 20
0.375
 30
0.0
 40
0.25
100
AcDbArc
 50
180.0
 51
270.0
  0
ARC
  5
6C
100
AcDbEntity
  8
0
 62
256
370
-1
 48
1.0
  6
BYLAYER
100
AcDbCircle
 10
0.25
 20
0.25
 30
0.0
 40
0.25
100
AcDbArc
 50
180.0
 51
270.0
  0
ARC
  5
6D
100
AcDbEntity
  8
0
 62
256
370
-1
 48
1.0
  6
BYLAYER
100
AcDbCircle
 10
2.75
 20
0.25
 30
0.0
 40
0.25
100
AcDbArc
 50
270.0
 51
0.0
  0
DIMENSION
  5
6E
100
AcDbEntity
  8
Dimensions
 62
256
370
-1
 48
1.0
  6
BYLAYER
100
AcDbDimension
 10
0.25
 20
1.25
 30
0.0
 11
0.0872351272794468
 21
1.8677776125728709
 31
0.0
 70
4
 71
8
 72
2
 74
0
 41
1.0
 42
0.0
  1

  3
Standard
100
AcDbRadialDimension
 15
0.151520175355208
 25
1.4797862575045144
 35
0.0
 40
0.0
1001
ACAD
1000
DSTYLE
1002
{
1070
144
1040
1.0
1070
40
1040
1.0
1002
}
  0
DIMENSION
  5
6F
100
AcDbEntity
  8
Dimensions
 62
256
370
-1
 48
1.0
  6
BYLAYER
100
AcDbDimension
 10
2.625
 20
1.125
 30
0.0
 11
2.6961812124217253
 21
1.7598817349602578
 31
0.0
 70
4
 71
8
 72
2
 74
0
 41
1.0
 42
0.0
  1

  3
Standard
100
AcDbRadialDimension
 15
2.6890112817974798
 25
1.3666662074073319
 35
0.0
 40
0.0
1001
ACAD
1000
DSTYLE
1002
{
1070
144
1040
1.0
1070
40
1040
1.0
1002
}
  0
ARC
  5
70
100
AcDbEntity
  8
Dimensions
 62
256
370
-1
 48
1.0
  6
BYLAYER
100
AcDbCircle
 10
2.625
 20
0.375
 30
0.0
 40
0.25
100
AcDbArc
 50
270.0
 51
0.0
  0
DIMENSION
  5
71
100
AcDbEntity
  8
Dimensions
 62
256
370
-1
 48
1.0
  6
BYLAYER
100
AcDbDimension
 10
0.125
 20
0.8999999999999999
 30
0.0
 11
1.5
 21
0.9937499999999999
 31
0.0
 70
0
 71
8
 72
2
 74
0
 75
0
 41
1.0
 42
0.0
  1

  3
Standard
100
AcDbAlignedDimension
 13
0.1250000000000001
 23
1.125
 33
0.0
 14
2.875
 24
1.125
 34
0.0
 50
0.0
100
AcDbRotatedDimension
1001
ACAD
1000
DSTYLE
1002
{
1070
144
1040
1.0
1070
40
1040
1.0
1002
}
  0
LINE
  5
72
100
AcDbEntity
  8
0
 62
256
370
-1
 48
1.0
  6
BYLAYER
100
AcDbLine
 10
0.0
 20
3.0
 30
0.0
 11
3.0
 21
3.0
 31
0.0
  0
LINE
  5
73
100
AcDbEntity
  8
0
 62
256
370
-1
 48
1.0
  6
BYLAYER
100
AcDbLine
 10
6.8999999999999968
 20
2.9999999999999964
 30
0.0
 11
9.8999999999999968
 21
2.9999999999999964
 31
0.0
  0
LINE
  5
74
100
AcDbEntity
  8
0
 62
256
370
-1
 48
1.0
  6
BYLAYER
100
AcDbLine
 10
14.1767717275487559
 20
5.8979407955146108
 30
0.0
 11
15.9263366960385326
 21
4.8878289899923004
 31
0.0
  0
LINE
  5
75
100
AcDbEntity
  8
0
 62
256
370
-1
 48
1.0
  6
BYLAYER
100
AcDbLine
 10
0.0
 20
3.0
 30
0.0
 11
0.0000000000000028
 21
48.0
 31
0.0
  0
LINE
  5
76
100
AcDbEntity
  8
0
 62
256
370
-1
 48
1.0
  6
BYLAYER
100
AcDbLine
 10
6.8999999999999968
 20
2.9999999999999964
 30
0.0
 11
6.9000000000000004
 21
48.0
 31
0.0
  0
LINE
  5
77
100
AcDbEntity
  8
0
 62
256
370
-1
 48
1.0
  6
BYLAYER
100
AcDbLine
 10
3.0
 20
3.0
 30
0.0
 11
3.0000000000000027
 21
48.0
 31
0.0
  0
LINE
  5
78
100
AcDbEntity
  8
0
 62
256
370
-1
 48
1.0
  6
BYLAYER
100
AcDbLine
 10
9.8999999999999968
 20
2.9999999999999964
 30
0.0
 11
9.9000000000000004
 21
48.0
 31
0.0
  0
LINE
  5
79
100
AcDbEntity
  8
0
 62
256
370
-1
 48
1.0
  6
BYLAYER
100
AcDbLine
 10
16.1212607305851066
 20
4.7752895461753084
 30
0.0
 11
47.8813706844745113
 21
23.1119975775454627
 31
0.0
  0
LINE
  5
7A
100
AcDbEntity
  8
0
 62
256
370
-1
 48
1.0
  6
BYLAYER
100
AcDbLine
 10
0.0000000000000028
 20
48.0
 30
0.0
 11
3.0000000000000027
 21
48.0
 31
0.0
  0
LINE
  5
7B
100
AcDbEntity
  8
0
 62
256
370
-1
 48
1.0
  6
BYLAYER
100
AcDbLine
 10
6.9000000000000004
 20
48.0
 30
0.0
 11
9.9000000000000004
 21
48.0
 31
0.0
  0
LINE
  5
7C
100
AcDbEntity
  8
0
 62
256
370
-1
 48
1.0
  6
BYLAYER
100
AcDbLine
 10
45.9956826863252459
 20
24.2685976028849595
 30
0.0
 11
47.7452476548150102
 21
23.2584857973626526
 31
0.0
  0
ARC
  5
7D
100
AcDbEntity
  8
0
 62
256
370
-1
 48
1.0
  6
BYLAYER
100
AcDbCircle
 10
1.4999999999999998
 20
5.0
 30
0.0
 40
0.25
100
AcDbArc
 50
180.0
 51
0.0
  0
LWPOLYLINE
  5
7E
100
AcDbEntity
  8
0
 62
256
370
-1
 48
1.0
  6
BYLAYER
100
AcDbPolyline
 90
34
 70
128
 10
16.2980324581338607
 20
6.3061776134561711
 10
16.2815570030931909
 20
6.2956826191229887
 10
16.2669426240605191
 20
6.2843058113919525
 10
16.2543300654949405
 20
6.2721567551407063
 10
16.2438407932301914
 20
6.2593524524222985
 10
16.235575824692198
 20
6.2460162156714532
 10
16.2296147560460611
 20
6.2322764801384096
 10
16.2260149956415063
 20
6.218265566987256
 10
16.2248112111390483
 20
6.2041184089707819
 10
16.2260149956414992
 20
6.1899712509543079
 10
16.2296147560460611
 20
6.1759603378031542
 10
16.235575824692198
 20
6.1622206022701107
 10
16.2438407932301985
 20
6.1488843655192653
 10
16.2543300654949405
 20
6.1360800628008576
 10
16.2669426240605119
 20
6.1239310065496113
 10
16.2815570030931909
 20
6.1125541988185752
 10
16.2980324581338607
 20
6.1020592044853927
 10
16.3162103215440837
 20
6.0925470960826402
 10
16.3359155305621826
 20
6.0841094804140816
 10
16.356958313253358
 20
6.0768276163310802
 10
16.3791360161171298
 20
6.0707716321654246
 10
16.4022350557513548
 20
6.0659998503551691
 10
16.4260329757771473
 20
6.0625582257676633
 10
16.4503005892153737
 20
6.0604799031290746
 10
16.4748041856826148
 20
6.0597848978225315
 10
16.499307782149863
 20
6.0604799031290746
 10
16.5235753955880966
 20
6.0625582257676633
 10
16.547373315613882
 20
6.0659998503551691
 10
16.5704723552481141
 20
6.0707716321654246
 10
16.5926500581118859
 20
6.0768276163310802
 10
16.6136928408030542
 20
6.0841094804140816
 10
16.6333980498211531
 20
6.0925470960826402
 10
16.6515759132313761
 20
6.1020592044853892
 10
16.6515759132313832
 20
6.1020592044853927
  0
ARC
  5
7F
100
AcDbEntity
  8
0
 62
256
370
-1
 48
1.0
  6
BYLAYER
100
AcDbCircle
 10
1.4999999999999998
 20
8.0
 30
0.0
 40
0.25
100
AcDbArc
 50
0.0
 51
180.0
  0
LWPOLYLINE
  5
80
100
AcDbEntity
  8
0
 62
256
370
-1
 48
1.0
  6
BYLAYER
100
AcDbPolyline
 90
33
 70
128
 10
18.7728366438164826
 20
7.3267696583100808
 10
18.7893120988571525
 20
7.3372646526432632
 10
18.8039264778898243
 20
7.3486414603743029
 10
18.8165390364553957
 20
7.3607905166255492
 10
18.8270283087201449
 20
7.3735948193439533
 10
18.8352932772581454
 20
7.3869310560947987
 10
18.8412543459042752
 20
7.4006707916278387
 10
18.8448541063088442
 20
7.4146817047789959
 10
18.846057890811295
 20
7.4288288627954699
 10
18.8448541063088442
 20
7.4429760208119475
 10
18.8412543459042823
 20
7.4569869339631012
 10
18.8352932772581454
 20
7.4707266694961447
 10
18.8270283087201449
 20
7.4840629062469901
 10
18.8165390364553957
 20
7.4968672089653978
 10
18.8039264778898314
 20
7.5090162652166406
 10
18.7893120988571525
 20
7.5203930729476767
 10
18.7728366438164755
 20
7.5308880672808627
 10
18.7546587804062597
 20
7.5404001756836152
 10
18.7349535713881608
 20
7.5488377913521703
 10
18.7139107886969853
 20
7.5561196554351753
 10
18.6917330858332136
 20
7.5621756396008273
 10
18.6686340461989886
 20
7.5669474214110863
 10
18.6448361261731961
 20
7.5703890459985885
 10
18.6205685127349625
 20
7.5724673686371773
 10
18.5960649162677214
 20
7.5731623739437204
 10
18.5715613198004803
 20
7.5724673686371773
 10
18.5472937063622467
 20
7.5703890459985885
 10
18.5234957863364542
 20
7.5669474214110863
 10
18.5003967467022221
 20
7.5621756396008308
 10
18.4782190438384575
 20
7.5561196554351753
 10
18.457176261147282
 20
7.5488377913521703
 10
18.4374710521291831
 20
7.5404001756836152
 10
18.4192931887189673
 20
7.5308880672808627
  0
LINE
  5
81
100
AcDbEntity
  8
0
 62
256
370
-1
 48
1.0
  6
BYLAYER
100
AcDbLine
 10
1.7499999999999998
 20
5.0
 30
0.0
 11
1.7499999999999998
 21
8.0
 31
0.0
  0
LINE
  5
82
100
AcDbEntity
  8
0
 62
256
370
-1
 48
1.0
  6
BYLAYER
100
AcDbLine
 10
16.6515759132313832
 20
6.1020592044853927
 30
0.0
 11
18.7728366438164826
 21
7.3267696583100808
 31
0.0
  0
LINE
  5
83
100
AcDbEntity
  8
0
 62
256
370
-1
 48
1.0
  6
BYLAYER
100
AcDbLine
 10
1.2499999999999998
 20
5.0
 30
0.0
 11
1.2499999999999998
 21
8.0
 31
0.0
  0
LINE
  5
84
100
AcDbEntity
  8
0
 62
256
370
-1
 48
1.0
  6
BYLAYER
100
AcDbLine
 10
16.2980324581338607
 20
6.3061776134561711
 30
0.0
 11
18.4192931887189673
 21
7.5308880672808627
 31
0.0
  0
CIRCLE
  5
85
100
AcDbEntity
  8
0
 62
256
370
-1
 48
1.0
  6
BYLAYER
100
AcDbCircle
 10
1.5
 20
10.4999999999999982
 30
0.0
 40
0.5
  0
LWPOLYLINE
  5
86
100
AcDbEntity
  8
0
 62
256
370
-1
 48
1.0
  6
BYLAYER
100
AcDbPolyline
 90
66
 70
128
 10
20.7173256468528209
 20
8.2453024986785977
 10
20.7502765569341605
 20
8.2662924873449626
 10
20.7795053149995184
 20
8.2890461028070384
 10
20.8047304321306541
 20
8.3133442153095345
 10
20.8257089766601524
 20
8.3389528207463428
 10
20.8422389137361463
 20
8.3656252942480336
 10
20.8541610510284201
 20
8.3931047653141171
 10
20.8613605718375368
 20
8.421126591616428
 10
20.8637681408424527
 20
8.449420907649376
 10
20.8613605718375368
 20
8.4777152236823312
 10
20.8541610510284201
 20
8.5057370499846385
 10
20.8422389137361463
 20
8.5332165210507256
 10
20.8257089766601524
 20
8.5598889945524093
 10
20.8047304321306541
 20
8.5854975999892247
 10
20.7795053149995184
 20
8.6097957124917173
 10
20.7502765569341605
 20
8.632549327953793
 10
20.7173256468528137
 20
8.6535393166201615
 10
20.6809699200323749
 20
8.6725635334256665
 10
20.6415595019961771
 20
8.6894387647627767
 10
20.5994739366138333
 20
8.7040024929287796
 10
20.5551185308862898
 20
8.7161144612600907
 10
20.5089204516178327
 20
8.7256580248806088
 10
20.4613246115662548
 20
8.7325412740556132
 10
20.4127893846897877
 20
8.7366979193327943
 10
20.3637821917553055
 20
8.7380879299458769
 10
20.3147749988208162
 20
8.7366979193327943
 10
20.266239771944349
 20
8.7325412740556132
 10
20.2186439318927711
 20
8.7256580248806088
 10
20.172445852624314
 20
8.7161144612600907
 10
20.1280904468967705
 20
8.7040024929287796
 10
20.0860048815144268
 20
8.6894387647627767
 10
20.0465944634782289
 20
8.6725635334256665
 10
20.010238736657783
 20
8.6535393166201615
 10
19.9772878265764433
 20
8.632549327953793
 10
19.9480590685110855
 20
8.6097957124917173
 10
19.9228339513799497
 20
8.5854975999892247
 10
19.9018554068504514
 20
8.5598889945524093
 10
19.8853254697744575
 20
8.5332165210507256
 10
19.8734033324821837
 20
8.5057370499846385
 10
19.866203811673067
 20
8.4777152236823312
 10
19.8637962426681511
 20
8.449420907649376
 10
19.866203811673067
 20
8.421126591616428
 10
19.8734033324821837
 20
8.3931047653141171
 10
19.8853254697744575
 20
8.3656252942480336
 10
19.9018554068504514
 20
8.3389528207463428
 10
19.9228339513799497
 20
8.3133442153095309
 10
19.9480590685110855
 20
8.2890461028070384
 10
19.9772878265764433
 20
8.2662924873449626
 10
20.010238736657783
 20
8.2453024986785977
 10
20.0465944634782289
 20
8.2262782818730926
 10
20.0860048815144268
 20
8.2094030505359825
 10
20.1280904468967705
 20
8.194839322369976
 10
20.172445852624314
 20
8.1827273540386649
 10
20.2186439318927711
 20
8.1731837904181504
 10
20.266239771944349
 20
8.1663005412431424
 10
20.3147749988208162
 20
8.1621438959659613
 10
20.3637821917553055
 20
8.1607538853528823
 10
20.4127893846897877
 20
8.1621438959659613
 10
20.4613246115662548
 20
8.1663005412431424
 10
20.5089204516178327
 20
8.1731837904181504
 10
20.5551185308862898
 20
8.1827273540386649
 10
20.5994739366138333
 20
8.194839322369976
 10
20.6415595019961771
 20
8.2094030505359754
 10
20.6809699200323749
 20
8.2262782818730891
 10
20.7173256468528137
 20
8.2453024986785977
 10
20.7173256468528209
 20
8.2453024986785977
  0
CIRCLE
  5
87
100
AcDbEntity
  8
0
 62
256
370
-1
 48
1.0
  6
BYLAYER
100
AcDbCircle
 10
1.5
 20
10.4999999999999982
 30
0.0
 40
0.25
  0
CIRCLE
  5
88
100
AcDbEntity
  8
0
 62
256
370
-1
 48
1.0
  6
BYLAYER
100
AcDbCircle
 10
8.3999999999999968
 20
10.4999999999999947
 30
0.0
 40
0.25
  0
LWPOLYLINE
  5
89
100
AcDbEntity
  8
0
 62
256
370
-1
 48
1.0
  6
BYLAYER
100
AcDbPolyline
 90
66
 70
128
 10
20.5405539193040596
 20
8.3473617031639868
 10
20.5570293743447294
 20
8.3578566974971693
 10
20.5716437533774084
 20
8.369233505228209
 10
20.5842563119429798
 20
8.3813825614794553
 10
20.5947455842077289
 20
8.394186864197863
 10
20.6030105527457295
 20
8.4075231009487084
 10
20.6089716213918592
 20
8.4212628364817483
 10
20.6125713817964211
 20
8.4352737496328984
 10
20.6137751662988791
 20
8.449420907649376
 10
20.6125713817964211
 20
8.4635680656658536
 10
20.6089716213918663
 20
8.4775789788170073
 10
20.6030105527457224
 20
8.4913187143500508
 10
20.5947455842077289
 20
8.5046549511008962
 10
20.5842563119429798
 20
8.5174592538193004
 10
20.5716437533774084
 20
8.5296083100705502
 10
20.5570293743447294
 20
8.5409851178015863
 10
20.5405539193040596
 20
8.5514801121347688
 10
20.5223760558938437
 20
8.5609922205375213
 10
20.5026708468757448
 20
8.5694298362060763
 10
20.4816280641845694
 20
8.5767117002890778
 10
20.4594503613207976
 20
8.5827676844547369
 10
20.4363513216865655
 20
8.5875394662649924
 10
20.4125534016607801
 20
8.5909810908524946
 10
20.3882857882225466
 20
8.5930594134910869
 10
20.3637821917553055
 20
8.59375441879763
 10
20.3392785952880573
 20
8.5930594134910869
 10
20.3150109818498308
 20
8.5909810908524946
 10
20.2912130618240383
 20
8.5875394662649924
 10
20.2681140221898062
 20
8.5827676844547369
 10
20.2459363193260344
 20
8.5767117002890814
 10
20.2248935366348661
 20
8.5694298362060763
 10
20.2051883276167672
 20
8.5609922205375213
 10
20.1870104642065442
 20
8.5514801121347688
 10
20.1705350091658744
 20
8.5409851178015863
 10
20.1559206301331955
 20
8.5296083100705502
 10
20.143308071567624
 20
8.5174592538193039
 10
20.132818799302882
 20
8.5046549511008926
 10
20.1245538307648815
 20
8.4913187143500508
 10
20.1185927621187446
 20
8.4775789788170073
 10
20.1149930017141827
 20
8.4635680656658536
 10
20.1137892172117319
 20
8.449420907649376
 10
20.1149930017141827
 20
8.4352737496329055
 10
20.1185927621187446
 20
8.4212628364817483
 10
20.1245538307648815
 20
8.4075231009487048
 10
20.132818799302882
 20
8.394186864197863
 10
20.143308071567624
 20
8.3813825614794553
 10
20.1559206301331955
 20
8.369233505228209
 10
20.1705350091658744
 20
8.3578566974971693
 10
20.1870104642065442
 20
8.3473617031639868
 10
20.2051883276167601
 20
8.3378495947612343
 10
20.2248935366348661
 20
8.3294119790926793
 10
20.2459363193260344
 20
8.3221301150096778
 10
20.2681140221898062
 20
8.3160741308440222
 10
20.2912130618240383
 20
8.3113023490337667
 10
20.3150109818498237
 20
8.307860724446261
 10
20.3392785952880644
 20
8.3057824018076687
 10
20.3637821917553055
 20
8.3050873965011291
 10
20.3882857882225466
 20
8.3057824018076687
 10
20.4125534016607801
 20
8.307860724446261
 10
20.4363513216865655
 20
8.3113023490337667
 10
20.4594503613207976
 20
8.3160741308440222
 10
20.4816280641845694
 20
8.3221301150096778
 10
20.5026708468757377
 20
8.3294119790926793
 10
20.5223760558938366
 20
8.3378495947612343
 10
20.5405539193040596
 20
8.3473617031639868
 10
20.5405539193040596
 20
8.3473617031639868
  0
CIRCLE
  5
8A
100
AcDbEntity
  8
0
 62
256
370
-1
 48
1.0
  6
BYLAYER
100
AcDbCircle
 10
1.4999999999999867
 20
44.5
 30
0.0
 40
0.5
  0
LWPOLYLINE
  5
8B
100
AcDbEntity
  8
0
 62
256
370
-1
 48
1.0
  6
BYLAYER
100
AcDbPolyline
 90
66
 70
128
 10
44.7582805934839456
 20
22.1253543086917475
 10
44.7912315035652853
 20
22.1463442973581195
 10
44.8204602616306431
 20
22.1690979128201917
 10
44.845685378761786
 20
22.1933960253226843
 10
44.8666639232912701
 20
22.2190046307594926
 10
44.8831938603672711
 20
22.2456771042611834
 10
44.8951159976595449
 20
22.2731565753272704
 10
44.9023155184686686
 20
22.3011784016295778
 10
44.9047230874735845
 20
22.3294727176625329
 10
44.9023155184686544
 20
22.357767033695481
 10
44.8951159976595449
 20
22.3857888599977954
 10
44.8831938603672711
 20
22.4132683310638825
 10
44.8666639232912843
 20
22.4399408045655662
 10
44.845685378761786
 20
22.4655494100023816
 10
44.8204602616306289
 20
22.4898475225048671
 10
44.7912315035652853
 20
22.5126011379669464
 10
44.7582805934839456
 20
22.5335911266333113
 10
44.7219248666634996
 20
22.5526153434388235
 10
44.6825144486273018
 20
22.5694905747759265
 10
44.6404288832449652
 20
22.5840543029419365
 10
44.5960734775174217
 20
22.5961662712732476
 10
44.5498753982489433
 20
22.6057098348937586
 10
44.5022795581973725
 20
22.6125930840687701
 10
44.4537443313209053
 20
22.6167497293459476
 10
44.4047371383864373
 20
22.6181397399590267
 10
44.3557299454519551
 20
22.6167497293459476
 10
44.3071947185754738
 20
22.6125930840687701
 10
44.2595988785238887
 20
22.6057098348937586
 10
44.2134007992554388
 20
22.5961662712732405
 10
44.1690453935278953
 20
22.5840543029419294
 10
44.1269598281455444
 20
22.5694905747759336
 10
44.0875494101093466
 20
22.5526153434388235
 10
44.0511936832889148
 20
22.5335911266333113
 10
44.0182427732075752
 20
22.5126011379669464
 10
43.9890140151422173
 20
22.4898475225048671
 10
43.9637888980110745
 20
22.4655494100023745
 10
43.9428103534815762
 20
22.4399408045655591
 10
43.9262804164055893
 20
22.4132683310638825
 10
43.9143582791133014
 20
22.3857888599977954
 10
43.9071587583041918
 20
22.357767033695481
 10
43.9047511892992759
 20
22.3294727176625329
 10
43.9071587583041918
 20
22.3011784016295778
 10
43.9143582791133014
 20
22.2731565753272704
 10
43.9262804164055893
 20
22.2456771042611834
 10
43.9428103534815762
 20
22.2190046307594926
 10
43.9637888980110745
 20
22.1933960253226843
 10
43.9890140151422173
 20
22.1690979128201917
 10
44.0182427732075752
 20
22.1463442973581195
 10
44.0511936832889148
 20
22.1253543086917475
 10
44.0875494101093608
 20
22.1063300918862424
 10
44.1269598281455586
 20
22.0894548605491323
 10
44.1690453935278953
 20
22.0748911323831294
 10
44.2134007992554388
 20
22.0627791640518112
 10
44.2595988785238887
 20
22.0532356004313073
 10
44.3071947185754738
 20
22.0463523512562958
 10
44.3557299454519409
 20
22.0421957059791183
 10
44.4047371383864231
 20
22.0408056953660321
 10
44.4537443313209053
 20
22.0421957059791183
 10
44.5022795581973725
 20
22.0463523512562958
 10
44.5498753982489575
 20
22.0532356004313002
 10
44.5960734775174075
 20
22.0627791640518112
 10
44.640428883244951
 20
22.0748911323831294
 10
44.6825144486273018
 20
22.0894548605491323
 10
44.7219248666635139
 20
22.1063300918862424
 10
44.7582805934839456
 20
22.1253543086917475
 10
44.7582805934839456
 20
22.1253543086917475
  0
CIRCLE
  5
8C
100
AcDbEntity
  8
0
 62
256
370
-1
 48
1.0
  6
BYLAYER
100
AcDbCircle
 10
1.4999999999999867
 20
44.5
 30
0.0
 40
0.25
  0
CIRCLE
  5
8D
100
AcDbEntity
  8
0
 62
256
370
-1
 48
1.0
  6
BYLAYER
100
AcDbCircle
 10
8.3999999999999844
 20
44.5
 30
0.0
 40
0.25
  0
LWPOLYLINE
  5
8E
100
AcDbEntity
  8
0
 62
256
370
-1
 48
1.0
  6
BYLAYER
100
AcDbPolyline
 90
66
 70
128
 10
44.5815088659351915
 20
22.2274135131771402
 10
44.5979843209758542
 20
22.2379085075103191
 10
44.6125987000085331
 20
22.2492853152413588
 10
44.6252112585740974
 20
22.2614343714926051
 10
44.6357005308388608
 20
22.2742386742110128
 10
44.6439654993768471
 20
22.2875749109618582
 10
44.6499265680229911
 20
22.3013146464949017
 10
44.6535263284275459
 20
22.3153255596460554
 10
44.6547301129299967
 20
22.3294727176625329
 10
44.6535263284275459
 20
22.3436198756790034
 10
44.6499265680229911
 20
22.3576307888301642
 10
44.6439654993768471
 20
22.3713705243632077
 10
44.6357005308388466
 20
22.384706761114046
 10
44.6252112585741116
 20
22.3975110638324537
 10
44.6125987000085331
 20
22.4096601200837071
 10
44.5979843209758542
 20
22.4210369278147397
 10
44.5815088659351915
 20
22.4315319221479186
 10
44.5633310025249614
 20
22.4410440305506782
 10
44.5436257935068625
 20
22.4494816462192333
 10
44.5225830108156941
 20
22.4567635103022312
 10
44.5004053079519224
 20
22.4628194944678867
 10
44.4773062683176903
 20
22.4675912762781493
 10
44.4535083482919049
 20
22.4710329008656515
 10
44.4292407348536642
 20
22.4731112235042403
 10
44.4047371383864231
 20
22.4738062288107798
 10
44.380233541919182
 20
22.4731112235042403
 10
44.3559659284809555
 20
22.4710329008656444
 10
44.3321680084551559
 20
22.4675912762781422
 10
44.309068968820938
 20
22.4628194944678867
 10
44.2868912659571521
 20
22.4567635103022312
 10
44.2658484832659838
 20
22.4494816462192333
 10
44.2461432742478848
 20
22.4410440305506782
 10
44.227965410837669
 20
22.4315319221479186
 10
44.211489955796992
 20
22.4210369278147326
 10
44.1968755767643131
 20
22.4096601200837
 10
44.1842630181987488
 20
22.3975110638324466
 10
44.1737737459339996
 20
22.384706761114046
 10
44.1655087773959991
 20
22.3713705243632077
 10
44.1595477087498693
 20
22.3576307888301571
 10
44.1559479483453003
 20
22.3436198756790034
 10
44.1547441638428495
 20
22.3294727176625329
 10
44.1559479483453146
 20
22.3153255596460625
 10
44.1595477087498693
 20
22.3013146464948946
 10
44.1655087773959991
 20
22.2875749109618582
 10
44.1737737459339996
 20
22.2742386742110128
 10
44.1842630181987488
 20
22.2614343714926051
 10
44.1968755767643131
 20
22.2492853152413588
 10
44.2114899557970062
 20
22.2379085075103191
 10
44.227965410837669
 20
22.2274135131771402
 10
44.2461432742478848
 20
22.2179014047743877
 10
44.2658484832659838
 20
22.2094637891058326
 10
44.2868912659571521
 20
22.2021819250228347
 10
44.309068968820938
 20
22.1961259408571792
 10
44.3321680084551559
 20
22.1913541590469165
 10
44.3559659284809555
 20
22.1879125344594144
 10
44.3802335419191962
 20
22.1858342118208256
 10
44.4047371383864231
 20
22.185139206514279
 10
44.4292407348536642
 20
22.1858342118208256
 10
44.4535083482919049
 20
22.1879125344594144
 10
44.4773062683176903
 20
22.1913541590469165
 10
44.5004053079519224
 20
22.1961259408571721
 10
44.5225830108156941
 20
22.2021819250228276
 10
44.5436257935068625
 20
22.2094637891058326
 10
44.5633310025249614
 20
22.2179014047743877
 10
44.5815088659351915
 20
22.2274135131771402
 10
44.5815088659351915
 20
22.2274135131771402
  0
LINE
  5
8F
100
AcDbEntity
  8
0
 62
256
370
-1
 48
1.0
  6
BYLAYER
100
AcDbLine
 10
0.25
 20
3.0
 30
0.0
 11
0.2500000000000001
 21
48.0
 31
0.0
  0
LINE
  5
90
100
AcDbEntity
  8
0
 62
256
370
-1
 48
1.0
  6
BYLAYER
100
AcDbLine
 10
7.1499999999999968
 20
2.9999999999999964
 30
0.0
 11
7.1499999999999968
 21
48.0
 31
0.0
  0
LINE
  5
91
100
AcDbEntity
  8
0
 62
256
370
-1
 48
1.0
  6
BYLAYER
100
AcDbLine
 10
14.1767717275487612
 20
5.8979407955146073
 30
0.0
 11
45.995682686325253
 21
24.2685976028849453
 31
0.0
  0
LINE
  5
92
100
AcDbEntity
  8
0
 62
256
370
-1
 48
1.0
  6
BYLAYER
100
AcDbLine
 10
2.7243280398264185
 20
3.0
 30
0.0
 11
2.7243280398264185
 21
48.0
 31
0.0
  0
LINE
  5
93
100
AcDbEntity
  8
0
 62
256
370
-1
 48
1.0
  6
BYLAYER
100
AcDbLine
 10
9.6243280398264162
 20
2.9999999999999964
 30
0.0
 11
9.6243280398264162
 21
48.0
 31
0.0
  0
LINE
  5
94
100
AcDbEntity
  8
0
 62
256
370
-1
 48
1.0
  6
BYLAYER
100
AcDbLine
 10
15.9263366960385611
 20
4.8878289899922862
 30
0.0
 11
47.7452476548150599
 21
23.2584857973626313
 31
0.0
  0
LINE
  5
95
100
AcDbEntity
  8
0
 62
256
370
-1
 48
1.0
  6
BYLAYER
100
AcDbLine
 10
14.303108891324543
 20
5.7000000000000082
 30
0.0
 11
15.8216966726296455
 21
4.8232429356754318
 31
0.0
  0
LINE
  5
96
100
AcDbEntity
  8
0
 62
256
370
-1
 48
1.0
  6
BYLAYER
100
AcDbLine
 10
14.0
 20
5.7871909855558741
 30
0.0
 11
14.0
 21
4.7249999999999019
 31
0.0
  0
LINE
  5
97
100
AcDbEntity
  8
0
 62
256
370
-1
 48
1.0
  6
BYLAYER
100
AcDbLine
 10
16.1212607305851066
 20
4.5502895461754918
 30
0.0
 11
16.1212607305851066
 21
3.5002895461753285
 31
0.0
  0
LINE
  5
98
100
AcDbEntity
  8
0
 62
256
370
-1
 48
1.0
  6
BYLAYER
100
AcDbLine
 10
14.1767717275487595
 20
4.397940795514609
 30
0.0
 11
15.9263366960385326
 21
3.3878289899923009
 31
0.0
  0
LINE
  5
99
100
AcDbEntity
  8
0
 62
256
370
-1
 48
1.0
  6
BYLAYER
100
AcDbLine
 10
14.3060128019889738
 20
4.4483234263961942
 30
0.0
 11
15.7968911086753234
 21
3.5875644347018567
 31
0.0
  0
LINE
  5
9A
100
AcDbEntity
  8
0
 62
256
370
-1
 48
1.0
  6
BYLAYER
100
AcDbLine
 10
15.9917468245269436
 20
3.7000644347020115
 30
0.0
 11
15.9917468245269436
 21
4.5287074327544907
 31
0.0
  0
LINE
  5
9B
100
AcDbEntity
  8
0
 62
256
370
-1
 48
1.0
  6
BYLAYER
100
AcDbLine
 10
14.1082531754730525
 20
4.7874999999998886
 30
0.0
 11
14.1082531754730525
 21
5.5875000000000377
 31
0.0
  0
LINE
  5
9C
100
AcDbEntity
  8
0
 62
256
370
-1
 48
1.0
  6
BYLAYER
100
AcDbLine
 10
47.9401716893616197
 20
21.859594292654716
 30
0.0
 11
47.9401716893616197
 21
22.9209463535457054
 31
0.0
  0
LINE
  5
9D
100
AcDbEntity
  8
0
 62
256
370
-1
 48
1.0
  6
BYLAYER
100
AcDbLine
 10
16.1212607305851066
 20
4.5502895461753088
 30
0.0
 11
47.9401716893616126
 21
22.9209463535456521
 31
0.0
  0
ARC
  5
9E
100
AcDbEntity
  8
0
 62
256
370
-1
 48
1.0
  6
BYLAYER
100
AcDbCircle
 10
14.1268978756448043
 20
5.7810954927779017
 30
0.0
 40
0.1270441886721723
100
AcDbArc
 50
53.1145633869262781
 51
182.750067891846868
  0
ARC
  5
9F
100
AcDbEntity
  8
0
 62
256
370
-1
 48
1.0
  6
BYLAYER
100
AcDbCircle
 10
14.2501161164661418
 20
5.5667861784888224
 30
0.0
 40
0.1433672083455882
100
AcDbArc
 50
51.6927802990866212
 51
171.6927802990890655
  0
ARC
  5
A0
100
AcDbEntity
  8
0
 62
256
370
-1
 48
1.0
  6
BYLAYER
100
AcDbCircle
 10
14.4021293929012444
 20
4.7310451563648961
 30
0.0
 40
0.4021748283403637
100
AcDbArc
 50
180.8612547721301951
 51
235.9201659252115633
  0
ARC
  5
A1
100
AcDbEntity
  8
0
 62
256
370
-1
 48
1.0
  6
BYLAYER
100
AcDbCircle
 10
14.5210504386005148
 20
4.8009438046642403
 30
0.0
 40
0.4130161211494978
100
AcDbArc
 50
181.8653251378811149
 51
238.6240088095713645
  0
ARC
  5
A2
100
AcDbEntity
  8
0
 62
256
370
-1
 48
1.0
  6
BYLAYER
100
AcDbCircle
 10
15.9827839572305965
 20
3.5151487416080589
 30
0.0
 40
0.1392717216364634
100
AcDbArc
 50
246.0898773596322258
 51
353.8753343143691836
  0
ARC
  5
A3
100
AcDbEntity
  8
0
 62
256
370
-1
 48
1.0
  6
BYLAYER
100
AcDbCircle
 10
15.8605503518957285
 20
3.7023033910728698
 30
0.0
 40
0.1312155758913696
100
AcDbArc
 50
240.9776962490508083
 51
359.0223037510470476
  0
ARC
  5
A4
100
AcDbEntity
  8
0
 62
256
370
-1
 48
1.0
  6
BYLAYER
100
AcDbCircle
 10
15.6268409567780946
 20
4.5143859337281187
 30
0.0
 40
0.3651867982990392
100
AcDbArc
 50
357.7524600213488384
 51
57.7524600213391608
  0
ARC
  5
A5
100
AcDbEntity
  8
0
 62
256
370
-1
 48
1.0
  6
BYLAYER
100
AcDbCircle
 10
15.7250899167944365
 20
4.54655935781172
 30
0.0
 40
0.3961883743937863
100
AcDbArc
 50
0.5394585545273551
 51
59.4721375544630675
  0
LINE
  5
A6
100
AcDbEntity
  8
0
 62
256
370
-1
 48
1.0
  6
BYLAYER
100
AcDbLine
 10
14.0673867954989404
 20
5.8933392329830596
 30
0.0
 11
45.8954978444786548
 21
24.2693077149088126
 31
0.0
  0
ARC
  5
A7
100
AcDbEntity
  8
0
 62
256
370
-1
 48
1.0
  6
BYLAYER
100
AcDbCircle
 10
45.9448130145875098
 20
24.1592956651718254
 30
0.0
 40
0.120559682690985
100
AcDbArc
 50
65.0424944703168677
 51
125.8547079858651472
  0
ARC
  5
A8
100
AcDbEntity
  8
0
 62
256
370
-1
 48
1.0
  6
BYLAYER
100
AcDbCircle
 10
47.493474791077773
 20
22.8880380989747927
 30
0.0
 40
0.447907437039522
100
AcDbArc
 50
4.2133807167944832
 51
55.7982153922047814
  0
LINE
  5
A9
100
AcDbEntity
  8
0
 62
256
370
-1
 48
1.0
  6
BYLAYER
100
AcDbLine
 10
16.1212607305851066
 20
4.7752895461753084
 30
0.0
 11
16.0681790657775174
 21
4.7446882649778779
 31
0.0
  0
LINE
  5
AA
100
AcDbEntity
  8
0
 62
256
370
-1
 48
1.0
  6
BYLAYER
100
AcDbLine
 10
14.1082531754730525
 20
4.7874999999998895
 30
0.0
 11
14.9959292143522003
 21
5.2999999999999465
 31
0.0
  0
LINE
  5
AB
100
AcDbEntity
  8
0
 62
256
370
-1
 48
1.0
  6
BYLAYER
100
AcDbLine
 10
14.1642530838556127
 20
4.5929102401213582
 30
0.0
 11
15.1924488439146046
 21
5.1865393389710492
 31
0.0
  0
LINE
  5
AC
100
AcDbEntity
  8
0
 62
256
370
-1
 48
1.0
  6
BYLAYER
100
AcDbLine
 10
14.3060128019889934
 20
4.4483234263961826
 30
0.0
 11
15.3885445567195465
 21
5.0733234263961844
 31
0.0
  0
LINE
  5
AD
100
AcDbEntity
  8
0
 62
256
370
-1
 48
1.0
  6
BYLAYER
100
AcDbLine
 10
16.1212607305851066
 20
3.5002895461753329
 30
0.0
 11
47.9401716893616339
 21
21.8709463535456621
 31
0.0
  0
LINE
  5
AE
100
AcDbEntity
  8
0
 62
256
370
-1
 48
1.0
  6
BYLAYER
100
AcDbLine
 10
16.0523831985386245
 20
3.3945147577687957
 30
0.0
 11
47.8964509735058783
 21
21.7796958597388475
 31
0.0
  0
ARC
  5
AF
100
AcDbEntity
  8
0
 62
256
370
-1
 48
1.0
  6
BYLAYER
100
AcDbCircle
 10
47.8349324192249696
 20
21.8652703231001055
 30
0.0
 40
0.1053922259965685
100
AcDbArc
 50
294.2880515208963175
 51
3.0872296733983182
  0
DIMENSION
  5
B0
100
AcDbEntity
  8
Dimensions
 62
256
370
-1
 48
1.0
  6
BYLAYER
100
AcDbDimension
 10
0.7179284192685224
 20
5.0
 30
0.0
 11
0.6241784192685225
 21
6.5
 31
0.0
 70
0
 71
8
 72
2
 74
0
 75
0
 41
1.0
 42
0.0
  1

  3
Standard
100
AcDbAlignedDimension
 13
1.4999999999999998
 23
5.0
 33
0.0
 14
1.4999999999999998
 24
8.0
 34
0.0
 50
90.0
100
AcDbRotatedDimension
1001
ACAD
1000
DSTYLE
1002
{
1070
144
1040
1.0
1070
40
1040
1.0
1002
}
  0
DIMENSION
  5
B1
100
AcDbEntity
  8
Dimensions
 62
256
370
-1
 48
1.0
  6
BYLAYER
100
AcDbDimension
 10
1.2499999999999996
 20
4.318554682201956
 30
0.0
 11
1.4999999999999996
 21
4.412304682201956
 31
0.0
 70
0
 71
8
 72
2
 74
0
 75
0
 41
1.0
 42
0.0
  1

  3
Standard
100
AcDbAlignedDimension
 13
1.2499999999999996
 23
5.0
 33
0.0
 14
1.7499999999999998
 24
5.0
 34
0.0
 50
0.0
100
AcDbRotatedDimension
1001
ACAD
1000
DSTYLE
1002
{
1070
144
1040
1.0
1070
40
1040
1.0
1002
}
  0
DIMENSION
  5
B2
100
AcDbEntity
  8
Dimensions
 62
256
370
-1
 48
1.0
  6
BYLAYER
100
AcDbDimension
 10
1.5
 20
10.4999999999999982
 30
0.0
 11
0.7770841314903421
 21
10.0750005986177538
 31
0.0
 70
4
 71
8
 72
2
 74
0
 41
1.0
 42
0.0
  1

  3
Standard
100
AcDbRadialDimension
 15
1.0999999999999999
 25
10.1999999999999975
 35
0.0
 40
0.0
1001
ACAD
1000
DSTYLE
1002
{
1070
144
1040
1.0
1070
40
1040
1.0
1002
}
  0
DIMENSION
  5
B3
100
AcDbEntity
  8
Dimensions
 62
256
370
-1
 48
1.0
  6
BYLAYER
100
AcDbDimension
 10
1.5
 20
10.4999999999999982
 30
0.0
 11
0.8987143556584222
 21
10.7158637447481766
 31
0.0
 70
4
 71
8
 72
2
 74
0
 41
1.0
 42
0.0
  1

  3
Standard
100
AcDbRadialDimension
 15
1.25485483107727
 25
10.549029033784544
 35
0.0
 40
0.0
1001
ACAD
1000
DSTYLE
1002
{
1070
144
1040
1.0
1070
40
1040
1.0
1002
}
  0
DIMENSION
  5
B4
100
AcDbEntity
  8
Dimensions
 62
256
370
-1
 48
1.0
  6
BYLAYER
100
AcDbDimension
 10
1.4999999999999867
 20
44.5
 30
0.0
 11
0.8111186982662072
 21
44.0218008822259179
 31
0.0
 70
4
 71
8
 72
2
 74
0
 41
1.0
 42
0.0
  1

  3
Standard
100
AcDbRadialDimension
 15
1.1237116526465512
 25
44.1707476960657388
 35
0.0
 40
0.0
1001
ACAD
1000
DSTYLE
1002
{
1070
144
1040
1.0
1070
40
1040
1.0
1002
}
  0
DIMENSION
  5
B5
100
AcDbEntity
  8
Dimensions
 62
256
370
-1
 48
1.0
  6
BYLAYER
100
AcDbDimension
 10
1.4999999999999867
 20
44.5
 30
0.0
 11
0.8845647548253197
 21
44.6714089886347026
 31
0.0
 70
4
 71
8
 72
2
 74
0
 41
1.0
 42
0.0
  1

  3
Standard
100
AcDbRadialDimension
 15
1.2519305308215696
 25
44.5310086836473005
 35
0.0
 40
0.0
1001
ACAD
1000
DSTYLE
1002
{
1070
144
1040
1.0
1070
40
1040
1.0
1002
}
  0
DIMENSION
  5
B6
100
AcDbEntity
  8
Dimensions
 62
256
370
-1
 48
1.0
  6
BYLAYER
100
AcDbDimension
 10
-0.5021670374449464
 20
3.0
 30
0.0
 11
-0.5959170374449438
 21
25.5
 31
0.0
 70
0
 71
8
 72
2
 74
0
 75
0
 41
1.0
 42
0.0
  1

  3
Standard
100
AcDbAlignedDimension
 13
0.0
 23
3.0
 33
0.0
 14
0.0000000000000028
 24
48.0
 34
0.0
 50
90.0
100
AcDbRotatedDimension
1001
ACAD
1000
DSTYLE
1002
{
1070
144
1040
1.0
1070
40
1040
1.0
1002
}
  0
DIMENSION
  5
B7
100
AcDbEntity
  8
Dimensions
 62
256
370
-1
 48
1.0
  6
BYLAYER
100
AcDbDimension
 10
8.3999999999999968
 20
10.4999999999999947
 30
0.0
 11
7.7753750895872118
 21
10.365890702485645
 31
0.0
 70
4
 71
8
 72
2
 74
0
 41
1.0
 42
0.0
  1

  3
Standard
100
AcDbRadialDimension
 15
8.1659177056077361
 25
10.4122191396028985
 35
0.0
 40
0.0
1001
ACAD
1000
DSTYLE
1002
{
1070
144
1040
1.0
1070
40
1040
1.0
1002
}
  0
DIMENSION
  5
B8
100
AcDbEntity
  8
Dimensions
 62
256
370
-1
 48
1.0
  6
BYLAYER
100
AcDbDimension
 10
1.4687499999999998
 20
5.3720610190862228
 30
0.0
 11
2.234375
 21
5.4658110190862228
 31
0.0
 70
0
 71
8
 72
2
 74
0
 75
0
 41
1.0
 42
0.0
  1

  3
Standard
100
AcDbAlignedDimension
 13
1.4687499999999998
 23
5.0
 33
0.0
 14
3.0
 24
5.0
 34
0.0
 50
0.0
100
AcDbRotatedDimension
1001
ACAD
1000
DSTYLE
1002
{
1070
144
1040
1.0
1070
40
1040
1.0
1002
}
  0
DIMENSION
  5
B9
100
AcDbEntity
  8
Dimensions
 62
256
370
-1
 48
1.0
  6
BYLAYER
100
AcDbDimension
 10
2.2436414443603865
 20
5.03125
 30
0.0
 11
2.1498914443603865
 21
4.015625
 31
0.0
 70
0
 71
8
 72
2
 74
0
 75
0
 41
1.0
 42
0.0
  1

  3
Standard
100
AcDbAlignedDimension
 13
1.4687499999999998
 23
5.03125
 33
0.0
 14
3.0
 24
3.0
 34
0.0
 50
90.0
100
AcDbRotatedDimension
1001
ACAD
1000
DSTYLE
1002
{
1070
144
1040
1.0
1070
40
1040
1.0
1002
}
  0
DIMENSION
  5
BA
100
AcDbEntity
  8
Dimensions
 62
256
370
-1
 48
1.0
  6
BYLAYER
100
AcDbDimension
 10
3.6142360033889132
 20
10.4999999999999964
 30
0.0
 11
3.5204860033889132
 21
6.7499999999999982
 31
0.0
 70
0
 71
8
 72
2
 74
0
 75
0
 41
1.0
 42
0.0
  1

  3
Standard
100
AcDbAlignedDimension
 13
1.5000000000000002
 23
10.4999999999999964
 33
0.0
 14
3.0
 24
3.0
 34
0.0
 50
90.0
100
AcDbRotatedDimension
1001
ACAD
1000
DSTYLE
1002
{
1070
144
1040
1.0
1070
40
1040
1.0
1002
}
  0
DIMENSION
  5
BB
100
AcDbEntity
  8
Dimensions
 62
256
370
-1
 48
1.0
  6
BYLAYER
100
AcDbDimension
 10
3.5775236491292208
 20
44.5000000000000071
 30
0.0
 11
3.4837736491292208
 21
46.25
 31
0.0
 70
0
 71
8
 72
2
 74
0
 75
0
 41
1.0
 42
0.0
  1

  3
Standard
100
AcDbAlignedDimension
 13
1.4999999999999822
 23
44.5000000000000071
 33
0.0
 14
3.0000000000000031
 24
48.0
 34
0.0
 50
90.0
100
AcDbRotatedDimension
1001
ACAD
1000
DSTYLE
1002
{
1070
144
1040
1.0
1070
40
1040
1.0
1002
}
  0
ENDSEC
  0
SECTION
  2
OBJECTS
  0
DICTIONARY
  5
C
100
AcDbDictionary
280
0
281
1
  3
ACAD_GROUP
350
D
  3
ACAD_LAYOUT
350
1A
  3
ACAD_MLINESTYLE
350
17
  3
ACAD_PLOTSETTINGS
350
19
  3
ACAD_PLOTSTYLENAME
350
E
  3
AcDbVariableDictionary
350
BC
  3
QCAD_OBJECTS
350
BD
  0
DICTIONARY
  5
D
100
AcDbDictionary
280
0
281
1
  0
ACDBDICTIONARYWDFLT
  5
E
100
AcDbDictionary
281
1
  3
Normal
350
F
100
AcDbDictionaryWithDefault
340
F
  0
ACDBPLACEHOLDER
  5
F
  0
DICTIONARY
  5
17
100
AcDbDictionary
280
0
281
1
  3
Standard
350
18
  0
MLINESTYLE
  5
18
100
AcDbMlineStyle
  2
STANDARD
 70
0
  3

 62
256
 51
90.0
 52
90.0
 71
2
 49
0.5
 62
256
  6
BYLAYER
 49
-0.5
 62
256
  6
BYLAYER
  0
DICTIONARY
  5
19
100
AcDbDictionary
280
0
281
1
  0
DICTIONARY
  5
1A
100
AcDbDictionary
281
1
  3
Layout1
350
1E
  3
Layout2
350
26
  3
Model
350
22
  0
LAYOUT
  5
1E
100
AcDbPlotSettings
  1

  2
none_device
  4

  6

 40
0.0
 41
0.0
 42
0.0
 43
0.0
 44
0.0
 45
0.0
 46
0.0
 47
0.0
 48
0.0
 49
0.0
140
0.0
141
0.0
142
1.0
143
1.0
 70
688
 72
0
 73
0
 74
5
  7

 75
16
147
1.0
148
0.0
149
0.0
100
AcDbLayout
  1
Layout1
 70
1
 71
1
 10
0.0
 20
0.0
 11
420.0
 21
297.0
 12
0.0
 22
0.0
 32
0.0
 14
100000000000000000000.0
 24
100000000000000000000.0
 34
100000000000000000000.0
 15
-100000000000000000000.0
 25
-100000000000000000000.0
 35
-100000000000000000000.0
146
0.0
 13
0.0
 23
0.0
 33
0.0
 16
1.0
 26
0.0
 36
0.0
 17
0.0
 27
1.0
 37
0.0
 76
0
330
1B
  0
LAYOUT
  5
22
100
AcDbPlotSettings
  1

  2
none_device
  4

  6

 40
0.0
 41
0.0
 42
0.0
 43
0.0
 44
0.0
 45
0.0
 46
0.0
 47
0.0
 48
0.0
 49
0.0
140
0.0
141
0.0
142
1.0
143
1.0
 70
1712
 72
0
 73
0
 74
0
  7

 75
0
147
1.0
148
0.0
149
0.0
100
AcDbLayout
  1
Model
 70
1
 71
0
 10
0.0
 20
0.0
 11
12.0
 21
9.0
 12
0.0
 22
0.0
 32
0.0
 14
0.0
 24
0.0
 34
0.0
 15
0.0
 25
0.0
 35
0.0
146
0.0
 13
0.0
 23
0.0
 33
0.0
 16
1.0
 26
0.0
 36
0.0
 17
0.0
 27
1.0
 37
0.0
 76
0
330
1F
  0
LAYOUT
  5
26
100
AcDbPlotSettings
  1

  2
none_device
  4

  6

 40
0.0
 41
0.0
 42
0.0
 43
0.0
 44
0.0
 45
0.0
 46
0.0
 47
0.0
 48
0.0
 49
0.0
140
0.0
141
0.0
142
1.0
143
1.0
 70
688
 72
0
 73
0
 74
5
  7

 75
16
147
1.0
148
0.0
149
0.0
100
AcDbLayout
  1
Layout2
 70
1
 71
2
 10
0.0
 20
0.0
 11
12.0
 21
9.0
 12
0.0
 22
0.0
 32
0.0
 14
0.0
 24
0.0
 34
0.0
 15
0.0
 25
0.0
 35
0.0
146
0.0
 13
0.0
 23
0.0
 33
0.0
 16
1.0
 26
0.0
 36
0.0
 17
0.0
 27
1.0
 37
0.0
 76
0
330
23
  0
DICTIONARY
  5
BC
100
AcDbDictionary
281
1
  3
DIMASSOC
350
BF
  3
HIDETEXT
350
BE
  0
DICTIONARYVAR
  5
BE
100
DictionaryVariables
280
0
  1
2
  0
DICTIONARYVAR
  5
BF
100
DictionaryVariables
280
0
  1
1
  0
DICTIONARY
  5
BD
100
AcDbDictionary
281
1
  3
ColorSettings/BackgroundColor
350
C0
  3
ColorSettings/ColorMode
350
C1
  3
Grid/DisplayGrid00
350
C2
  3
Grid/DisplayGrid01
350
C3
  3
Grid/DisplayGrid02
350
C4
  3
Grid/DisplayGrid03
350
C5
  3
Grid/GridSpacingX00
350
C6
  3
Grid/GridSpacingX01
350
C7
  3
Grid/GridSpacingX02
350
C8
  3
Grid/GridSpacingX03
350
C9
  3
Grid/GridSpacingY00
350
CA
  3
Grid/GridSpacingY01
350
CB
  3
Grid/GridSpacingY02
350
CC
  3
Grid/GridSpacingY03
350
CD
  3
Grid/IsometricGrid00
350
CE
  3
Grid/IsometricGrid01
350
CF
  3
Grid/IsometricGrid02
350
D0
  3
Grid/IsometricGrid03
350
D1
  3
Grid/IsometricProjection00
350
D2
  3
Grid/IsometricProjection01
350
D3
  3
Grid/IsometricProjection02
350
D4
  3
Grid/IsometricProjection03
350
D5
  3
Grid/MetaGridSpacingX00
350
D6
  3
Grid/MetaGridSpacingX01
350
D7
  3
Grid/MetaGridSpacingX02
350
D8
  3
Grid/MetaGridSpacingX03
350
D9
  3
Grid/MetaGridSpacingY00
350
DA
  3
Grid/MetaGridSpacingY01
350
DB
  3
Grid/MetaGridSpacingY02
350
DC
  3
Grid/MetaGridSpacingY03
350
DD
  3
MultiPageSettings/Columns
350
DE
  3
MultiPageSettings/GlueMarginsBottom
350
DF
  3
MultiPageSettings/GlueMarginsLeft
350
E0
  3
MultiPageSettings/GlueMarginsRight
350
E1
  3
MultiPageSettings/GlueMarginsTop
350
E2
  3
MultiPageSettings/PrintCropMarks
350
E3
  3
MultiPageSettings/Rows
350
E4
  3
PageSettings/OffsetX
350
E5
  3
PageSettings/OffsetY
350
E6
  3
PageSettings/PageOrientation
350
E7
  3
PageSettings/PaperHeight
350
E8
  3
PageSettings/PaperWidth
350
E9
  3
PageSettings/Scale
350
EA
  3
PageSettings/ShowPaperBorders
350
EB
  3
PageTagSettings/EnablePageTags
350
EC
  3
PageTagSettings/TagAlignment
350
ED
  3
PageTagSettings/TagFont
350
EE
  3
PageTagSettings/TagPosition
350
EF
  3
QCADVersion
350
F0
  3
UnitSettings/PaperUnit
350
F1
  3
ViewportCenter
350
F2
  3
ViewportHeight
350
F3
  3
ViewportWidth
350
F4
  0
XRECORD
  5
C1
330
BD
100
AcDbXrecord
280
1
1000
FullColor
  0
XRECORD
  5
C2
330
BD
100
AcDbXrecord
280
1
290
1
  0
XRECORD
  5
C3
330
BD
100
AcDbXrecord
280
1
290
1
  0
XRECORD
  5
C4
330
BD
100
AcDbXrecord
280
1
290
1
  0
XRECORD
  5
C5
330
BD
100
AcDbXrecord
280
1
290
1
  0
XRECORD
  5
C6
330
BD
100
AcDbXrecord
280
1
1000
auto
  0
XRECORD
  5
C7
330
BD
100
AcDbXrecord
280
1
1000
auto
  0
XRECORD
  5
C8
330
BD
100
AcDbXrecord
280
1
1000
auto
  0
XRECORD
  5
C9
330
BD
100
AcDbXrecord
280
1
1000
auto
  0
XRECORD
  5
CA
330
BD
100
AcDbXrecord
280
1
1000
auto
  0
XRECORD
  5
CB
330
BD
100
AcDbXrecord
280
1
1000
auto
  0
XRECORD
  5
CC
330
BD
100
AcDbXrecord
280
1
1000
auto
  0
XRECORD
  5
CD
330
BD
100
AcDbXrecord
280
1
1000
auto
  0
XRECORD
  5
CE
330
BD
100
AcDbXrecord
280
1
290
0
  0
XRECORD
  5
CF
330
BD
100
AcDbXrecord
280
1
290
0
  0
XRECORD
  5
D0
330
BD
100
AcDbXrecord
280
1
290
0
  0
XRECORD
  5
D1
330
BD
100
AcDbXrecord
280
1
290
0
  0
XRECORD
  5
D2
330
BD
100
AcDbXrecord
280
1
 90
65537
  0
XRECORD
  5
D3
330
BD
100
AcDbXrecord
280
1
 90
65537
  0
XRECORD
  5
D4
330
BD
100
AcDbXrecord
280
1
 90
65537
  0
XRECORD
  5
D5
330
BD
100
AcDbXrecord
280
1
 90
65537
  0
XRECORD
  5
D6
330
BD
100
AcDbXrecord
280
1
1000
auto
  0
XRECORD
  5
D7
330
BD
100
AcDbXrecord
280
1
1000
auto
  0
XRECORD
  5
D8
330
BD
100
AcDbXrecord
280
1
1000
auto
  0
XRECORD
  5
D9
330
BD
100
AcDbXrecord
280
1
1000
auto
  0
XRECORD
  5
DA
330
BD
100
AcDbXrecord
280
1
1000
auto
  0
XRECORD
  5
DB
330
BD
100
AcDbXrecord
280
1
1000
auto
  0
XRECORD
  5
DC
330
BD
100
AcDbXrecord
280
1
1000
auto
  0
XRECORD
  5
DD
330
BD
100
AcDbXrecord
280
1
1000
auto
  0
XRECORD
  5
DE
330
BD
100
AcDbXrecord
280
1
 90
1
  0
XRECORD
  5
DF
330
BD
100
AcDbXrecord
280
1
 40
0.5
  0
XRECORD
  5
E0
330
BD
100
AcDbXrecord
280
1
 40
0.5
  0
XRECORD
  5
E1
330
BD
100
AcDbXrecord
280
1
 40
0.5
  0
XRECORD
  5
E2
330
BD
100
AcDbXrecord
280
1
 40
0.5
  0
XRECORD
  5
E3
330
BD
100
AcDbXrecord
280
1
290
0
  0
XRECORD
  5
E4
330
BD
100
AcDbXrecord
280
1
 90
1
  0
XRECORD
  5
E5
330
BD
100
AcDbXrecord
280
1
 40
0.0
  0
XRECORD
  5
E6
330
BD
100
AcDbXrecord
280
1
 40
0.0
  0
XRECORD
  5
E7
330
BD
100
AcDbXrecord
280
1
1000
Portrait
  0
XRECORD
  5
E8
330
BD
100
AcDbXrecord
280
1
 40
11.6929133858267722
  0
XRECORD
  5
E9
330
BD
100
AcDbXrecord
280
1
 40
8.2677165354330704
  0
XRECORD
  5
EA
330
BD
100
AcDbXrecord
280
1
1000
1:1
  0
XRECORD
  5
EB
330
BD
100
AcDbXrecord
280
1
290
1
  0
XRECORD
  5
EC
330
BD
100
AcDbXrecord
280
1
290
0
  0
XRECORD
  5
ED
330
BD
100
AcDbXrecord
280
1
1000
Inside
  0
XRECORD
  5
EE
330
BD
100
AcDbXrecord
280
1
1000
Arial,10,-1,5,400,0,0,0,0,0,0,0,0,0,0,1,,0,0
  0
XRECORD
  5
EF
330
BD
100
AcDbXrecord
280
1
1000
TopLeft
  0
XRECORD
  5
F0
330
BD
100
AcDbXrecord
280
1
1000
3.33.1
  0
XRECORD
  5
F1
330
BD
100
AcDbXrecord
280
1
 90
1
  0
XRECORD
  5
F3
330
BD
100
AcDbXrecord
280
1
 40
53.608034624305688
  0
XRECORD
  5
F4
330
BD
100
AcDbXrecord
280
1
 40
103.3328017228224525
  0
ENDSEC
  0
EOF
