ISO-10303-21;
HEADER;
FILE_DESCRIPTION(('FreeCAD Model'),'2;1');
FILE_NAME('Open CASCADE Shape Model','2026-08-10T19:19:31',(''),(''),
  'Open CASCADE STEP processor 7.8','FreeCAD','Unknown');
FILE_SCHEMA(('AUTOMOTIVE_DESIGN { 1 0 10303 214 1 1 1 1 }'));
ENDSEC;
DATA;
#1 = APPLICATION_PROTOCOL_DEFINITION('international standard',
  'automotive_design',2000,#2);
#2 = APPLICATION_CONTEXT(
  'core data for automotive mechanical design processes');
#3 = SHAPE_DEFINITION_REPRESENTATION(#4,#10);
#4 = PRODUCT_DEFINITION_SHAPE('','',#5);
#5 = PRODUCT_DEFINITION('design','',#6,#9);
#6 = PRODUCT_DEFINITION_FORMATION('','',#7);
#7 = PRODUCT('Assembly','Assembly','',(#8));
#8 = PRODUCT_CONTEXT('',#2,'mechanical');
#9 = PRODUCT_DEFINITION_CONTEXT('part definition',#2,'design');
#10 = SHAPE_REPRESENTATION('',(#11,#15,#19,#23),#27);
#11 = AXIS2_PLACEMENT_3D('',#12,#13,#14);
#12 = CARTESIAN_POINT('',(0.,0.,0.));
#13 = DIRECTION('',(0.,0.,1.));
#14 = DIRECTION('',(1.,0.,-0.));
#15 = AXIS2_PLACEMENT_3D('',#16,#17,#18);
#16 = CARTESIAN_POINT('',(0.,0.,0.));
#17 = DIRECTION('',(0.,0.,1.));
#18 = DIRECTION('',(1.,0.,0.));
#19 = AXIS2_PLACEMENT_3D('',#20,#21,#22);
#20 = CARTESIAN_POINT('',(-31.75,-50.8,107.95));
#21 = DIRECTION('',(0.,0.,-1.));
#22 = DIRECTION('',(-1.,0.,0.));
#23 = AXIS2_PLACEMENT_3D('',#24,#25,#26);
#24 = CARTESIAN_POINT('',(-74.31602085358,-176.3736591355,63.5));
#25 = DIRECTION('',(-0.,0.,1.));
#26 = DIRECTION('',(0.999374885441,-3.535305289977E-02,0.));
#27 = ( GEOMETRIC_REPRESENTATION_CONTEXT(3) 
GLOBAL_UNCERTAINTY_ASSIGNED_CONTEXT((#31)) GLOBAL_UNIT_ASSIGNED_CONTEXT(
(#28,#29,#30)) REPRESENTATION_CONTEXT('Context #1',
  '3D Context with UNIT and UNCERTAINTY') );
#28 = ( LENGTH_UNIT() NAMED_UNIT(*) SI_UNIT(.MILLI.,.METRE.) );
#29 = ( NAMED_UNIT(*) PLANE_ANGLE_UNIT() SI_UNIT($,.RADIAN.) );
#30 = ( NAMED_UNIT(*) SI_UNIT($,.STERADIAN.) SOLID_ANGLE_UNIT() );
#31 = UNCERTAINTY_MEASURE_WITH_UNIT(LENGTH_MEASURE(1.E-07),#28,
  'distance_accuracy_value','confusion accuracy');
#32 = PRODUCT_RELATED_PRODUCT_CATEGORY('part',$,(#7));
#33 = SHAPE_DEFINITION_REPRESENTATION(#34,#40);
#34 = PRODUCT_DEFINITION_SHAPE('','',#35);
#35 = PRODUCT_DEFINITION('design','',#36,#39);
#36 = PRODUCT_DEFINITION_FORMATION('','',#37);
#37 = PRODUCT('plank01','plank01','',(#38));
#38 = PRODUCT_CONTEXT('',#2,'mechanical');
#39 = PRODUCT_DEFINITION_CONTEXT('part definition',#2,'design');
#40 = ADVANCED_BREP_SHAPE_REPRESENTATION('',(#11,#41),#269);
#41 = MANIFOLD_SOLID_BREP('',#42);
#42 = CLOSED_SHELL('',(#43,#83,#136,#189,#206,#223,#235,#252));
#43 = ADVANCED_FACE('',(#44),#78,.F.);
#44 = FACE_BOUND('',#45,.F.);
#45 = EDGE_LOOP('',(#46,#56,#64,#72));
#46 = ORIENTED_EDGE('',*,*,#47,.T.);
#47 = EDGE_CURVE('',#48,#50,#52,.T.);
#48 = VERTEX_POINT('',#49);
#49 = CARTESIAN_POINT('',(0.,0.,0.));
#50 = VERTEX_POINT('',#51);
#51 = CARTESIAN_POINT('',(0.,-304.8,6.767919558115E-14));
#52 = LINE('',#53,#54);
#53 = CARTESIAN_POINT('',(0.,0.,0.));
#54 = VECTOR('',#55,1.);
#55 = DIRECTION('',(0.,-1.,2.22044604925E-16));
#56 = ORIENTED_EDGE('',*,*,#57,.T.);
#57 = EDGE_CURVE('',#50,#58,#60,.T.);
#58 = VERTEX_POINT('',#59);
#59 = CARTESIAN_POINT('',(0.,-304.8,50.8));
#60 = LINE('',#61,#62);
#61 = CARTESIAN_POINT('',(0.,-304.8,5.684341886081E-14));
#62 = VECTOR('',#63,1.);
#63 = DIRECTION('',(0.,2.22044604925E-16,1.));
#64 = ORIENTED_EDGE('',*,*,#65,.F.);
#65 = EDGE_CURVE('',#66,#58,#68,.T.);
#66 = VERTEX_POINT('',#67);
#67 = CARTESIAN_POINT('',(0.,1.127986593019E-14,50.8));
#68 = LINE('',#69,#70);
#69 = CARTESIAN_POINT('',(0.,1.127986593019E-14,50.8));
#70 = VECTOR('',#71,1.);
#71 = DIRECTION('',(0.,-1.,2.22044604925E-16));
#72 = ORIENTED_EDGE('',*,*,#73,.F.);
#73 = EDGE_CURVE('',#48,#66,#74,.T.);
#74 = LINE('',#75,#76);
#75 = CARTESIAN_POINT('',(0.,0.,0.));
#76 = VECTOR('',#77,1.);
#77 = DIRECTION('',(0.,2.22044604925E-16,1.));
#78 = PLANE('',#79);
#79 = AXIS2_PLACEMENT_3D('',#80,#81,#82);
#80 = CARTESIAN_POINT('',(0.,0.,0.));
#81 = DIRECTION('',(-1.,0.,0.));
#82 = DIRECTION('',(0.,2.22044604925E-16,1.));
#83 = ADVANCED_FACE('',(#84,#109,#120),#131,.F.);
#84 = FACE_BOUND('',#85,.F.);
#85 = EDGE_LOOP('',(#86,#96,#102,#103));
#86 = ORIENTED_EDGE('',*,*,#87,.T.);
#87 = EDGE_CURVE('',#88,#90,#92,.T.);
#88 = VERTEX_POINT('',#89);
#89 = CARTESIAN_POINT('',(-152.4,0.,-0.));
#90 = VERTEX_POINT('',#91);
#91 = CARTESIAN_POINT('',(-152.4,-304.8,6.767919558115E-14));
#92 = LINE('',#93,#94);
#93 = CARTESIAN_POINT('',(-152.4,0.,0.));
#94 = VECTOR('',#95,1.);
#95 = DIRECTION('',(0.,-1.,2.22044604925E-16));
#96 = ORIENTED_EDGE('',*,*,#97,.T.);
#97 = EDGE_CURVE('',#90,#50,#98,.T.);
#98 = LINE('',#99,#100);
#99 = CARTESIAN_POINT('',(-152.4,-304.8,5.684341886081E-14));
#100 = VECTOR('',#101,1.);
#101 = DIRECTION('',(1.,0.,0.));
#102 = ORIENTED_EDGE('',*,*,#47,.F.);
#103 = ORIENTED_EDGE('',*,*,#104,.F.);
#104 = EDGE_CURVE('',#88,#48,#105,.T.);
#105 = LINE('',#106,#107);
#106 = CARTESIAN_POINT('',(-152.4,0.,0.));
#107 = VECTOR('',#108,1.);
#108 = DIRECTION('',(1.,0.,0.));
#109 = FACE_BOUND('',#110,.F.);
#110 = EDGE_LOOP('',(#111));
#111 = ORIENTED_EDGE('',*,*,#112,.F.);
#112 = EDGE_CURVE('',#113,#113,#115,.T.);
#113 = VERTEX_POINT('',#114);
#114 = CARTESIAN_POINT('',(-44.45,-139.7,0.));
#115 = CIRCLE('',#116,12.7);
#116 = AXIS2_PLACEMENT_3D('',#117,#118,#119);
#117 = CARTESIAN_POINT('',(-31.75,-139.7,3.155443620884E-30));
#118 = DIRECTION('',(0.,0.,1.));
#119 = DIRECTION('',(-1.,0.,0.));
#120 = FACE_BOUND('',#121,.F.);
#121 = EDGE_LOOP('',(#122));
#122 = ORIENTED_EDGE('',*,*,#123,.F.);
#123 = EDGE_CURVE('',#124,#124,#126,.T.);
#124 = VERTEX_POINT('',#125);
#125 = CARTESIAN_POINT('',(-44.45,-50.8,3.155443620884E-30));
#126 = CIRCLE('',#127,12.7);
#127 = AXIS2_PLACEMENT_3D('',#128,#129,#130);
#128 = CARTESIAN_POINT('',(-31.75,-50.8,0.));
#129 = DIRECTION('',(0.,0.,1.));
#130 = DIRECTION('',(-1.,0.,0.));
#131 = PLANE('',#132);
#132 = AXIS2_PLACEMENT_3D('',#133,#134,#135);
#133 = CARTESIAN_POINT('',(-152.4,0.,0.));
#134 = DIRECTION('',(0.,2.22044604925E-16,1.));
#135 = DIRECTION('',(1.,0.,0.));
#136 = ADVANCED_FACE('',(#137,#162,#173),#184,.F.);
#137 = FACE_BOUND('',#138,.F.);
#138 = EDGE_LOOP('',(#139,#140,#148,#156));
#139 = ORIENTED_EDGE('',*,*,#65,.T.);
#140 = ORIENTED_EDGE('',*,*,#141,.T.);
#141 = EDGE_CURVE('',#58,#142,#144,.T.);
#142 = VERTEX_POINT('',#143);
#143 = CARTESIAN_POINT('',(-152.4,-304.8,50.8));
#144 = LINE('',#145,#146);
#145 = CARTESIAN_POINT('',(0.,-304.8,50.8));
#146 = VECTOR('',#147,1.);
#147 = DIRECTION('',(-1.,0.,0.));
#148 = ORIENTED_EDGE('',*,*,#149,.F.);
#149 = EDGE_CURVE('',#150,#142,#152,.T.);
#150 = VERTEX_POINT('',#151);
#151 = CARTESIAN_POINT('',(-152.4,1.127986593019E-14,50.8));
#152 = LINE('',#153,#154);
#153 = CARTESIAN_POINT('',(-152.4,1.127986593019E-14,50.8));
#154 = VECTOR('',#155,1.);
#155 = DIRECTION('',(0.,-1.,2.22044604925E-16));
#156 = ORIENTED_EDGE('',*,*,#157,.F.);
#157 = EDGE_CURVE('',#66,#150,#158,.T.);
#158 = LINE('',#159,#160);
#159 = CARTESIAN_POINT('',(0.,1.127986593019E-14,50.8));
#160 = VECTOR('',#161,1.);
#161 = DIRECTION('',(-1.,0.,0.));
#162 = FACE_BOUND('',#163,.F.);
#163 = EDGE_LOOP('',(#164));
#164 = ORIENTED_EDGE('',*,*,#165,.T.);
#165 = EDGE_CURVE('',#166,#166,#168,.T.);
#166 = VERTEX_POINT('',#167);
#167 = CARTESIAN_POINT('',(-44.45,-139.7,50.8));
#168 = CIRCLE('',#169,12.7);
#169 = AXIS2_PLACEMENT_3D('',#170,#171,#172);
#170 = CARTESIAN_POINT('',(-31.75,-139.7,50.8));
#171 = DIRECTION('',(0.,0.,1.));
#172 = DIRECTION('',(-1.,0.,0.));
#173 = FACE_BOUND('',#174,.F.);
#174 = EDGE_LOOP('',(#175));
#175 = ORIENTED_EDGE('',*,*,#176,.T.);
#176 = EDGE_CURVE('',#177,#177,#179,.T.);
#177 = VERTEX_POINT('',#178);
#178 = CARTESIAN_POINT('',(-44.45,-50.8,50.8));
#179 = CIRCLE('',#180,12.7);
#180 = AXIS2_PLACEMENT_3D('',#181,#182,#183);
#181 = CARTESIAN_POINT('',(-31.75,-50.8,50.8));
#182 = DIRECTION('',(0.,0.,1.));
#183 = DIRECTION('',(-1.,0.,0.));
#184 = PLANE('',#185);
#185 = AXIS2_PLACEMENT_3D('',#186,#187,#188);
#186 = CARTESIAN_POINT('',(0.,1.127986593019E-14,50.8));
#187 = DIRECTION('',(0.,-2.22044604925E-16,-1.));
#188 = DIRECTION('',(-1.,0.,0.));
#189 = ADVANCED_FACE('',(#190),#201,.T.);
#190 = FACE_BOUND('',#191,.F.);
#191 = EDGE_LOOP('',(#192,#193,#194,#200));
#192 = ORIENTED_EDGE('',*,*,#73,.T.);
#193 = ORIENTED_EDGE('',*,*,#157,.T.);
#194 = ORIENTED_EDGE('',*,*,#195,.T.);
#195 = EDGE_CURVE('',#150,#88,#196,.T.);
#196 = LINE('',#197,#198);
#197 = CARTESIAN_POINT('',(-152.4,1.127986593019E-14,50.8));
#198 = VECTOR('',#199,1.);
#199 = DIRECTION('',(0.,-2.22044604925E-16,-1.));
#200 = ORIENTED_EDGE('',*,*,#104,.T.);
#201 = PLANE('',#202);
#202 = AXIS2_PLACEMENT_3D('',#203,#204,#205);
#203 = CARTESIAN_POINT('',(-76.2,5.639932965096E-15,25.4));
#204 = DIRECTION('',(0.,1.,0.));
#205 = DIRECTION('',(0.,0.,1.));
#206 = ADVANCED_FACE('',(#207),#218,.F.);
#207 = FACE_BOUND('',#208,.T.);
#208 = EDGE_LOOP('',(#209,#210,#211,#217));
#209 = ORIENTED_EDGE('',*,*,#57,.T.);
#210 = ORIENTED_EDGE('',*,*,#141,.T.);
#211 = ORIENTED_EDGE('',*,*,#212,.T.);
#212 = EDGE_CURVE('',#142,#90,#213,.T.);
#213 = LINE('',#214,#215);
#214 = CARTESIAN_POINT('',(-152.4,-304.8,50.8));
#215 = VECTOR('',#216,1.);
#216 = DIRECTION('',(0.,-2.22044604925E-16,-1.));
#217 = ORIENTED_EDGE('',*,*,#97,.T.);
#218 = PLANE('',#219);
#219 = AXIS2_PLACEMENT_3D('',#220,#221,#222);
#220 = CARTESIAN_POINT('',(-76.2,-304.8,25.4));
#221 = DIRECTION('',(0.,1.,0.));
#222 = DIRECTION('',(0.,0.,1.));
#223 = ADVANCED_FACE('',(#224),#230,.F.);
#224 = FACE_BOUND('',#225,.F.);
#225 = EDGE_LOOP('',(#226,#227,#228,#229));
#226 = ORIENTED_EDGE('',*,*,#149,.T.);
#227 = ORIENTED_EDGE('',*,*,#212,.T.);
#228 = ORIENTED_EDGE('',*,*,#87,.F.);
#229 = ORIENTED_EDGE('',*,*,#195,.F.);
#230 = PLANE('',#231);
#231 = AXIS2_PLACEMENT_3D('',#232,#233,#234);
#232 = CARTESIAN_POINT('',(-152.4,1.127986593019E-14,50.8));
#233 = DIRECTION('',(1.,0.,0.));
#234 = DIRECTION('',(0.,-2.22044604925E-16,-1.));
#235 = ADVANCED_FACE('',(#236),#247,.F.);
#236 = FACE_BOUND('',#237,.F.);
#237 = EDGE_LOOP('',(#238,#244,#245,#246));
#238 = ORIENTED_EDGE('',*,*,#239,.T.);
#239 = EDGE_CURVE('',#166,#113,#240,.T.);
#240 = LINE('',#241,#242);
#241 = CARTESIAN_POINT('',(-44.45,-139.7,50.8));
#242 = VECTOR('',#243,1.);
#243 = DIRECTION('',(0.,0.,-1.));
#244 = ORIENTED_EDGE('',*,*,#112,.T.);
#245 = ORIENTED_EDGE('',*,*,#239,.F.);
#246 = ORIENTED_EDGE('',*,*,#165,.F.);
#247 = CYLINDRICAL_SURFACE('',#248,12.7);
#248 = AXIS2_PLACEMENT_3D('',#249,#250,#251);
#249 = CARTESIAN_POINT('',(-31.75,-139.7,50.8));
#250 = DIRECTION('',(0.,0.,1.));
#251 = DIRECTION('',(-1.,-0.,0.));
#252 = ADVANCED_FACE('',(#253),#264,.F.);
#253 = FACE_BOUND('',#254,.F.);
#254 = EDGE_LOOP('',(#255,#261,#262,#263));
#255 = ORIENTED_EDGE('',*,*,#256,.T.);
#256 = EDGE_CURVE('',#177,#124,#257,.T.);
#257 = LINE('',#258,#259);
#258 = CARTESIAN_POINT('',(-44.45,-50.8,50.8));
#259 = VECTOR('',#260,1.);
#260 = DIRECTION('',(0.,0.,-1.));
#261 = ORIENTED_EDGE('',*,*,#123,.T.);
#262 = ORIENTED_EDGE('',*,*,#256,.F.);
#263 = ORIENTED_EDGE('',*,*,#176,.F.);
#264 = CYLINDRICAL_SURFACE('',#265,12.7);
#265 = AXIS2_PLACEMENT_3D('',#266,#267,#268);
#266 = CARTESIAN_POINT('',(-31.75,-50.8,50.8));
#267 = DIRECTION('',(0.,0.,1.));
#268 = DIRECTION('',(-1.,-0.,0.));
#269 = ( GEOMETRIC_REPRESENTATION_CONTEXT(3) 
GLOBAL_UNCERTAINTY_ASSIGNED_CONTEXT((#273)) GLOBAL_UNIT_ASSIGNED_CONTEXT
((#270,#271,#272)) REPRESENTATION_CONTEXT('Context #1',
  '3D Context with UNIT and UNCERTAINTY') );
#270 = ( LENGTH_UNIT() NAMED_UNIT(*) SI_UNIT(.MILLI.,.METRE.) );
#271 = ( NAMED_UNIT(*) PLANE_ANGLE_UNIT() SI_UNIT($,.RADIAN.) );
#272 = ( NAMED_UNIT(*) SI_UNIT($,.STERADIAN.) SOLID_ANGLE_UNIT() );
#273 = UNCERTAINTY_MEASURE_WITH_UNIT(LENGTH_MEASURE(1.E-07),#270,
  'distance_accuracy_value','confusion accuracy');
#274 = CONTEXT_DEPENDENT_SHAPE_REPRESENTATION(#275,#277);
#275 = ( REPRESENTATION_RELATIONSHIP('','',#40,#10) 
REPRESENTATION_RELATIONSHIP_WITH_TRANSFORMATION(#276) 
SHAPE_REPRESENTATION_RELATIONSHIP() );
#276 = ITEM_DEFINED_TRANSFORMATION('','',#11,#15);
#277 = PRODUCT_DEFINITION_SHAPE('Placement','Placement of an item',#278
  );
#278 = NEXT_ASSEMBLY_USAGE_OCCURRENCE('1','plank001','',#5,#35,$);
#279 = PRODUCT_RELATED_PRODUCT_CATEGORY('part',$,(#37));
#280 = SHAPE_DEFINITION_REPRESENTATION(#281,#287);
#281 = PRODUCT_DEFINITION_SHAPE('','',#282);
#282 = PRODUCT_DEFINITION('design','',#283,#286);
#283 = PRODUCT_DEFINITION_FORMATION('','',#284);
#284 = PRODUCT('dowel','dowel','',(#285));
#285 = PRODUCT_CONTEXT('',#2,'mechanical');
#286 = PRODUCT_DEFINITION_CONTEXT('part definition',#2,'design');
#287 = ADVANCED_BREP_SHAPE_REPRESENTATION('',(#11,#288),#386);
#288 = MANIFOLD_SOLID_BREP('',#289);
#289 = CLOSED_SHELL('',(#290,#323,#332,#352,#377));
#290 = ADVANCED_FACE('',(#291),#318,.T.);
#291 = FACE_BOUND('',#292,.F.);
#292 = EDGE_LOOP('',(#293,#303,#310,#311));
#293 = ORIENTED_EDGE('',*,*,#294,.T.);
#294 = EDGE_CURVE('',#295,#297,#299,.T.);
#295 = VERTEX_POINT('',#296);
#296 = CARTESIAN_POINT('',(19.05,0.,0.));
#297 = VERTEX_POINT('',#298);
#298 = CARTESIAN_POINT('',(19.05,0.,6.35));
#299 = LINE('',#300,#301);
#300 = CARTESIAN_POINT('',(19.05,0.,0.));
#301 = VECTOR('',#302,1.);
#302 = DIRECTION('',(0.,0.,1.));
#303 = ORIENTED_EDGE('',*,*,#304,.T.);
#304 = EDGE_CURVE('',#297,#297,#305,.T.);
#305 = CIRCLE('',#306,19.05);
#306 = AXIS2_PLACEMENT_3D('',#307,#308,#309);
#307 = CARTESIAN_POINT('',(0.,0.,6.35));
#308 = DIRECTION('',(0.,0.,1.));
#309 = DIRECTION('',(1.,0.,0.));
#310 = ORIENTED_EDGE('',*,*,#294,.F.);
#311 = ORIENTED_EDGE('',*,*,#312,.F.);
#312 = EDGE_CURVE('',#295,#295,#313,.T.);
#313 = CIRCLE('',#314,19.05);
#314 = AXIS2_PLACEMENT_3D('',#315,#316,#317);
#315 = CARTESIAN_POINT('',(0.,0.,0.));
#316 = DIRECTION('',(0.,0.,1.));
#317 = DIRECTION('',(1.,0.,0.));
#318 = CYLINDRICAL_SURFACE('',#319,19.05);
#319 = AXIS2_PLACEMENT_3D('',#320,#321,#322);
#320 = CARTESIAN_POINT('',(0.,0.,0.));
#321 = DIRECTION('',(-0.,-0.,-1.));
#322 = DIRECTION('',(1.,0.,0.));
#323 = ADVANCED_FACE('',(#324),#327,.F.);
#324 = FACE_BOUND('',#325,.F.);
#325 = EDGE_LOOP('',(#326));
#326 = ORIENTED_EDGE('',*,*,#312,.T.);
#327 = PLANE('',#328);
#328 = AXIS2_PLACEMENT_3D('',#329,#330,#331);
#329 = CARTESIAN_POINT('',(-5.742530740323E-16,3.70855430606E-16,0.));
#330 = DIRECTION('',(0.,0.,1.));
#331 = DIRECTION('',(1.,0.,0.));
#332 = ADVANCED_FACE('',(#333,#336),#347,.T.);
#333 = FACE_BOUND('',#334,.T.);
#334 = EDGE_LOOP('',(#335));
#335 = ORIENTED_EDGE('',*,*,#304,.T.);
#336 = FACE_BOUND('',#337,.T.);
#337 = EDGE_LOOP('',(#338));
#338 = ORIENTED_EDGE('',*,*,#339,.F.);
#339 = EDGE_CURVE('',#340,#340,#342,.T.);
#340 = VERTEX_POINT('',#341);
#341 = CARTESIAN_POINT('',(12.7,0.,6.35));
#342 = CIRCLE('',#343,12.7);
#343 = AXIS2_PLACEMENT_3D('',#344,#345,#346);
#344 = CARTESIAN_POINT('',(0.,0.,6.35));
#345 = DIRECTION('',(0.,0.,1.));
#346 = DIRECTION('',(1.,0.,0.));
#347 = PLANE('',#348);
#348 = AXIS2_PLACEMENT_3D('',#349,#350,#351);
#349 = CARTESIAN_POINT('',(-5.742530740323E-16,3.70855430606E-16,6.35));
#350 = DIRECTION('',(0.,0.,1.));
#351 = DIRECTION('',(1.,0.,0.));
#352 = ADVANCED_FACE('',(#353),#372,.T.);
#353 = FACE_BOUND('',#354,.F.);
#354 = EDGE_LOOP('',(#355,#363,#370,#371));
#355 = ORIENTED_EDGE('',*,*,#356,.T.);
#356 = EDGE_CURVE('',#340,#357,#359,.T.);
#357 = VERTEX_POINT('',#358);
#358 = CARTESIAN_POINT('',(12.7,0.,107.95));
#359 = LINE('',#360,#361);
#360 = CARTESIAN_POINT('',(12.7,0.,6.35));
#361 = VECTOR('',#362,1.);
#362 = DIRECTION('',(0.,0.,1.));
#363 = ORIENTED_EDGE('',*,*,#364,.T.);
#364 = EDGE_CURVE('',#357,#357,#365,.T.);
#365 = CIRCLE('',#366,12.7);
#366 = AXIS2_PLACEMENT_3D('',#367,#368,#369);
#367 = CARTESIAN_POINT('',(0.,0.,107.95));
#368 = DIRECTION('',(0.,0.,1.));
#369 = DIRECTION('',(1.,0.,0.));
#370 = ORIENTED_EDGE('',*,*,#356,.F.);
#371 = ORIENTED_EDGE('',*,*,#339,.F.);
#372 = CYLINDRICAL_SURFACE('',#373,12.7);
#373 = AXIS2_PLACEMENT_3D('',#374,#375,#376);
#374 = CARTESIAN_POINT('',(0.,0.,6.35));
#375 = DIRECTION('',(-0.,-0.,-1.));
#376 = DIRECTION('',(1.,0.,0.));
#377 = ADVANCED_FACE('',(#378),#381,.T.);
#378 = FACE_BOUND('',#379,.T.);
#379 = EDGE_LOOP('',(#380));
#380 = ORIENTED_EDGE('',*,*,#364,.T.);
#381 = PLANE('',#382);
#382 = AXIS2_PLACEMENT_3D('',#383,#384,#385);
#383 = CARTESIAN_POINT('',(-8.613796110485E-16,-8.774400611482E-17,
    107.95));
#384 = DIRECTION('',(0.,0.,1.));
#385 = DIRECTION('',(1.,0.,0.));
#386 = ( GEOMETRIC_REPRESENTATION_CONTEXT(3) 
GLOBAL_UNCERTAINTY_ASSIGNED_CONTEXT((#390)) GLOBAL_UNIT_ASSIGNED_CONTEXT
((#387,#388,#389)) REPRESENTATION_CONTEXT('Context #1',
  '3D Context with UNIT and UNCERTAINTY') );
#387 = ( LENGTH_UNIT() NAMED_UNIT(*) SI_UNIT(.MILLI.,.METRE.) );
#388 = ( NAMED_UNIT(*) PLANE_ANGLE_UNIT() SI_UNIT($,.RADIAN.) );
#389 = ( NAMED_UNIT(*) SI_UNIT($,.STERADIAN.) SOLID_ANGLE_UNIT() );
#390 = UNCERTAINTY_MEASURE_WITH_UNIT(LENGTH_MEASURE(1.E-07),#387,
  'distance_accuracy_value','confusion accuracy');
#391 = CONTEXT_DEPENDENT_SHAPE_REPRESENTATION(#392,#394);
#392 = ( REPRESENTATION_RELATIONSHIP('','',#287,#10) 
REPRESENTATION_RELATIONSHIP_WITH_TRANSFORMATION(#393) 
SHAPE_REPRESENTATION_RELATIONSHIP() );
#393 = ITEM_DEFINED_TRANSFORMATION('','',#11,#19);
#394 = PRODUCT_DEFINITION_SHAPE('Placement','Placement of an item',#395
  );
#395 = NEXT_ASSEMBLY_USAGE_OCCURRENCE('2','dowel001','',#5,#282,$);
#396 = PRODUCT_RELATED_PRODUCT_CATEGORY('part',$,(#284));
#397 = SHAPE_DEFINITION_REPRESENTATION(#398,#404);
#398 = PRODUCT_DEFINITION_SHAPE('','',#399);
#399 = PRODUCT_DEFINITION('design','',#400,#403);
#400 = PRODUCT_DEFINITION_FORMATION('','',#401);
#401 = PRODUCT('plank02','plank02','',(#402));
#402 = PRODUCT_CONTEXT('',#2,'mechanical');
#403 = PRODUCT_DEFINITION_CONTEXT('part definition',#2,'design');
#404 = ADVANCED_BREP_SHAPE_REPRESENTATION('',(#11,#405),#775);
#405 = MANIFOLD_SOLID_BREP('',#406);
#406 = CLOSED_SHELL('',(#407,#469,#500,#524,#548,#565,#590,#615,#667,
    #698,#722,#746,#763));
#407 = ADVANCED_FACE('',(#408,#442,#453),#464,.F.);
#408 = FACE_BOUND('',#409,.F.);
#409 = EDGE_LOOP('',(#410,#420,#428,#436));
#410 = ORIENTED_EDGE('',*,*,#411,.T.);
#411 = EDGE_CURVE('',#412,#414,#416,.T.);
#412 = VERTEX_POINT('',#413);
#413 = CARTESIAN_POINT('',(0.,0.,0.));
#414 = VERTEX_POINT('',#415);
#415 = CARTESIAN_POINT('',(304.8,-2.030375867434E-13,1.015187933717E-13)
  );
#416 = LINE('',#417,#418);
#417 = CARTESIAN_POINT('',(0.,0.,0.));
#418 = VECTOR('',#419,1.);
#419 = DIRECTION('',(1.,-1.110223024625E-15,-1.110223024625E-16));
#420 = ORIENTED_EDGE('',*,*,#421,.T.);
#421 = EDGE_CURVE('',#414,#422,#424,.T.);
#422 = VERTEX_POINT('',#423);
#423 = CARTESIAN_POINT('',(304.8,152.4,-5.075939668586E-14));
#424 = LINE('',#425,#426);
#425 = CARTESIAN_POINT('',(304.8,-2.030375867434E-13,-5.684341886081E-13
    ));
#426 = VECTOR('',#427,1.);
#427 = DIRECTION('',(-6.661338147751E-16,1.,-1.665334536938E-15));
#428 = ORIENTED_EDGE('',*,*,#429,.F.);
#429 = EDGE_CURVE('',#430,#422,#432,.T.);
#430 = VERTEX_POINT('',#431);
#431 = CARTESIAN_POINT('',(6.310887241768E-29,152.4,-1.522781900576E-13)
  );
#432 = LINE('',#433,#434);
#433 = CARTESIAN_POINT('',(-6.767919558115E-14,152.4,-2.199573856387E-13
    ));
#434 = VECTOR('',#435,1.);
#435 = DIRECTION('',(1.,-1.110223024625E-15,-1.110223024625E-16));
#436 = ORIENTED_EDGE('',*,*,#437,.F.);
#437 = EDGE_CURVE('',#412,#430,#438,.T.);
#438 = LINE('',#439,#440);
#439 = CARTESIAN_POINT('',(0.,0.,0.));
#440 = VECTOR('',#441,1.);
#441 = DIRECTION('',(-6.661338147751E-16,1.,-1.665334536938E-15));
#442 = FACE_BOUND('',#443,.F.);
#443 = EDGE_LOOP('',(#444));
#444 = ORIENTED_EDGE('',*,*,#445,.F.);
#445 = EDGE_CURVE('',#446,#446,#448,.T.);
#446 = VERTEX_POINT('',#447);
#447 = CARTESIAN_POINT('',(38.1,25.4,-1.844080443902E-14));
#448 = CIRCLE('',#449,12.7);
#449 = AXIS2_PLACEMENT_3D('',#450,#451,#452);
#450 = CARTESIAN_POINT('',(38.1,38.1,-3.959055305813E-14));
#451 = DIRECTION('',(1.110223024625E-16,5.551115123126E-16,1.));
#452 = DIRECTION('',(4.440892098501E-16,-1.,5.551115123126E-16));
#453 = FACE_BOUND('',#454,.F.);
#454 = EDGE_LOOP('',(#455));
#455 = ORIENTED_EDGE('',*,*,#456,.F.);
#456 = EDGE_CURVE('',#457,#457,#459,.T.);
#457 = VERTEX_POINT('',#458);
#458 = CARTESIAN_POINT('',(38.1,114.3,-4.805045250578E-14));
#459 = CIRCLE('',#460,12.7);
#460 = AXIS2_PLACEMENT_3D('',#461,#462,#463);
#461 = CARTESIAN_POINT('',(38.1,127.,-8.893996650272E-14));
#462 = DIRECTION('',(1.110223024625E-16,5.551115123126E-16,1.));
#463 = DIRECTION('',(4.440892098501E-16,-1.,5.551115123126E-16));
#464 = PLANE('',#465);
#465 = AXIS2_PLACEMENT_3D('',#466,#467,#468);
#466 = CARTESIAN_POINT('',(0.,0.,0.));
#467 = DIRECTION('',(-1.221245327088E-15,1.110223024625E-16,1.));
#468 = DIRECTION('',(-4.440892098501E-16,1.,-1.443289932013E-15));
#469 = ADVANCED_FACE('',(#470),#495,.F.);
#470 = FACE_BOUND('',#471,.F.);
#471 = EDGE_LOOP('',(#472,#482,#488,#489));
#472 = ORIENTED_EDGE('',*,*,#473,.T.);
#473 = EDGE_CURVE('',#474,#476,#478,.T.);
#474 = VERTEX_POINT('',#475);
#475 = CARTESIAN_POINT('',(-2.537969834293E-14,8.459899447644E-15,25.4)
  );
#476 = VERTEX_POINT('',#477);
#477 = CARTESIAN_POINT('',(304.8,-1.945776872958E-13,25.4));
#478 = LINE('',#479,#480);
#479 = CARTESIAN_POINT('',(-3.665956427312E-14,-2.819966482548E-15,25.4)
  );
#480 = VECTOR('',#481,1.);
#481 = DIRECTION('',(1.,-1.110223024625E-15,-1.110223024625E-16));
#482 = ORIENTED_EDGE('',*,*,#483,.T.);
#483 = EDGE_CURVE('',#476,#414,#484,.T.);
#484 = LINE('',#485,#486);
#485 = CARTESIAN_POINT('',(304.8,-2.114974861911E-13,25.4));
#486 = VECTOR('',#487,1.);
#487 = DIRECTION('',(1.665334536938E-15,3.330669073875E-16,-1.));
#488 = ORIENTED_EDGE('',*,*,#411,.F.);
#489 = ORIENTED_EDGE('',*,*,#490,.F.);
#490 = EDGE_CURVE('',#474,#412,#491,.T.);
#491 = LINE('',#492,#493);
#492 = CARTESIAN_POINT('',(-4.229949723822E-14,-8.459899447644E-15,25.4)
  );
#493 = VECTOR('',#494,1.);
#494 = DIRECTION('',(1.665334536938E-15,3.330669073875E-16,-1.));
#495 = PLANE('',#496);
#496 = AXIS2_PLACEMENT_3D('',#497,#498,#499);
#497 = CARTESIAN_POINT('',(-3.665956427312E-14,-2.819966482548E-15,25.4)
  );
#498 = DIRECTION('',(-2.22044604925E-16,1.,-1.221245327088E-15));
#499 = DIRECTION('',(1.443289932013E-15,1.110223024625E-16,-1.));
#500 = ADVANCED_FACE('',(#501),#519,.F.);
#501 = FACE_BOUND('',#502,.F.);
#502 = EDGE_LOOP('',(#503,#504,#512,#518));
#503 = ORIENTED_EDGE('',*,*,#437,.T.);
#504 = ORIENTED_EDGE('',*,*,#505,.T.);
#505 = EDGE_CURVE('',#430,#506,#508,.T.);
#506 = VERTEX_POINT('',#507);
#507 = CARTESIAN_POINT('',(-2.537969834293E-14,152.4,25.4));
#508 = LINE('',#509,#510);
#509 = CARTESIAN_POINT('',(-1.015187933717E-13,152.4,-2.537969834293E-13
    ));
#510 = VECTOR('',#511,1.);
#511 = DIRECTION('',(-1.665334536938E-15,-3.330669073875E-16,1.));
#512 = ORIENTED_EDGE('',*,*,#513,.T.);
#513 = EDGE_CURVE('',#506,#474,#514,.T.);
#514 = LINE('',#515,#516);
#515 = CARTESIAN_POINT('',(-1.438182906099E-13,152.4,25.4));
#516 = VECTOR('',#517,1.);
#517 = DIRECTION('',(6.661338147751E-16,-1.,1.665334536938E-15));
#518 = ORIENTED_EDGE('',*,*,#490,.T.);
#519 = PLANE('',#520);
#520 = AXIS2_PLACEMENT_3D('',#521,#522,#523);
#521 = CARTESIAN_POINT('',(-7.190914530497E-14,76.2,12.7));
#522 = DIRECTION('',(1.,-1.33226762955E-15,-3.330669073875E-16));
#523 = DIRECTION('',(-1.665334536938E-15,-3.330669073875E-16,1.));
#524 = ADVANCED_FACE('',(#525),#543,.T.);
#525 = FACE_BOUND('',#526,.T.);
#526 = EDGE_LOOP('',(#527,#528,#536,#542));
#527 = ORIENTED_EDGE('',*,*,#421,.T.);
#528 = ORIENTED_EDGE('',*,*,#529,.T.);
#529 = EDGE_CURVE('',#422,#530,#532,.T.);
#530 = VERTEX_POINT('',#531);
#531 = CARTESIAN_POINT('',(304.8,152.4,25.4));
#532 = LINE('',#533,#534);
#533 = CARTESIAN_POINT('',(304.8,152.4,-7.958078640513E-13));
#534 = VECTOR('',#535,1.);
#535 = DIRECTION('',(-1.665334536938E-15,-3.330669073875E-16,1.));
#536 = ORIENTED_EDGE('',*,*,#537,.T.);
#537 = EDGE_CURVE('',#530,#476,#538,.T.);
#538 = LINE('',#539,#540);
#539 = CARTESIAN_POINT('',(304.8,152.4,25.399999999999));
#540 = VECTOR('',#541,1.);
#541 = DIRECTION('',(6.661338147751E-16,-1.,1.665334536938E-15));
#542 = ORIENTED_EDGE('',*,*,#483,.T.);
#543 = PLANE('',#544);
#544 = AXIS2_PLACEMENT_3D('',#545,#546,#547);
#545 = CARTESIAN_POINT('',(304.8,76.2,12.699999999999));
#546 = DIRECTION('',(1.,-1.33226762955E-15,-3.330669073875E-16));
#547 = DIRECTION('',(-1.665334536938E-15,-3.330669073875E-16,1.));
#548 = ADVANCED_FACE('',(#549),#560,.F.);
#549 = FACE_BOUND('',#550,.F.);
#550 = EDGE_LOOP('',(#551,#552,#553,#559));
#551 = ORIENTED_EDGE('',*,*,#429,.T.);
#552 = ORIENTED_EDGE('',*,*,#529,.T.);
#553 = ORIENTED_EDGE('',*,*,#554,.F.);
#554 = EDGE_CURVE('',#506,#530,#555,.T.);
#555 = LINE('',#556,#557);
#556 = CARTESIAN_POINT('',(-1.043387598543E-13,152.4,25.4));
#557 = VECTOR('',#558,1.);
#558 = DIRECTION('',(1.,-1.110223024625E-15,-1.110223024625E-16));
#559 = ORIENTED_EDGE('',*,*,#505,.F.);
#560 = PLANE('',#561);
#561 = AXIS2_PLACEMENT_3D('',#562,#563,#564);
#562 = CARTESIAN_POINT('',(-6.767919558115E-14,152.4,-2.199573856387E-13
    ));
#563 = DIRECTION('',(2.22044604925E-16,-1.,1.221245327088E-15));
#564 = DIRECTION('',(-1.443289932013E-15,-1.110223024625E-16,1.));
#565 = ADVANCED_FACE('',(#566),#585,.F.);
#566 = FACE_BOUND('',#567,.F.);
#567 = EDGE_LOOP('',(#568,#576,#577,#578));
#568 = ORIENTED_EDGE('',*,*,#569,.T.);
#569 = EDGE_CURVE('',#570,#446,#572,.T.);
#570 = VERTEX_POINT('',#571);
#571 = CARTESIAN_POINT('',(38.1,25.4,25.4));
#572 = LINE('',#573,#574);
#573 = CARTESIAN_POINT('',(38.1,25.4,25.4));
#574 = VECTOR('',#575,1.);
#575 = DIRECTION('',(3.330669073875E-16,-1.110223024625E-16,-1.));
#576 = ORIENTED_EDGE('',*,*,#445,.T.);
#577 = ORIENTED_EDGE('',*,*,#569,.F.);
#578 = ORIENTED_EDGE('',*,*,#579,.F.);
#579 = EDGE_CURVE('',#570,#570,#580,.T.);
#580 = CIRCLE('',#581,12.7);
#581 = AXIS2_PLACEMENT_3D('',#582,#583,#584);
#582 = CARTESIAN_POINT('',(38.1,38.1,25.4));
#583 = DIRECTION('',(1.110223024625E-16,5.551115123126E-16,1.));
#584 = DIRECTION('',(4.440892098501E-16,-1.,5.551115123126E-16));
#585 = CYLINDRICAL_SURFACE('',#586,12.7);
#586 = AXIS2_PLACEMENT_3D('',#587,#588,#589);
#587 = CARTESIAN_POINT('',(38.1,38.1,25.4));
#588 = DIRECTION('',(-1.110223024625E-16,3.330669073875E-16,1.));
#589 = DIRECTION('',(2.22044604925E-16,-1.,3.330669073875E-16));
#590 = ADVANCED_FACE('',(#591),#610,.F.);
#591 = FACE_BOUND('',#592,.F.);
#592 = EDGE_LOOP('',(#593,#601,#602,#603));
#593 = ORIENTED_EDGE('',*,*,#594,.T.);
#594 = EDGE_CURVE('',#595,#457,#597,.T.);
#595 = VERTEX_POINT('',#596);
#596 = CARTESIAN_POINT('',(38.1,114.3,25.4));
#597 = LINE('',#598,#599);
#598 = CARTESIAN_POINT('',(38.1,114.3,25.4));
#599 = VECTOR('',#600,1.);
#600 = DIRECTION('',(3.330669073875E-16,-1.110223024625E-16,-1.));
#601 = ORIENTED_EDGE('',*,*,#456,.T.);
#602 = ORIENTED_EDGE('',*,*,#594,.F.);
#603 = ORIENTED_EDGE('',*,*,#604,.F.);
#604 = EDGE_CURVE('',#595,#595,#605,.T.);
#605 = CIRCLE('',#606,12.7);
#606 = AXIS2_PLACEMENT_3D('',#607,#608,#609);
#607 = CARTESIAN_POINT('',(38.1,127.,25.4));
#608 = DIRECTION('',(1.110223024625E-16,5.551115123126E-16,1.));
#609 = DIRECTION('',(4.440892098501E-16,-1.,5.551115123126E-16));
#610 = CYLINDRICAL_SURFACE('',#611,12.7);
#611 = AXIS2_PLACEMENT_3D('',#612,#613,#614);
#612 = CARTESIAN_POINT('',(38.1,127.,25.4));
#613 = DIRECTION('',(-1.110223024625E-16,3.330669073875E-16,1.));
#614 = DIRECTION('',(2.22044604925E-16,-1.,3.330669073875E-16));
#615 = ADVANCED_FACE('',(#616,#622,#656,#659),#662,.F.);
#616 = FACE_BOUND('',#617,.F.);
#617 = EDGE_LOOP('',(#618,#619,#620,#621));
#618 = ORIENTED_EDGE('',*,*,#554,.T.);
#619 = ORIENTED_EDGE('',*,*,#537,.T.);
#620 = ORIENTED_EDGE('',*,*,#473,.F.);
#621 = ORIENTED_EDGE('',*,*,#513,.F.);
#622 = FACE_BOUND('',#623,.F.);
#623 = EDGE_LOOP('',(#624,#634,#642,#650));
#624 = ORIENTED_EDGE('',*,*,#625,.T.);
#625 = EDGE_CURVE('',#626,#628,#630,.T.);
#626 = VERTEX_POINT('',#627);
#627 = CARTESIAN_POINT('',(292.1,6.35,25.4));
#628 = VERTEX_POINT('',#629);
#629 = CARTESIAN_POINT('',(292.1,146.05,25.4));
#630 = LINE('',#631,#632);
#631 = CARTESIAN_POINT('',(292.1,6.35,25.4));
#632 = VECTOR('',#633,1.);
#633 = DIRECTION('',(-6.661338147751E-16,1.,-1.110223024625E-15));
#634 = ORIENTED_EDGE('',*,*,#635,.T.);
#635 = EDGE_CURVE('',#628,#636,#638,.T.);
#636 = VERTEX_POINT('',#637);
#637 = CARTESIAN_POINT('',(266.7,146.05,25.4));
#638 = LINE('',#639,#640);
#639 = CARTESIAN_POINT('',(292.1,146.05,25.4));
#640 = VECTOR('',#641,1.);
#641 = DIRECTION('',(-1.,6.661338147751E-16,2.22044604925E-16));
#642 = ORIENTED_EDGE('',*,*,#643,.T.);
#643 = EDGE_CURVE('',#636,#644,#646,.T.);
#644 = VERTEX_POINT('',#645);
#645 = CARTESIAN_POINT('',(266.7,6.35,25.4));
#646 = LINE('',#647,#648);
#647 = CARTESIAN_POINT('',(266.7,146.05,25.4));
#648 = VECTOR('',#649,1.);
#649 = DIRECTION('',(6.661338147751E-16,-1.,1.110223024625E-15));
#650 = ORIENTED_EDGE('',*,*,#651,.T.);
#651 = EDGE_CURVE('',#644,#626,#652,.T.);
#652 = LINE('',#653,#654);
#653 = CARTESIAN_POINT('',(266.7,6.35,25.4));
#654 = VECTOR('',#655,1.);
#655 = DIRECTION('',(1.,-6.661338147751E-16,-2.22044604925E-16));
#656 = FACE_BOUND('',#657,.F.);
#657 = EDGE_LOOP('',(#658));
#658 = ORIENTED_EDGE('',*,*,#604,.T.);
#659 = FACE_BOUND('',#660,.F.);
#660 = EDGE_LOOP('',(#661));
#661 = ORIENTED_EDGE('',*,*,#579,.T.);
#662 = PLANE('',#663);
#663 = AXIS2_PLACEMENT_3D('',#664,#665,#666);
#664 = CARTESIAN_POINT('',(-1.043387598543E-13,152.4,25.4));
#665 = DIRECTION('',(1.221245327088E-15,-1.110223024625E-16,-1.));
#666 = DIRECTION('',(4.440892098501E-16,-1.,1.443289932013E-15));
#667 = ADVANCED_FACE('',(#668),#693,.F.);
#668 = FACE_BOUND('',#669,.F.);
#669 = EDGE_LOOP('',(#670,#678,#686,#692));
#670 = ORIENTED_EDGE('',*,*,#671,.T.);
#671 = EDGE_CURVE('',#626,#672,#674,.T.);
#672 = VERTEX_POINT('',#673);
#673 = CARTESIAN_POINT('',(292.1,6.35,38.1));
#674 = LINE('',#675,#676);
#675 = CARTESIAN_POINT('',(292.1,6.35,25.4));
#676 = VECTOR('',#677,1.);
#677 = DIRECTION('',(-8.881784197001E-16,2.958228394579E-31,1.));
#678 = ORIENTED_EDGE('',*,*,#679,.T.);
#679 = EDGE_CURVE('',#672,#680,#682,.T.);
#680 = VERTEX_POINT('',#681);
#681 = CARTESIAN_POINT('',(292.1,146.05,38.1));
#682 = LINE('',#683,#684);
#683 = CARTESIAN_POINT('',(292.1,6.35,38.1));
#684 = VECTOR('',#685,1.);
#685 = DIRECTION('',(-6.661338147751E-16,1.,-1.110223024625E-15));
#686 = ORIENTED_EDGE('',*,*,#687,.F.);
#687 = EDGE_CURVE('',#628,#680,#688,.T.);
#688 = LINE('',#689,#690);
#689 = CARTESIAN_POINT('',(292.1,146.05,25.4));
#690 = VECTOR('',#691,1.);
#691 = DIRECTION('',(-8.881784197001E-16,2.958228394579E-31,1.));
#692 = ORIENTED_EDGE('',*,*,#625,.F.);
#693 = PLANE('',#694);
#694 = AXIS2_PLACEMENT_3D('',#695,#696,#697);
#695 = CARTESIAN_POINT('',(292.1,6.35,25.4));
#696 = DIRECTION('',(-1.,2.22044604925E-16,-2.22044604925E-16));
#697 = DIRECTION('',(-4.440892098501E-16,1.,-8.881784197001E-16));
#698 = ADVANCED_FACE('',(#699),#717,.F.);
#699 = FACE_BOUND('',#700,.F.);
#700 = EDGE_LOOP('',(#701,#709,#715,#716));
#701 = ORIENTED_EDGE('',*,*,#702,.T.);
#702 = EDGE_CURVE('',#644,#703,#705,.T.);
#703 = VERTEX_POINT('',#704);
#704 = CARTESIAN_POINT('',(266.7,6.35,38.1));
#705 = LINE('',#706,#707);
#706 = CARTESIAN_POINT('',(266.7,6.35,25.4));
#707 = VECTOR('',#708,1.);
#708 = DIRECTION('',(-8.881784197001E-16,2.958228394579E-31,1.));
#709 = ORIENTED_EDGE('',*,*,#710,.T.);
#710 = EDGE_CURVE('',#703,#672,#711,.T.);
#711 = LINE('',#712,#713);
#712 = CARTESIAN_POINT('',(266.7,6.35,38.1));
#713 = VECTOR('',#714,1.);
#714 = DIRECTION('',(1.,-6.661338147751E-16,-2.22044604925E-16));
#715 = ORIENTED_EDGE('',*,*,#671,.F.);
#716 = ORIENTED_EDGE('',*,*,#651,.F.);
#717 = PLANE('',#718);
#718 = AXIS2_PLACEMENT_3D('',#719,#720,#721);
#719 = CARTESIAN_POINT('',(266.7,6.35,25.4));
#720 = DIRECTION('',(-2.22044604925E-16,1.,-6.661338147751E-16));
#721 = DIRECTION('',(1.,-4.440892098501E-16,1.60237371373E-31));
#722 = ADVANCED_FACE('',(#723),#741,.F.);
#723 = FACE_BOUND('',#724,.F.);
#724 = EDGE_LOOP('',(#725,#726,#734,#740));
#725 = ORIENTED_EDGE('',*,*,#687,.T.);
#726 = ORIENTED_EDGE('',*,*,#727,.T.);
#727 = EDGE_CURVE('',#680,#728,#730,.T.);
#728 = VERTEX_POINT('',#729);
#729 = CARTESIAN_POINT('',(266.7,146.05,38.1));
#730 = LINE('',#731,#732);
#731 = CARTESIAN_POINT('',(292.1,146.05,38.1));
#732 = VECTOR('',#733,1.);
#733 = DIRECTION('',(-1.,6.661338147751E-16,2.22044604925E-16));
#734 = ORIENTED_EDGE('',*,*,#735,.F.);
#735 = EDGE_CURVE('',#636,#728,#736,.T.);
#736 = LINE('',#737,#738);
#737 = CARTESIAN_POINT('',(266.7,146.05,25.4));
#738 = VECTOR('',#739,1.);
#739 = DIRECTION('',(-8.881784197001E-16,2.958228394579E-31,1.));
#740 = ORIENTED_EDGE('',*,*,#635,.F.);
#741 = PLANE('',#742);
#742 = AXIS2_PLACEMENT_3D('',#743,#744,#745);
#743 = CARTESIAN_POINT('',(292.1,146.05,25.4));
#744 = DIRECTION('',(2.22044604925E-16,-1.,6.661338147751E-16));
#745 = DIRECTION('',(-1.,4.440892098501E-16,-1.60237371373E-31));
#746 = ADVANCED_FACE('',(#747),#758,.F.);
#747 = FACE_BOUND('',#748,.F.);
#748 = EDGE_LOOP('',(#749,#750,#756,#757));
#749 = ORIENTED_EDGE('',*,*,#735,.T.);
#750 = ORIENTED_EDGE('',*,*,#751,.T.);
#751 = EDGE_CURVE('',#728,#703,#752,.T.);
#752 = LINE('',#753,#754);
#753 = CARTESIAN_POINT('',(266.7,146.05,38.1));
#754 = VECTOR('',#755,1.);
#755 = DIRECTION('',(6.661338147751E-16,-1.,1.110223024625E-15));
#756 = ORIENTED_EDGE('',*,*,#702,.F.);
#757 = ORIENTED_EDGE('',*,*,#643,.F.);
#758 = PLANE('',#759);
#759 = AXIS2_PLACEMENT_3D('',#760,#761,#762);
#760 = CARTESIAN_POINT('',(266.7,146.05,25.4));
#761 = DIRECTION('',(1.,-2.22044604925E-16,2.22044604925E-16));
#762 = DIRECTION('',(4.440892098501E-16,-1.,8.881784197001E-16));
#763 = ADVANCED_FACE('',(#764),#770,.T.);
#764 = FACE_BOUND('',#765,.T.);
#765 = EDGE_LOOP('',(#766,#767,#768,#769));
#766 = ORIENTED_EDGE('',*,*,#727,.T.);
#767 = ORIENTED_EDGE('',*,*,#751,.T.);
#768 = ORIENTED_EDGE('',*,*,#710,.T.);
#769 = ORIENTED_EDGE('',*,*,#679,.T.);
#770 = PLANE('',#771);
#771 = AXIS2_PLACEMENT_3D('',#772,#773,#774);
#772 = CARTESIAN_POINT('',(279.4,76.2,38.1));
#773 = DIRECTION('',(-1.110223024625E-15,-2.22044604925E-16,1.));
#774 = DIRECTION('',(1.,-8.881784197001E-16,-2.22044604925E-16));
#775 = ( GEOMETRIC_REPRESENTATION_CONTEXT(3) 
GLOBAL_UNCERTAINTY_ASSIGNED_CONTEXT((#779)) GLOBAL_UNIT_ASSIGNED_CONTEXT
((#776,#777,#778)) REPRESENTATION_CONTEXT('Context #1',
  '3D Context with UNIT and UNCERTAINTY') );
#776 = ( LENGTH_UNIT() NAMED_UNIT(*) SI_UNIT(.MILLI.,.METRE.) );
#777 = ( NAMED_UNIT(*) PLANE_ANGLE_UNIT() SI_UNIT($,.RADIAN.) );
#778 = ( NAMED_UNIT(*) SI_UNIT($,.STERADIAN.) SOLID_ANGLE_UNIT() );
#779 = UNCERTAINTY_MEASURE_WITH_UNIT(LENGTH_MEASURE(1.E-07),#776,
  'distance_accuracy_value','confusion accuracy');
#780 = CONTEXT_DEPENDENT_SHAPE_REPRESENTATION(#781,#783);
#781 = ( REPRESENTATION_RELATIONSHIP('','',#404,#10) 
REPRESENTATION_RELATIONSHIP_WITH_TRANSFORMATION(#782) 
SHAPE_REPRESENTATION_RELATIONSHIP() );
#782 = ITEM_DEFINED_TRANSFORMATION('','',#11,#23);
#783 = PRODUCT_DEFINITION_SHAPE('Placement','Placement of an item',#784
  );
#784 = NEXT_ASSEMBLY_USAGE_OCCURRENCE('3','plank002','',#5,#399,$);
#785 = PRODUCT_RELATED_PRODUCT_CATEGORY('part',$,(#401));
#786 = MECHANICAL_DESIGN_GEOMETRIC_PRESENTATION_REPRESENTATION('',(#787)
  ,#775);
#787 = STYLED_ITEM('color',(#788),#405);
#788 = PRESENTATION_STYLE_ASSIGNMENT((#789,#795));
#789 = SURFACE_STYLE_USAGE(.BOTH.,#790);
#790 = SURFACE_SIDE_STYLE('',(#791));
#791 = SURFACE_STYLE_FILL_AREA(#792);
#792 = FILL_AREA_STYLE('',(#793));
#793 = FILL_AREA_STYLE_COLOUR('',#794);
#794 = COLOUR_RGB('',0.666666687201,0.666666687201,0.498039215105);
#795 = CURVE_STYLE('',#796,POSITIVE_LENGTH_MEASURE(0.1),#797);
#796 = DRAUGHTING_PRE_DEFINED_CURVE_FONT('continuous');
#797 = COLOUR_RGB('',9.803921802644E-02,9.803921802644E-02,
  9.803921802644E-02);
#798 = MECHANICAL_DESIGN_GEOMETRIC_PRESENTATION_REPRESENTATION('',(#799)
  ,#386);
#799 = STYLED_ITEM('color',(#800),#288);
#800 = PRESENTATION_STYLE_ASSIGNMENT((#801,#807));
#801 = SURFACE_STYLE_USAGE(.BOTH.,#802);
#802 = SURFACE_SIDE_STYLE('',(#803));
#803 = SURFACE_STYLE_FILL_AREA(#804);
#804 = FILL_AREA_STYLE('',(#805));
#805 = FILL_AREA_STYLE_COLOUR('',#806);
#806 = COLOUR_RGB('',1.,0.666666687201,0.498039215105);
#807 = CURVE_STYLE('',#808,POSITIVE_LENGTH_MEASURE(0.1),#797);
#808 = DRAUGHTING_PRE_DEFINED_CURVE_FONT('continuous');
#809 = MECHANICAL_DESIGN_GEOMETRIC_PRESENTATION_REPRESENTATION('',(#810)
  ,#269);
#810 = STYLED_ITEM('color',(#811),#41);
#811 = PRESENTATION_STYLE_ASSIGNMENT((#812,#818));
#812 = SURFACE_STYLE_USAGE(.BOTH.,#813);
#813 = SURFACE_SIDE_STYLE('',(#814));
#814 = SURFACE_STYLE_FILL_AREA(#815);
#815 = FILL_AREA_STYLE('',(#816));
#816 = FILL_AREA_STYLE_COLOUR('',#817);
#817 = COLOUR_RGB('',0.666666687201,0.666666687201,1.);
#818 = CURVE_STYLE('',#819,POSITIVE_LENGTH_MEASURE(0.1),#797);
#819 = DRAUGHTING_PRE_DEFINED_CURVE_FONT('continuous');
ENDSEC;
END-ISO-10303-21;
