ISO-10303-21;
HEADER;
FILE_DESCRIPTION(('FreeCAD Model'),'2;1');
FILE_NAME('Open CASCADE Shape Model','2026-06-21T21:39:45',('Author'),(
    ''),'Open CASCADE STEP processor 7.8','FreeCAD','Unknown');
FILE_SCHEMA(('AUTOMOTIVE_DESIGN { 1 0 10303 214 1 1 1 1 }'));
ENDSEC;
DATA;
#1 = APPLICATION_PROTOCOL_DEFINITION('international standard',
  'automotive_design',2000,#2);
#2 = APPLICATION_CONTEXT(
  'core data for automotive mechanical design processes');
#3 = SHAPE_DEFINITION_REPRESENTATION(#4,#10);
#4 = PRODUCT_DEFINITION_SHAPE('','',#5);
#5 = PRODUCT_DEFINITION('design','',#6,#9);
#6 = PRODUCT_DEFINITION_FORMATION('','',#7);
#7 = PRODUCT('materialsTest','materialsTest','',(#8));
#8 = PRODUCT_CONTEXT('',#2,'mechanical');
#9 = PRODUCT_DEFINITION_CONTEXT('part definition',#2,'design');
#10 = SHAPE_REPRESENTATION('',(#11,#15,#19,#23,#27),#31);
#11 = AXIS2_PLACEMENT_3D('',#12,#13,#14);
#12 = CARTESIAN_POINT('',(0.,0.,0.));
#13 = DIRECTION('',(0.,0.,1.));
#14 = DIRECTION('',(1.,0.,-0.));
#15 = AXIS2_PLACEMENT_3D('',#16,#17,#18);
#16 = CARTESIAN_POINT('',(0.,0.,0.));
#17 = DIRECTION('',(0.,0.,1.));
#18 = DIRECTION('',(1.,0.,0.));
#19 = AXIS2_PLACEMENT_3D('',#20,#21,#22);
#20 = CARTESIAN_POINT('',(0.,0.,0.));
#21 = DIRECTION('',(0.,0.,1.));
#22 = DIRECTION('',(1.,0.,0.));
#23 = AXIS2_PLACEMENT_3D('',#24,#25,#26);
#24 = CARTESIAN_POINT('',(0.,0.,0.));
#25 = DIRECTION('',(0.,0.,1.));
#26 = DIRECTION('',(1.,0.,0.));
#27 = AXIS2_PLACEMENT_3D('',#28,#29,#30);
#28 = CARTESIAN_POINT('',(0.,0.,0.));
#29 = DIRECTION('',(0.,0.,1.));
#30 = DIRECTION('',(1.,0.,0.));
#31 = ( GEOMETRIC_REPRESENTATION_CONTEXT(3) 
GLOBAL_UNCERTAINTY_ASSIGNED_CONTEXT((#38)) GLOBAL_UNIT_ASSIGNED_CONTEXT(
(#32,#36,#37)) REPRESENTATION_CONTEXT('Context #1',
  '3D Context with UNIT and UNCERTAINTY') );
#32 = ( CONVERSION_BASED_UNIT('INCH',#34) LENGTH_UNIT() NAMED_UNIT(#33) 
  );
#33 = DIMENSIONAL_EXPONENTS(1.,0.,0.,0.,0.,0.,0.);
#34 = LENGTH_MEASURE_WITH_UNIT(25.4,#35);
#35 = ( LENGTH_UNIT() NAMED_UNIT(*) SI_UNIT(.MILLI.,.METRE.) );
#36 = ( NAMED_UNIT(*) PLANE_ANGLE_UNIT() SI_UNIT($,.RADIAN.) );
#37 = ( NAMED_UNIT(*) SI_UNIT($,.STERADIAN.) SOLID_ANGLE_UNIT() );
#38 = UNCERTAINTY_MEASURE_WITH_UNIT(LENGTH_MEASURE(1.E-07),#32,
  'distance_accuracy_value','confusion accuracy');
#39 = PRODUCT_RELATED_PRODUCT_CATEGORY('part',$,(#7));
#40 = SHAPE_DEFINITION_REPRESENTATION(#41,#47);
#41 = PRODUCT_DEFINITION_SHAPE('','',#42);
#42 = PRODUCT_DEFINITION('design','',#43,#46);
#43 = PRODUCT_DEFINITION_FORMATION('','',#44);
#44 = PRODUCT('plank01','plank01','',(#45));
#45 = PRODUCT_CONTEXT('',#2,'mechanical');
#46 = PRODUCT_DEFINITION_CONTEXT('part definition',#2,'design');
#47 = ADVANCED_BREP_SHAPE_REPRESENTATION('',(#11,#48),#276);
#48 = MANIFOLD_SOLID_BREP('',#49);
#49 = CLOSED_SHELL('',(#50,#90,#143,#196,#213,#230,#242,#259));
#50 = ADVANCED_FACE('',(#51),#85,.F.);
#51 = FACE_BOUND('',#52,.F.);
#52 = EDGE_LOOP('',(#53,#63,#71,#79));
#53 = ORIENTED_EDGE('',*,*,#54,.T.);
#54 = EDGE_CURVE('',#55,#57,#59,.T.);
#55 = VERTEX_POINT('',#56);
#56 = CARTESIAN_POINT('',(0.,0.,0.));
#57 = VERTEX_POINT('',#58);
#58 = CARTESIAN_POINT('',(0.,-304.8,1.35E-13));
#59 = LINE('',#60,#61);
#60 = CARTESIAN_POINT('',(0.,0.,0.));
#61 = VECTOR('',#62,1.);
#62 = DIRECTION('',(0.,-1.,4.4E-16));
#63 = ORIENTED_EDGE('',*,*,#64,.T.);
#64 = EDGE_CURVE('',#57,#65,#67,.T.);
#65 = VERTEX_POINT('',#66);
#66 = CARTESIAN_POINT('',(0.,-304.8,50.8));
#67 = LINE('',#68,#69);
#68 = CARTESIAN_POINT('',(0.,-304.8,1.136868377216E-13));
#69 = VECTOR('',#70,1.);
#70 = DIRECTION('',(0.,0.,1.));
#71 = ORIENTED_EDGE('',*,*,#72,.F.);
#72 = EDGE_CURVE('',#73,#65,#75,.T.);
#73 = VERTEX_POINT('',#74);
#74 = CARTESIAN_POINT('',(0.,0.,50.8));
#75 = LINE('',#76,#77);
#76 = CARTESIAN_POINT('',(0.,2.256E-14,50.8));
#77 = VECTOR('',#78,1.);
#78 = DIRECTION('',(0.,-1.,4.4E-16));
#79 = ORIENTED_EDGE('',*,*,#80,.F.);
#80 = EDGE_CURVE('',#55,#73,#81,.T.);
#81 = LINE('',#82,#83);
#82 = CARTESIAN_POINT('',(0.,0.,0.));
#83 = VECTOR('',#84,1.);
#84 = DIRECTION('',(0.,0.,1.));
#85 = PLANE('',#86);
#86 = AXIS2_PLACEMENT_3D('',#87,#88,#89);
#87 = CARTESIAN_POINT('',(0.,0.,0.));
#88 = DIRECTION('',(-1.,0.,0.));
#89 = DIRECTION('',(0.,4.4E-16,1.));
#90 = ADVANCED_FACE('',(#91,#116,#127),#138,.F.);
#91 = FACE_BOUND('',#92,.F.);
#92 = EDGE_LOOP('',(#93,#103,#109,#110));
#93 = ORIENTED_EDGE('',*,*,#94,.T.);
#94 = EDGE_CURVE('',#95,#97,#99,.T.);
#95 = VERTEX_POINT('',#96);
#96 = CARTESIAN_POINT('',(-152.4,0.,-0.));
#97 = VERTEX_POINT('',#98);
#98 = CARTESIAN_POINT('',(-152.4,-304.8,1.35E-13));
#99 = LINE('',#100,#101);
#100 = CARTESIAN_POINT('',(-152.4,0.,0.));
#101 = VECTOR('',#102,1.);
#102 = DIRECTION('',(0.,-1.,4.4E-16));
#103 = ORIENTED_EDGE('',*,*,#104,.T.);
#104 = EDGE_CURVE('',#97,#57,#105,.T.);
#105 = LINE('',#106,#107);
#106 = CARTESIAN_POINT('',(-152.4,-304.8,1.136868377216E-13));
#107 = VECTOR('',#108,1.);
#108 = DIRECTION('',(1.,0.,0.));
#109 = ORIENTED_EDGE('',*,*,#54,.F.);
#110 = ORIENTED_EDGE('',*,*,#111,.F.);
#111 = EDGE_CURVE('',#95,#55,#112,.T.);
#112 = LINE('',#113,#114);
#113 = CARTESIAN_POINT('',(-152.4,0.,0.));
#114 = VECTOR('',#115,1.);
#115 = DIRECTION('',(1.,0.,0.));
#116 = FACE_BOUND('',#117,.F.);
#117 = EDGE_LOOP('',(#118));
#118 = ORIENTED_EDGE('',*,*,#119,.F.);
#119 = EDGE_CURVE('',#120,#120,#122,.T.);
#120 = VERTEX_POINT('',#121);
#121 = CARTESIAN_POINT('',(-44.45,-139.7,3.1E-14));
#122 = CIRCLE('',#123,12.7);
#123 = AXIS2_PLACEMENT_3D('',#124,#125,#126);
#124 = CARTESIAN_POINT('',(-31.75,-139.7,0.));
#125 = DIRECTION('',(0.,0.,1.));
#126 = DIRECTION('',(-1.,0.,0.));
#127 = FACE_BOUND('',#128,.F.);
#128 = EDGE_LOOP('',(#129));
#129 = ORIENTED_EDGE('',*,*,#130,.F.);
#130 = EDGE_CURVE('',#131,#131,#133,.T.);
#131 = VERTEX_POINT('',#132);
#132 = CARTESIAN_POINT('',(-44.45,-50.8,1.1E-14));
#133 = CIRCLE('',#134,12.7);
#134 = AXIS2_PLACEMENT_3D('',#135,#136,#137);
#135 = CARTESIAN_POINT('',(-31.75,-50.8,0.));
#136 = DIRECTION('',(0.,0.,1.));
#137 = DIRECTION('',(-1.,0.,0.));
#138 = PLANE('',#139);
#139 = AXIS2_PLACEMENT_3D('',#140,#141,#142);
#140 = CARTESIAN_POINT('',(-152.4,0.,0.));
#141 = DIRECTION('',(0.,4.4E-16,1.));
#142 = DIRECTION('',(1.,0.,0.));
#143 = ADVANCED_FACE('',(#144,#169,#180),#191,.F.);
#144 = FACE_BOUND('',#145,.F.);
#145 = EDGE_LOOP('',(#146,#147,#155,#163));
#146 = ORIENTED_EDGE('',*,*,#72,.T.);
#147 = ORIENTED_EDGE('',*,*,#148,.T.);
#148 = EDGE_CURVE('',#65,#149,#151,.T.);
#149 = VERTEX_POINT('',#150);
#150 = CARTESIAN_POINT('',(-152.4,-304.8,50.8));
#151 = LINE('',#152,#153);
#152 = CARTESIAN_POINT('',(0.,-304.8,50.8));
#153 = VECTOR('',#154,1.);
#154 = DIRECTION('',(-1.,0.,0.));
#155 = ORIENTED_EDGE('',*,*,#156,.F.);
#156 = EDGE_CURVE('',#157,#149,#159,.T.);
#157 = VERTEX_POINT('',#158);
#158 = CARTESIAN_POINT('',(-152.4,0.,50.8));
#159 = LINE('',#160,#161);
#160 = CARTESIAN_POINT('',(-152.4,2.256E-14,50.8));
#161 = VECTOR('',#162,1.);
#162 = DIRECTION('',(0.,-1.,4.4E-16));
#163 = ORIENTED_EDGE('',*,*,#164,.F.);
#164 = EDGE_CURVE('',#73,#157,#165,.T.);
#165 = LINE('',#166,#167);
#166 = CARTESIAN_POINT('',(0.,0.,50.8));
#167 = VECTOR('',#168,1.);
#168 = DIRECTION('',(-1.,0.,0.));
#169 = FACE_BOUND('',#170,.F.);
#170 = EDGE_LOOP('',(#171));
#171 = ORIENTED_EDGE('',*,*,#172,.T.);
#172 = EDGE_CURVE('',#173,#173,#175,.T.);
#173 = VERTEX_POINT('',#174);
#174 = CARTESIAN_POINT('',(-44.45,-139.7,50.8));
#175 = CIRCLE('',#176,12.7);
#176 = AXIS2_PLACEMENT_3D('',#177,#178,#179);
#177 = CARTESIAN_POINT('',(-31.75,-139.7,50.8));
#178 = DIRECTION('',(0.,0.,1.));
#179 = DIRECTION('',(-1.,0.,0.));
#180 = FACE_BOUND('',#181,.F.);
#181 = EDGE_LOOP('',(#182));
#182 = ORIENTED_EDGE('',*,*,#183,.T.);
#183 = EDGE_CURVE('',#184,#184,#186,.T.);
#184 = VERTEX_POINT('',#185);
#185 = CARTESIAN_POINT('',(-44.45,-50.8,50.8));
#186 = CIRCLE('',#187,12.7);
#187 = AXIS2_PLACEMENT_3D('',#188,#189,#190);
#188 = CARTESIAN_POINT('',(-31.75,-50.8,50.8));
#189 = DIRECTION('',(0.,0.,1.));
#190 = DIRECTION('',(-1.,0.,0.));
#191 = PLANE('',#192);
#192 = AXIS2_PLACEMENT_3D('',#193,#194,#195);
#193 = CARTESIAN_POINT('',(0.,2.256E-14,50.8));
#194 = DIRECTION('',(0.,-4.4E-16,-1.));
#195 = DIRECTION('',(-1.,0.,0.));
#196 = ADVANCED_FACE('',(#197),#208,.T.);
#197 = FACE_BOUND('',#198,.F.);
#198 = EDGE_LOOP('',(#199,#200,#201,#207));
#199 = ORIENTED_EDGE('',*,*,#80,.T.);
#200 = ORIENTED_EDGE('',*,*,#164,.T.);
#201 = ORIENTED_EDGE('',*,*,#202,.T.);
#202 = EDGE_CURVE('',#157,#95,#203,.T.);
#203 = LINE('',#204,#205);
#204 = CARTESIAN_POINT('',(-152.4,0.,50.8));
#205 = VECTOR('',#206,1.);
#206 = DIRECTION('',(0.,0.,-1.));
#207 = ORIENTED_EDGE('',*,*,#111,.T.);
#208 = PLANE('',#209);
#209 = AXIS2_PLACEMENT_3D('',#210,#211,#212);
#210 = CARTESIAN_POINT('',(-76.2,5.64E-15,25.4));
#211 = DIRECTION('',(0.,1.,0.));
#212 = DIRECTION('',(0.,0.,1.));
#213 = ADVANCED_FACE('',(#214),#225,.F.);
#214 = FACE_BOUND('',#215,.T.);
#215 = EDGE_LOOP('',(#216,#217,#218,#224));
#216 = ORIENTED_EDGE('',*,*,#64,.T.);
#217 = ORIENTED_EDGE('',*,*,#148,.T.);
#218 = ORIENTED_EDGE('',*,*,#219,.T.);
#219 = EDGE_CURVE('',#149,#97,#220,.T.);
#220 = LINE('',#221,#222);
#221 = CARTESIAN_POINT('',(-152.4,-304.8,50.8));
#222 = VECTOR('',#223,1.);
#223 = DIRECTION('',(0.,0.,-1.));
#224 = ORIENTED_EDGE('',*,*,#104,.T.);
#225 = PLANE('',#226);
#226 = AXIS2_PLACEMENT_3D('',#227,#228,#229);
#227 = CARTESIAN_POINT('',(-76.2,-304.8,25.4));
#228 = DIRECTION('',(0.,1.,0.));
#229 = DIRECTION('',(0.,0.,1.));
#230 = ADVANCED_FACE('',(#231),#237,.F.);
#231 = FACE_BOUND('',#232,.F.);
#232 = EDGE_LOOP('',(#233,#234,#235,#236));
#233 = ORIENTED_EDGE('',*,*,#156,.T.);
#234 = ORIENTED_EDGE('',*,*,#219,.T.);
#235 = ORIENTED_EDGE('',*,*,#94,.F.);
#236 = ORIENTED_EDGE('',*,*,#202,.F.);
#237 = PLANE('',#238);
#238 = AXIS2_PLACEMENT_3D('',#239,#240,#241);
#239 = CARTESIAN_POINT('',(-152.4,2.256E-14,50.8));
#240 = DIRECTION('',(1.,0.,0.));
#241 = DIRECTION('',(0.,-4.4E-16,-1.));
#242 = ADVANCED_FACE('',(#243),#254,.F.);
#243 = FACE_BOUND('',#244,.F.);
#244 = EDGE_LOOP('',(#245,#251,#252,#253));
#245 = ORIENTED_EDGE('',*,*,#246,.T.);
#246 = EDGE_CURVE('',#173,#120,#247,.T.);
#247 = LINE('',#248,#249);
#248 = CARTESIAN_POINT('',(-44.45,-139.7,50.8));
#249 = VECTOR('',#250,1.);
#250 = DIRECTION('',(0.,-2.2E-16,-1.));
#251 = ORIENTED_EDGE('',*,*,#119,.T.);
#252 = ORIENTED_EDGE('',*,*,#246,.F.);
#253 = ORIENTED_EDGE('',*,*,#172,.F.);
#254 = CYLINDRICAL_SURFACE('',#255,12.7);
#255 = AXIS2_PLACEMENT_3D('',#256,#257,#258);
#256 = CARTESIAN_POINT('',(-31.75,-139.7,50.8));
#257 = DIRECTION('',(0.,2.2E-16,1.));
#258 = DIRECTION('',(-1.,0.,0.));
#259 = ADVANCED_FACE('',(#260),#271,.F.);
#260 = FACE_BOUND('',#261,.F.);
#261 = EDGE_LOOP('',(#262,#268,#269,#270));
#262 = ORIENTED_EDGE('',*,*,#263,.T.);
#263 = EDGE_CURVE('',#184,#131,#264,.T.);
#264 = LINE('',#265,#266);
#265 = CARTESIAN_POINT('',(-44.45,-50.8,50.8));
#266 = VECTOR('',#267,1.);
#267 = DIRECTION('',(0.,-2.2E-16,-1.));
#268 = ORIENTED_EDGE('',*,*,#130,.T.);
#269 = ORIENTED_EDGE('',*,*,#263,.F.);
#270 = ORIENTED_EDGE('',*,*,#183,.F.);
#271 = CYLINDRICAL_SURFACE('',#272,12.7);
#272 = AXIS2_PLACEMENT_3D('',#273,#274,#275);
#273 = CARTESIAN_POINT('',(-31.75,-50.8,50.8));
#274 = DIRECTION('',(0.,2.2E-16,1.));
#275 = DIRECTION('',(-1.,0.,0.));
#276 = ( GEOMETRIC_REPRESENTATION_CONTEXT(3) 
GLOBAL_UNCERTAINTY_ASSIGNED_CONTEXT((#283)) GLOBAL_UNIT_ASSIGNED_CONTEXT
((#277,#281,#282)) REPRESENTATION_CONTEXT('Context #1',
  '3D Context with UNIT and UNCERTAINTY') );
#277 = ( CONVERSION_BASED_UNIT('INCH',#279) LENGTH_UNIT() NAMED_UNIT(
  #278) );
#278 = DIMENSIONAL_EXPONENTS(1.,0.,0.,0.,0.,0.,0.);
#279 = LENGTH_MEASURE_WITH_UNIT(25.4,#280);
#280 = ( LENGTH_UNIT() NAMED_UNIT(*) SI_UNIT(.MILLI.,.METRE.) );
#281 = ( NAMED_UNIT(*) PLANE_ANGLE_UNIT() SI_UNIT($,.RADIAN.) );
#282 = ( NAMED_UNIT(*) SI_UNIT($,.STERADIAN.) SOLID_ANGLE_UNIT() );
#283 = UNCERTAINTY_MEASURE_WITH_UNIT(LENGTH_MEASURE(1.E-07),#277,
  'distance_accuracy_value','confusion accuracy');
#284 = CONTEXT_DEPENDENT_SHAPE_REPRESENTATION(#285,#287);
#285 = ( REPRESENTATION_RELATIONSHIP('','',#47,#10) 
REPRESENTATION_RELATIONSHIP_WITH_TRANSFORMATION(#286) 
SHAPE_REPRESENTATION_RELATIONSHIP() );
#286 = ITEM_DEFINED_TRANSFORMATION('','',#11,#15);
#287 = PRODUCT_DEFINITION_SHAPE('Placement','Placement of an item',#288
  );
#288 = NEXT_ASSEMBLY_USAGE_OCCURRENCE('1','plank01','',#5,#42,$);
#289 = PRODUCT_RELATED_PRODUCT_CATEGORY('part',$,(#44));
#290 = SHAPE_DEFINITION_REPRESENTATION(#291,#297);
#291 = PRODUCT_DEFINITION_SHAPE('','',#292);
#292 = PRODUCT_DEFINITION('design','',#293,#296);
#293 = PRODUCT_DEFINITION_FORMATION('','',#294);
#294 = PRODUCT('plank02','plank02','',(#295));
#295 = PRODUCT_CONTEXT('',#2,'mechanical');
#296 = PRODUCT_DEFINITION_CONTEXT('part definition',#2,'design');
#297 = ADVANCED_BREP_SHAPE_REPRESENTATION('',(#11,#298),#668);
#298 = MANIFOLD_SOLID_BREP('',#299);
#299 = CLOSED_SHELL('',(#300,#362,#393,#417,#441,#458,#483,#508,#560,
    #591,#615,#639,#656));
#300 = ADVANCED_FACE('',(#301,#335,#346),#357,.F.);
#301 = FACE_BOUND('',#302,.F.);
#302 = EDGE_LOOP('',(#303,#313,#321,#329));
#303 = ORIENTED_EDGE('',*,*,#304,.T.);
#304 = EDGE_CURVE('',#305,#307,#309,.T.);
#305 = VERTEX_POINT('',#306);
#306 = CARTESIAN_POINT('',(0.,0.,0.));
#307 = VERTEX_POINT('',#308);
#308 = CARTESIAN_POINT('',(304.8,-6.8E-14,0.));
#309 = LINE('',#310,#311);
#310 = CARTESIAN_POINT('',(0.,0.,0.));
#311 = VECTOR('',#312,1.);
#312 = DIRECTION('',(1.,-2.2E-16,0.));
#313 = ORIENTED_EDGE('',*,*,#314,.T.);
#314 = EDGE_CURVE('',#307,#315,#317,.T.);
#315 = VERTEX_POINT('',#316);
#316 = CARTESIAN_POINT('',(304.8,152.4,0.));
#317 = LINE('',#318,#319);
#318 = CARTESIAN_POINT('',(304.8,-6.8E-14,0.));
#319 = VECTOR('',#320,1.);
#320 = DIRECTION('',(0.,1.,0.));
#321 = ORIENTED_EDGE('',*,*,#322,.F.);
#322 = EDGE_CURVE('',#323,#315,#325,.T.);
#323 = VERTEX_POINT('',#324);
#324 = CARTESIAN_POINT('',(0.,152.4,0.));
#325 = LINE('',#326,#327);
#326 = CARTESIAN_POINT('',(0.,152.4,-3.384E-14));
#327 = VECTOR('',#328,1.);
#328 = DIRECTION('',(1.,-2.2E-16,0.));
#329 = ORIENTED_EDGE('',*,*,#330,.F.);
#330 = EDGE_CURVE('',#305,#323,#331,.T.);
#331 = LINE('',#332,#333);
#332 = CARTESIAN_POINT('',(0.,0.,0.));
#333 = VECTOR('',#334,1.);
#334 = DIRECTION('',(0.,1.,0.));
#335 = FACE_BOUND('',#336,.F.);
#336 = EDGE_LOOP('',(#337));
#337 = ORIENTED_EDGE('',*,*,#338,.F.);
#338 = EDGE_CURVE('',#339,#339,#341,.T.);
#339 = VERTEX_POINT('',#340);
#340 = CARTESIAN_POINT('',(38.1,25.4,-2.E-14));
#341 = CIRCLE('',#342,12.7);
#342 = AXIS2_PLACEMENT_3D('',#343,#344,#345);
#343 = CARTESIAN_POINT('',(38.1,38.1,-2.132E-14));
#344 = DIRECTION('',(-0.,0.,1.));
#345 = DIRECTION('',(0.,-1.,0.));
#346 = FACE_BOUND('',#347,.F.);
#347 = EDGE_LOOP('',(#348));
#348 = ORIENTED_EDGE('',*,*,#349,.F.);
#349 = EDGE_CURVE('',#350,#350,#352,.T.);
#350 = VERTEX_POINT('',#351);
#351 = CARTESIAN_POINT('',(38.1,114.3,-4.E-14));
#352 = CIRCLE('',#353,12.7);
#353 = AXIS2_PLACEMENT_3D('',#354,#355,#356);
#354 = CARTESIAN_POINT('',(38.1,127.,-2.132E-14));
#355 = DIRECTION('',(-0.,0.,1.));
#356 = DIRECTION('',(0.,-1.,0.));
#357 = PLANE('',#358);
#358 = AXIS2_PLACEMENT_3D('',#359,#360,#361);
#359 = CARTESIAN_POINT('',(0.,0.,0.));
#360 = DIRECTION('',(0.,2.2E-16,1.));
#361 = DIRECTION('',(0.,1.,-2.2E-16));
#362 = ADVANCED_FACE('',(#363),#388,.F.);
#363 = FACE_BOUND('',#364,.F.);
#364 = EDGE_LOOP('',(#365,#375,#381,#382));
#365 = ORIENTED_EDGE('',*,*,#366,.T.);
#366 = EDGE_CURVE('',#367,#369,#371,.T.);
#367 = VERTEX_POINT('',#368);
#368 = CARTESIAN_POINT('',(0.,0.,25.4));
#369 = VERTEX_POINT('',#370);
#370 = CARTESIAN_POINT('',(304.8,-6.8E-14,25.4));
#371 = LINE('',#372,#373);
#372 = CARTESIAN_POINT('',(-5.64E-15,0.,25.4));
#373 = VECTOR('',#374,1.);
#374 = DIRECTION('',(1.,-2.2E-16,0.));
#375 = ORIENTED_EDGE('',*,*,#376,.T.);
#376 = EDGE_CURVE('',#369,#307,#377,.T.);
#377 = LINE('',#378,#379);
#378 = CARTESIAN_POINT('',(304.8,-6.8E-14,25.4));
#379 = VECTOR('',#380,1.);
#380 = DIRECTION('',(0.,0.,-1.));
#381 = ORIENTED_EDGE('',*,*,#304,.F.);
#382 = ORIENTED_EDGE('',*,*,#383,.F.);
#383 = EDGE_CURVE('',#367,#305,#384,.T.);
#384 = LINE('',#385,#386);
#385 = CARTESIAN_POINT('',(0.,0.,25.4));
#386 = VECTOR('',#387,1.);
#387 = DIRECTION('',(0.,0.,-1.));
#388 = PLANE('',#389);
#389 = AXIS2_PLACEMENT_3D('',#390,#391,#392);
#390 = CARTESIAN_POINT('',(-5.64E-15,0.,25.4));
#391 = DIRECTION('',(2.2E-16,1.,0.));
#392 = DIRECTION('',(2.2E-16,-4.84E-32,-1.));
#393 = ADVANCED_FACE('',(#394),#412,.F.);
#394 = FACE_BOUND('',#395,.F.);
#395 = EDGE_LOOP('',(#396,#397,#405,#411));
#396 = ORIENTED_EDGE('',*,*,#330,.T.);
#397 = ORIENTED_EDGE('',*,*,#398,.T.);
#398 = EDGE_CURVE('',#323,#399,#401,.T.);
#399 = VERTEX_POINT('',#400);
#400 = CARTESIAN_POINT('',(0.,152.4,25.4));
#401 = LINE('',#402,#403);
#402 = CARTESIAN_POINT('',(0.,152.4,0.));
#403 = VECTOR('',#404,1.);
#404 = DIRECTION('',(0.,0.,1.));
#405 = ORIENTED_EDGE('',*,*,#406,.T.);
#406 = EDGE_CURVE('',#399,#367,#407,.T.);
#407 = LINE('',#408,#409);
#408 = CARTESIAN_POINT('',(0.,152.4,25.4));
#409 = VECTOR('',#410,1.);
#410 = DIRECTION('',(0.,-1.,0.));
#411 = ORIENTED_EDGE('',*,*,#383,.T.);
#412 = PLANE('',#413);
#413 = AXIS2_PLACEMENT_3D('',#414,#415,#416);
#414 = CARTESIAN_POINT('',(0.,76.2,12.7));
#415 = DIRECTION('',(1.,0.,0.));
#416 = DIRECTION('',(0.,0.,1.));
#417 = ADVANCED_FACE('',(#418),#436,.T.);
#418 = FACE_BOUND('',#419,.T.);
#419 = EDGE_LOOP('',(#420,#421,#429,#435));
#420 = ORIENTED_EDGE('',*,*,#314,.T.);
#421 = ORIENTED_EDGE('',*,*,#422,.T.);
#422 = EDGE_CURVE('',#315,#423,#425,.T.);
#423 = VERTEX_POINT('',#424);
#424 = CARTESIAN_POINT('',(304.8,152.4,25.4));
#425 = LINE('',#426,#427);
#426 = CARTESIAN_POINT('',(304.8,152.4,0.));
#427 = VECTOR('',#428,1.);
#428 = DIRECTION('',(0.,0.,1.));
#429 = ORIENTED_EDGE('',*,*,#430,.T.);
#430 = EDGE_CURVE('',#423,#369,#431,.T.);
#431 = LINE('',#432,#433);
#432 = CARTESIAN_POINT('',(304.8,152.4,25.4));
#433 = VECTOR('',#434,1.);
#434 = DIRECTION('',(0.,-1.,0.));
#435 = ORIENTED_EDGE('',*,*,#376,.T.);
#436 = PLANE('',#437);
#437 = AXIS2_PLACEMENT_3D('',#438,#439,#440);
#438 = CARTESIAN_POINT('',(304.8,76.2,12.7));
#439 = DIRECTION('',(1.,0.,0.));
#440 = DIRECTION('',(0.,0.,1.));
#441 = ADVANCED_FACE('',(#442),#453,.F.);
#442 = FACE_BOUND('',#443,.F.);
#443 = EDGE_LOOP('',(#444,#445,#446,#452));
#444 = ORIENTED_EDGE('',*,*,#322,.T.);
#445 = ORIENTED_EDGE('',*,*,#422,.T.);
#446 = ORIENTED_EDGE('',*,*,#447,.F.);
#447 = EDGE_CURVE('',#399,#423,#448,.T.);
#448 = LINE('',#449,#450);
#449 = CARTESIAN_POINT('',(-5.64E-15,152.4,25.4));
#450 = VECTOR('',#451,1.);
#451 = DIRECTION('',(1.,-2.2E-16,0.));
#452 = ORIENTED_EDGE('',*,*,#398,.F.);
#453 = PLANE('',#454);
#454 = AXIS2_PLACEMENT_3D('',#455,#456,#457);
#455 = CARTESIAN_POINT('',(0.,152.4,-3.384E-14));
#456 = DIRECTION('',(-2.2E-16,-1.,-0.));
#457 = DIRECTION('',(-2.2E-16,4.84E-32,1.));
#458 = ADVANCED_FACE('',(#459),#478,.F.);
#459 = FACE_BOUND('',#460,.F.);
#460 = EDGE_LOOP('',(#461,#469,#470,#471));
#461 = ORIENTED_EDGE('',*,*,#462,.T.);
#462 = EDGE_CURVE('',#463,#339,#465,.T.);
#463 = VERTEX_POINT('',#464);
#464 = CARTESIAN_POINT('',(38.1,25.4,25.4));
#465 = LINE('',#466,#467);
#466 = CARTESIAN_POINT('',(38.1,25.4,25.4));
#467 = VECTOR('',#468,1.);
#468 = DIRECTION('',(2.2E-16,0.,-1.));
#469 = ORIENTED_EDGE('',*,*,#338,.T.);
#470 = ORIENTED_EDGE('',*,*,#462,.F.);
#471 = ORIENTED_EDGE('',*,*,#472,.F.);
#472 = EDGE_CURVE('',#463,#463,#473,.T.);
#473 = CIRCLE('',#474,12.7);
#474 = AXIS2_PLACEMENT_3D('',#475,#476,#477);
#475 = CARTESIAN_POINT('',(38.1,38.1,25.4));
#476 = DIRECTION('',(-0.,0.,1.));
#477 = DIRECTION('',(0.,-1.,0.));
#478 = CYLINDRICAL_SURFACE('',#479,12.7);
#479 = AXIS2_PLACEMENT_3D('',#480,#481,#482);
#480 = CARTESIAN_POINT('',(38.1,38.1,25.4));
#481 = DIRECTION('',(0.,2.2E-16,1.));
#482 = DIRECTION('',(2.2E-16,-1.,2.2E-16));
#483 = ADVANCED_FACE('',(#484),#503,.F.);
#484 = FACE_BOUND('',#485,.F.);
#485 = EDGE_LOOP('',(#486,#494,#495,#496));
#486 = ORIENTED_EDGE('',*,*,#487,.T.);
#487 = EDGE_CURVE('',#488,#350,#490,.T.);
#488 = VERTEX_POINT('',#489);
#489 = CARTESIAN_POINT('',(38.1,114.3,25.4));
#490 = LINE('',#491,#492);
#491 = CARTESIAN_POINT('',(38.1,114.3,25.4));
#492 = VECTOR('',#493,1.);
#493 = DIRECTION('',(2.2E-16,0.,-1.));
#494 = ORIENTED_EDGE('',*,*,#349,.T.);
#495 = ORIENTED_EDGE('',*,*,#487,.F.);
#496 = ORIENTED_EDGE('',*,*,#497,.F.);
#497 = EDGE_CURVE('',#488,#488,#498,.T.);
#498 = CIRCLE('',#499,12.7);
#499 = AXIS2_PLACEMENT_3D('',#500,#501,#502);
#500 = CARTESIAN_POINT('',(38.1,127.,25.4));
#501 = DIRECTION('',(-0.,0.,1.));
#502 = DIRECTION('',(0.,-1.,0.));
#503 = CYLINDRICAL_SURFACE('',#504,12.7);
#504 = AXIS2_PLACEMENT_3D('',#505,#506,#507);
#505 = CARTESIAN_POINT('',(38.1,127.,25.4));
#506 = DIRECTION('',(0.,2.2E-16,1.));
#507 = DIRECTION('',(2.2E-16,-1.,2.2E-16));
#508 = ADVANCED_FACE('',(#509,#515,#549,#552),#555,.F.);
#509 = FACE_BOUND('',#510,.F.);
#510 = EDGE_LOOP('',(#511,#512,#513,#514));
#511 = ORIENTED_EDGE('',*,*,#447,.T.);
#512 = ORIENTED_EDGE('',*,*,#430,.T.);
#513 = ORIENTED_EDGE('',*,*,#366,.F.);
#514 = ORIENTED_EDGE('',*,*,#406,.F.);
#515 = FACE_BOUND('',#516,.F.);
#516 = EDGE_LOOP('',(#517,#527,#535,#543));
#517 = ORIENTED_EDGE('',*,*,#518,.T.);
#518 = EDGE_CURVE('',#519,#521,#523,.T.);
#519 = VERTEX_POINT('',#520);
#520 = CARTESIAN_POINT('',(292.1,6.35,25.4));
#521 = VERTEX_POINT('',#522);
#522 = CARTESIAN_POINT('',(292.1,146.05,25.4));
#523 = LINE('',#524,#525);
#524 = CARTESIAN_POINT('',(292.1,6.35,25.4));
#525 = VECTOR('',#526,1.);
#526 = DIRECTION('',(0.,1.,0.));
#527 = ORIENTED_EDGE('',*,*,#528,.T.);
#528 = EDGE_CURVE('',#521,#529,#531,.T.);
#529 = VERTEX_POINT('',#530);
#530 = CARTESIAN_POINT('',(266.7,146.05,25.4));
#531 = LINE('',#532,#533);
#532 = CARTESIAN_POINT('',(292.1,146.05,25.4));
#533 = VECTOR('',#534,1.);
#534 = DIRECTION('',(-1.,0.,0.));
#535 = ORIENTED_EDGE('',*,*,#536,.T.);
#536 = EDGE_CURVE('',#529,#537,#539,.T.);
#537 = VERTEX_POINT('',#538);
#538 = CARTESIAN_POINT('',(266.7,6.35,25.4));
#539 = LINE('',#540,#541);
#540 = CARTESIAN_POINT('',(266.7,146.05,25.4));
#541 = VECTOR('',#542,1.);
#542 = DIRECTION('',(0.,-1.,0.));
#543 = ORIENTED_EDGE('',*,*,#544,.T.);
#544 = EDGE_CURVE('',#537,#519,#545,.T.);
#545 = LINE('',#546,#547);
#546 = CARTESIAN_POINT('',(266.7,6.35,25.4));
#547 = VECTOR('',#548,1.);
#548 = DIRECTION('',(1.,0.,0.));
#549 = FACE_BOUND('',#550,.F.);
#550 = EDGE_LOOP('',(#551));
#551 = ORIENTED_EDGE('',*,*,#497,.T.);
#552 = FACE_BOUND('',#553,.F.);
#553 = EDGE_LOOP('',(#554));
#554 = ORIENTED_EDGE('',*,*,#472,.T.);
#555 = PLANE('',#556);
#556 = AXIS2_PLACEMENT_3D('',#557,#558,#559);
#557 = CARTESIAN_POINT('',(-5.64E-15,152.4,25.4));
#558 = DIRECTION('',(-0.,-2.2E-16,-1.));
#559 = DIRECTION('',(0.,-1.,2.2E-16));
#560 = ADVANCED_FACE('',(#561),#586,.F.);
#561 = FACE_BOUND('',#562,.F.);
#562 = EDGE_LOOP('',(#563,#571,#579,#585));
#563 = ORIENTED_EDGE('',*,*,#564,.T.);
#564 = EDGE_CURVE('',#519,#565,#567,.T.);
#565 = VERTEX_POINT('',#566);
#566 = CARTESIAN_POINT('',(292.1,6.35,38.1));
#567 = LINE('',#568,#569);
#568 = CARTESIAN_POINT('',(292.1,6.35,25.4));
#569 = VECTOR('',#570,1.);
#570 = DIRECTION('',(-2.2E-16,0.,1.));
#571 = ORIENTED_EDGE('',*,*,#572,.T.);
#572 = EDGE_CURVE('',#565,#573,#575,.T.);
#573 = VERTEX_POINT('',#574);
#574 = CARTESIAN_POINT('',(292.1,146.05,38.1));
#575 = LINE('',#576,#577);
#576 = CARTESIAN_POINT('',(292.1,6.35,38.1));
#577 = VECTOR('',#578,1.);
#578 = DIRECTION('',(0.,1.,0.));
#579 = ORIENTED_EDGE('',*,*,#580,.F.);
#580 = EDGE_CURVE('',#521,#573,#581,.T.);
#581 = LINE('',#582,#583);
#582 = CARTESIAN_POINT('',(292.1,146.05,25.4));
#583 = VECTOR('',#584,1.);
#584 = DIRECTION('',(-2.2E-16,0.,1.));
#585 = ORIENTED_EDGE('',*,*,#518,.F.);
#586 = PLANE('',#587);
#587 = AXIS2_PLACEMENT_3D('',#588,#589,#590);
#588 = CARTESIAN_POINT('',(292.1,6.35,25.4));
#589 = DIRECTION('',(-1.,-2.2E-16,-2.2E-16));
#590 = DIRECTION('',(-2.2E-16,1.,-2.2E-16));
#591 = ADVANCED_FACE('',(#592),#610,.F.);
#592 = FACE_BOUND('',#593,.F.);
#593 = EDGE_LOOP('',(#594,#602,#608,#609));
#594 = ORIENTED_EDGE('',*,*,#595,.T.);
#595 = EDGE_CURVE('',#537,#596,#598,.T.);
#596 = VERTEX_POINT('',#597);
#597 = CARTESIAN_POINT('',(266.7,6.35,38.1));
#598 = LINE('',#599,#600);
#599 = CARTESIAN_POINT('',(266.7,6.35,25.4));
#600 = VECTOR('',#601,1.);
#601 = DIRECTION('',(-2.2E-16,0.,1.));
#602 = ORIENTED_EDGE('',*,*,#603,.T.);
#603 = EDGE_CURVE('',#596,#565,#604,.T.);
#604 = LINE('',#605,#606);
#605 = CARTESIAN_POINT('',(266.7,6.35,38.1));
#606 = VECTOR('',#607,1.);
#607 = DIRECTION('',(1.,0.,0.));
#608 = ORIENTED_EDGE('',*,*,#564,.F.);
#609 = ORIENTED_EDGE('',*,*,#544,.F.);
#610 = PLANE('',#611);
#611 = AXIS2_PLACEMENT_3D('',#612,#613,#614);
#612 = CARTESIAN_POINT('',(266.7,6.35,25.4));
#613 = DIRECTION('',(0.,1.,0.));
#614 = DIRECTION('',(1.,0.,0.));
#615 = ADVANCED_FACE('',(#616),#634,.F.);
#616 = FACE_BOUND('',#617,.F.);
#617 = EDGE_LOOP('',(#618,#619,#627,#633));
#618 = ORIENTED_EDGE('',*,*,#580,.T.);
#619 = ORIENTED_EDGE('',*,*,#620,.T.);
#620 = EDGE_CURVE('',#573,#621,#623,.T.);
#621 = VERTEX_POINT('',#622);
#622 = CARTESIAN_POINT('',(266.7,146.05,38.1));
#623 = LINE('',#624,#625);
#624 = CARTESIAN_POINT('',(292.1,146.05,38.1));
#625 = VECTOR('',#626,1.);
#626 = DIRECTION('',(-1.,0.,0.));
#627 = ORIENTED_EDGE('',*,*,#628,.F.);
#628 = EDGE_CURVE('',#529,#621,#629,.T.);
#629 = LINE('',#630,#631);
#630 = CARTESIAN_POINT('',(266.7,146.05,25.4));
#631 = VECTOR('',#632,1.);
#632 = DIRECTION('',(-2.2E-16,0.,1.));
#633 = ORIENTED_EDGE('',*,*,#528,.F.);
#634 = PLANE('',#635);
#635 = AXIS2_PLACEMENT_3D('',#636,#637,#638);
#636 = CARTESIAN_POINT('',(292.1,146.05,25.4));
#637 = DIRECTION('',(0.,-1.,0.));
#638 = DIRECTION('',(-1.,0.,0.));
#639 = ADVANCED_FACE('',(#640),#651,.F.);
#640 = FACE_BOUND('',#641,.F.);
#641 = EDGE_LOOP('',(#642,#643,#649,#650));
#642 = ORIENTED_EDGE('',*,*,#628,.T.);
#643 = ORIENTED_EDGE('',*,*,#644,.T.);
#644 = EDGE_CURVE('',#621,#596,#645,.T.);
#645 = LINE('',#646,#647);
#646 = CARTESIAN_POINT('',(266.7,146.05,38.1));
#647 = VECTOR('',#648,1.);
#648 = DIRECTION('',(0.,-1.,0.));
#649 = ORIENTED_EDGE('',*,*,#595,.F.);
#650 = ORIENTED_EDGE('',*,*,#536,.F.);
#651 = PLANE('',#652);
#652 = AXIS2_PLACEMENT_3D('',#653,#654,#655);
#653 = CARTESIAN_POINT('',(266.7,146.05,25.4));
#654 = DIRECTION('',(1.,2.2E-16,2.2E-16));
#655 = DIRECTION('',(2.2E-16,-1.,2.2E-16));
#656 = ADVANCED_FACE('',(#657),#663,.T.);
#657 = FACE_BOUND('',#658,.T.);
#658 = EDGE_LOOP('',(#659,#660,#661,#662));
#659 = ORIENTED_EDGE('',*,*,#620,.T.);
#660 = ORIENTED_EDGE('',*,*,#644,.T.);
#661 = ORIENTED_EDGE('',*,*,#603,.T.);
#662 = ORIENTED_EDGE('',*,*,#572,.T.);
#663 = PLANE('',#664);
#664 = AXIS2_PLACEMENT_3D('',#665,#666,#667);
#665 = CARTESIAN_POINT('',(279.4,76.2,38.1));
#666 = DIRECTION('',(0.,0.,1.));
#667 = DIRECTION('',(1.,0.,0.));
#668 = ( GEOMETRIC_REPRESENTATION_CONTEXT(3) 
GLOBAL_UNCERTAINTY_ASSIGNED_CONTEXT((#675)) GLOBAL_UNIT_ASSIGNED_CONTEXT
((#669,#673,#674)) REPRESENTATION_CONTEXT('Context #1',
  '3D Context with UNIT and UNCERTAINTY') );
#669 = ( CONVERSION_BASED_UNIT('INCH',#671) LENGTH_UNIT() NAMED_UNIT(
  #670) );
#670 = DIMENSIONAL_EXPONENTS(1.,0.,0.,0.,0.,0.,0.);
#671 = LENGTH_MEASURE_WITH_UNIT(25.4,#672);
#672 = ( LENGTH_UNIT() NAMED_UNIT(*) SI_UNIT(.MILLI.,.METRE.) );
#673 = ( NAMED_UNIT(*) PLANE_ANGLE_UNIT() SI_UNIT($,.RADIAN.) );
#674 = ( NAMED_UNIT(*) SI_UNIT($,.STERADIAN.) SOLID_ANGLE_UNIT() );
#675 = UNCERTAINTY_MEASURE_WITH_UNIT(LENGTH_MEASURE(1.E-07),#669,
  'distance_accuracy_value','confusion accuracy');
#676 = CONTEXT_DEPENDENT_SHAPE_REPRESENTATION(#677,#679);
#677 = ( REPRESENTATION_RELATIONSHIP('','',#297,#10) 
REPRESENTATION_RELATIONSHIP_WITH_TRANSFORMATION(#678) 
SHAPE_REPRESENTATION_RELATIONSHIP() );
#678 = ITEM_DEFINED_TRANSFORMATION('','',#11,#19);
#679 = PRODUCT_DEFINITION_SHAPE('Placement','Placement of an item',#680
  );
#680 = NEXT_ASSEMBLY_USAGE_OCCURRENCE('2','plank02','',#5,#292,$);
#681 = PRODUCT_RELATED_PRODUCT_CATEGORY('part',$,(#294));
#682 = SHAPE_DEFINITION_REPRESENTATION(#683,#689);
#683 = PRODUCT_DEFINITION_SHAPE('','',#684);
#684 = PRODUCT_DEFINITION('design','',#685,#688);
#685 = PRODUCT_DEFINITION_FORMATION('','',#686);
#686 = PRODUCT('dowel','dowel','',(#687));
#687 = PRODUCT_CONTEXT('',#2,'mechanical');
#688 = PRODUCT_DEFINITION_CONTEXT('part definition',#2,'design');
#689 = ADVANCED_BREP_SHAPE_REPRESENTATION('',(#11,#690),#788);
#690 = MANIFOLD_SOLID_BREP('',#691);
#691 = CLOSED_SHELL('',(#692,#725,#734,#754,#779));
#692 = ADVANCED_FACE('',(#693),#720,.T.);
#693 = FACE_BOUND('',#694,.F.);
#694 = EDGE_LOOP('',(#695,#705,#712,#713));
#695 = ORIENTED_EDGE('',*,*,#696,.T.);
#696 = EDGE_CURVE('',#697,#699,#701,.T.);
#697 = VERTEX_POINT('',#698);
#698 = CARTESIAN_POINT('',(19.05,0.,0.));
#699 = VERTEX_POINT('',#700);
#700 = CARTESIAN_POINT('',(19.05,0.,6.35));
#701 = LINE('',#702,#703);
#702 = CARTESIAN_POINT('',(19.05,0.,0.));
#703 = VECTOR('',#704,1.);
#704 = DIRECTION('',(0.,0.,1.));
#705 = ORIENTED_EDGE('',*,*,#706,.T.);
#706 = EDGE_CURVE('',#699,#699,#707,.T.);
#707 = CIRCLE('',#708,19.05);
#708 = AXIS2_PLACEMENT_3D('',#709,#710,#711);
#709 = CARTESIAN_POINT('',(0.,0.,6.35));
#710 = DIRECTION('',(0.,0.,1.));
#711 = DIRECTION('',(1.,0.,0.));
#712 = ORIENTED_EDGE('',*,*,#696,.F.);
#713 = ORIENTED_EDGE('',*,*,#714,.F.);
#714 = EDGE_CURVE('',#697,#697,#715,.T.);
#715 = CIRCLE('',#716,19.05);
#716 = AXIS2_PLACEMENT_3D('',#717,#718,#719);
#717 = CARTESIAN_POINT('',(0.,0.,0.));
#718 = DIRECTION('',(0.,0.,1.));
#719 = DIRECTION('',(1.,0.,0.));
#720 = CYLINDRICAL_SURFACE('',#721,19.05);
#721 = AXIS2_PLACEMENT_3D('',#722,#723,#724);
#722 = CARTESIAN_POINT('',(0.,0.,0.));
#723 = DIRECTION('',(-0.,-0.,-1.));
#724 = DIRECTION('',(1.,0.,0.));
#725 = ADVANCED_FACE('',(#726),#729,.F.);
#726 = FACE_BOUND('',#727,.F.);
#727 = EDGE_LOOP('',(#728));
#728 = ORIENTED_EDGE('',*,*,#714,.T.);
#729 = PLANE('',#730);
#730 = AXIS2_PLACEMENT_3D('',#731,#732,#733);
#731 = CARTESIAN_POINT('',(-5.7E-16,3.7E-16,0.));
#732 = DIRECTION('',(0.,0.,1.));
#733 = DIRECTION('',(1.,0.,0.));
#734 = ADVANCED_FACE('',(#735,#738),#749,.T.);
#735 = FACE_BOUND('',#736,.T.);
#736 = EDGE_LOOP('',(#737));
#737 = ORIENTED_EDGE('',*,*,#706,.T.);
#738 = FACE_BOUND('',#739,.T.);
#739 = EDGE_LOOP('',(#740));
#740 = ORIENTED_EDGE('',*,*,#741,.F.);
#741 = EDGE_CURVE('',#742,#742,#744,.T.);
#742 = VERTEX_POINT('',#743);
#743 = CARTESIAN_POINT('',(12.7,0.,6.35));
#744 = CIRCLE('',#745,12.7);
#745 = AXIS2_PLACEMENT_3D('',#746,#747,#748);
#746 = CARTESIAN_POINT('',(0.,0.,6.35));
#747 = DIRECTION('',(0.,0.,1.));
#748 = DIRECTION('',(1.,0.,0.));
#749 = PLANE('',#750);
#750 = AXIS2_PLACEMENT_3D('',#751,#752,#753);
#751 = CARTESIAN_POINT('',(-5.7E-16,3.7E-16,6.35));
#752 = DIRECTION('',(0.,0.,1.));
#753 = DIRECTION('',(1.,0.,0.));
#754 = ADVANCED_FACE('',(#755),#774,.T.);
#755 = FACE_BOUND('',#756,.F.);
#756 = EDGE_LOOP('',(#757,#765,#772,#773));
#757 = ORIENTED_EDGE('',*,*,#758,.T.);
#758 = EDGE_CURVE('',#742,#759,#761,.T.);
#759 = VERTEX_POINT('',#760);
#760 = CARTESIAN_POINT('',(12.7,0.,107.95));
#761 = LINE('',#762,#763);
#762 = CARTESIAN_POINT('',(12.7,0.,6.35));
#763 = VECTOR('',#764,1.);
#764 = DIRECTION('',(0.,0.,1.));
#765 = ORIENTED_EDGE('',*,*,#766,.T.);
#766 = EDGE_CURVE('',#759,#759,#767,.T.);
#767 = CIRCLE('',#768,12.7);
#768 = AXIS2_PLACEMENT_3D('',#769,#770,#771);
#769 = CARTESIAN_POINT('',(0.,0.,107.95));
#770 = DIRECTION('',(0.,0.,1.));
#771 = DIRECTION('',(1.,0.,0.));
#772 = ORIENTED_EDGE('',*,*,#758,.F.);
#773 = ORIENTED_EDGE('',*,*,#741,.F.);
#774 = CYLINDRICAL_SURFACE('',#775,12.7);
#775 = AXIS2_PLACEMENT_3D('',#776,#777,#778);
#776 = CARTESIAN_POINT('',(0.,0.,6.35));
#777 = DIRECTION('',(-0.,-0.,-1.));
#778 = DIRECTION('',(1.,0.,0.));
#779 = ADVANCED_FACE('',(#780),#783,.T.);
#780 = FACE_BOUND('',#781,.T.);
#781 = EDGE_LOOP('',(#782));
#782 = ORIENTED_EDGE('',*,*,#766,.T.);
#783 = PLANE('',#784);
#784 = AXIS2_PLACEMENT_3D('',#785,#786,#787);
#785 = CARTESIAN_POINT('',(-8.6E-16,-9.E-17,107.95));
#786 = DIRECTION('',(0.,0.,1.));
#787 = DIRECTION('',(1.,0.,0.));
#788 = ( GEOMETRIC_REPRESENTATION_CONTEXT(3) 
GLOBAL_UNCERTAINTY_ASSIGNED_CONTEXT((#795)) GLOBAL_UNIT_ASSIGNED_CONTEXT
((#789,#793,#794)) REPRESENTATION_CONTEXT('Context #1',
  '3D Context with UNIT and UNCERTAINTY') );
#789 = ( CONVERSION_BASED_UNIT('INCH',#791) LENGTH_UNIT() NAMED_UNIT(
  #790) );
#790 = DIMENSIONAL_EXPONENTS(1.,0.,0.,0.,0.,0.,0.);
#791 = LENGTH_MEASURE_WITH_UNIT(25.4,#792);
#792 = ( LENGTH_UNIT() NAMED_UNIT(*) SI_UNIT(.MILLI.,.METRE.) );
#793 = ( NAMED_UNIT(*) PLANE_ANGLE_UNIT() SI_UNIT($,.RADIAN.) );
#794 = ( NAMED_UNIT(*) SI_UNIT($,.STERADIAN.) SOLID_ANGLE_UNIT() );
#795 = UNCERTAINTY_MEASURE_WITH_UNIT(LENGTH_MEASURE(1.E-07),#789,
  'distance_accuracy_value','confusion accuracy');
#796 = CONTEXT_DEPENDENT_SHAPE_REPRESENTATION(#797,#799);
#797 = ( REPRESENTATION_RELATIONSHIP('','',#689,#10) 
REPRESENTATION_RELATIONSHIP_WITH_TRANSFORMATION(#798) 
SHAPE_REPRESENTATION_RELATIONSHIP() );
#798 = ITEM_DEFINED_TRANSFORMATION('','',#11,#23);
#799 = PRODUCT_DEFINITION_SHAPE('Placement','Placement of an item',#800
  );
#800 = NEXT_ASSEMBLY_USAGE_OCCURRENCE('3','dowel','',#5,#684,$);
#801 = PRODUCT_RELATED_PRODUCT_CATEGORY('part',$,(#686));
#802 = SHAPE_DEFINITION_REPRESENTATION(#803,#809);
#803 = PRODUCT_DEFINITION_SHAPE('','',#804);
#804 = PRODUCT_DEFINITION('design','',#805,#808);
#805 = PRODUCT_DEFINITION_FORMATION('','',#806);
#806 = PRODUCT('Assembly','Assembly','',(#807));
#807 = PRODUCT_CONTEXT('',#2,'mechanical');
#808 = PRODUCT_DEFINITION_CONTEXT('part definition',#2,'design');
#809 = SHAPE_REPRESENTATION('',(#11,#810,#814,#818),#822);
#810 = AXIS2_PLACEMENT_3D('',#811,#812,#813);
#811 = CARTESIAN_POINT('',(0.,0.,0.));
#812 = DIRECTION('',(0.,0.,1.));
#813 = DIRECTION('',(1.,0.,0.));
#814 = AXIS2_PLACEMENT_3D('',#815,#816,#817);
#815 = CARTESIAN_POINT('',(-31.75,-50.8,107.95));
#816 = DIRECTION('',(0.,0.,-1.));
#817 = DIRECTION('',(-1.,0.,0.));
#818 = AXIS2_PLACEMENT_3D('',#819,#820,#821);
#819 = CARTESIAN_POINT('',(-69.85,-177.8,63.5));
#820 = DIRECTION('',(0.,0.,1.));
#821 = DIRECTION('',(1.,0.,0.));
#822 = ( GEOMETRIC_REPRESENTATION_CONTEXT(3) 
GLOBAL_UNCERTAINTY_ASSIGNED_CONTEXT((#829)) GLOBAL_UNIT_ASSIGNED_CONTEXT
((#823,#827,#828)) REPRESENTATION_CONTEXT('Context #1',
  '3D Context with UNIT and UNCERTAINTY') );
#823 = ( CONVERSION_BASED_UNIT('INCH',#825) LENGTH_UNIT() NAMED_UNIT(
  #824) );
#824 = DIMENSIONAL_EXPONENTS(1.,0.,0.,0.,0.,0.,0.);
#825 = LENGTH_MEASURE_WITH_UNIT(25.4,#826);
#826 = ( LENGTH_UNIT() NAMED_UNIT(*) SI_UNIT(.MILLI.,.METRE.) );
#827 = ( NAMED_UNIT(*) PLANE_ANGLE_UNIT() SI_UNIT($,.RADIAN.) );
#828 = ( NAMED_UNIT(*) SI_UNIT($,.STERADIAN.) SOLID_ANGLE_UNIT() );
#829 = UNCERTAINTY_MEASURE_WITH_UNIT(LENGTH_MEASURE(1.E-07),#823,
  'distance_accuracy_value','confusion accuracy');
#830 = CONTEXT_DEPENDENT_SHAPE_REPRESENTATION(#831,#833);
#831 = ( REPRESENTATION_RELATIONSHIP('','',#809,#10) 
REPRESENTATION_RELATIONSHIP_WITH_TRANSFORMATION(#832) 
SHAPE_REPRESENTATION_RELATIONSHIP() );
#832 = ITEM_DEFINED_TRANSFORMATION('','',#11,#27);
#833 = PRODUCT_DEFINITION_SHAPE('Placement','Placement of an item',#834
  );
#834 = NEXT_ASSEMBLY_USAGE_OCCURRENCE('7','Assembly','',#5,#804,$);
#835 = PRODUCT_RELATED_PRODUCT_CATEGORY('part',$,(#806));
#836 = CONTEXT_DEPENDENT_SHAPE_REPRESENTATION(#837,#839);
#837 = ( REPRESENTATION_RELATIONSHIP('','',#47,#809) 
REPRESENTATION_RELATIONSHIP_WITH_TRANSFORMATION(#838) 
SHAPE_REPRESENTATION_RELATIONSHIP() );
#838 = ITEM_DEFINED_TRANSFORMATION('','',#11,#810);
#839 = PRODUCT_DEFINITION_SHAPE('Placement','Placement of an item',#840
  );
#840 = NEXT_ASSEMBLY_USAGE_OCCURRENCE('4','plank001','',#804,#42,$);
#841 = CONTEXT_DEPENDENT_SHAPE_REPRESENTATION(#842,#844);
#842 = ( REPRESENTATION_RELATIONSHIP('','',#689,#809) 
REPRESENTATION_RELATIONSHIP_WITH_TRANSFORMATION(#843) 
SHAPE_REPRESENTATION_RELATIONSHIP() );
#843 = ITEM_DEFINED_TRANSFORMATION('','',#11,#814);
#844 = PRODUCT_DEFINITION_SHAPE('Placement','Placement of an item',#845
  );
#845 = NEXT_ASSEMBLY_USAGE_OCCURRENCE('5','dowel001','',#804,#684,$);
#846 = CONTEXT_DEPENDENT_SHAPE_REPRESENTATION(#847,#849);
#847 = ( REPRESENTATION_RELATIONSHIP('','',#297,#809) 
REPRESENTATION_RELATIONSHIP_WITH_TRANSFORMATION(#848) 
SHAPE_REPRESENTATION_RELATIONSHIP() );
#848 = ITEM_DEFINED_TRANSFORMATION('','',#11,#818);
#849 = PRODUCT_DEFINITION_SHAPE('Placement','Placement of an item',#850
  );
#850 = NEXT_ASSEMBLY_USAGE_OCCURRENCE('6','plank002','',#804,#292,$);
#851 = MECHANICAL_DESIGN_GEOMETRIC_PRESENTATION_REPRESENTATION('',(#852)
  ,#668);
#852 = STYLED_ITEM('color',(#853),#298);
#853 = PRESENTATION_STYLE_ASSIGNMENT((#854,#860));
#854 = SURFACE_STYLE_USAGE(.BOTH.,#855);
#855 = SURFACE_SIDE_STYLE('',(#856));
#856 = SURFACE_STYLE_FILL_AREA(#857);
#857 = FILL_AREA_STYLE('',(#858));
#858 = FILL_AREA_STYLE_COLOUR('',#859);
#859 = COLOUR_RGB('',0.800000010877,0.800000010877,0.901960800373);
#860 = CURVE_STYLE('',#861,POSITIVE_LENGTH_MEASURE(0.1),#862);
#861 = DRAUGHTING_PRE_DEFINED_CURVE_FONT('continuous');
#862 = COLOUR_RGB('',9.803921802644E-02,9.803921802644E-02,
  9.803921802644E-02);
#863 = MECHANICAL_DESIGN_GEOMETRIC_PRESENTATION_REPRESENTATION('',(#864)
  ,#276);
#864 = STYLED_ITEM('color',(#865),#48);
#865 = PRESENTATION_STYLE_ASSIGNMENT((#866,#871));
#866 = SURFACE_STYLE_USAGE(.BOTH.,#867);
#867 = SURFACE_SIDE_STYLE('',(#868));
#868 = SURFACE_STYLE_FILL_AREA(#869);
#869 = FILL_AREA_STYLE('',(#870));
#870 = FILL_AREA_STYLE_COLOUR('',#859);
#871 = CURVE_STYLE('',#872,POSITIVE_LENGTH_MEASURE(0.1),#862);
#872 = DRAUGHTING_PRE_DEFINED_CURVE_FONT('continuous');
#873 = MECHANICAL_DESIGN_GEOMETRIC_PRESENTATION_REPRESENTATION('',(#874)
  ,#788);
#874 = STYLED_ITEM('color',(#875),#690);
#875 = PRESENTATION_STYLE_ASSIGNMENT((#876,#882));
#876 = SURFACE_STYLE_USAGE(.BOTH.,#877);
#877 = SURFACE_SIDE_STYLE('',(#878));
#878 = SURFACE_STYLE_FILL_AREA(#879);
#879 = FILL_AREA_STYLE('',(#880));
#880 = FILL_AREA_STYLE_COLOUR('',#881);
#881 = COLOUR_RGB('',0.301960791261,0.301960791261,0.301960791261);
#882 = CURVE_STYLE('',#883,POSITIVE_LENGTH_MEASURE(0.1),#862);
#883 = DRAUGHTING_PRE_DEFINED_CURVE_FONT('continuous');
ENDSEC;
END-ISO-10303-21;
